<svg xmlns="http://www.w3.org/2000/svg" xmlns:xlink="http://www.w3.org/1999/xlink" width="1080" zoomAndPan="magnify" viewBox="0 0 810 809.999993" height="1080" preserveAspectRatio="xMidYMid meet" version="1.0"><defs><clipPath id="983121e3f8"><path d="M 0 0 L 808.988281 0 L 808.988281 808.988281 L 0 808.988281 Z M 0 0 " clip-rule="nonzero"/></clipPath><clipPath id="6a76a8b3b7"><path d="M 404.492188 0 C 181.097656 0 0 181.097656 0 404.492188 C 0 627.890625 181.097656 808.988281 404.492188 808.988281 C 627.890625 808.988281 808.988281 627.890625 808.988281 404.492188 C 808.988281 181.097656 627.890625 0 404.492188 0 Z M 404.492188 0 " clip-rule="nonzero"/></clipPath><clipPath id="036079fb36"><path d="M 0 0 L 808.980469 0 L 808.980469 808.980469 L 0 808.980469 Z M 0 0 " clip-rule="nonzero"/></clipPath><clipPath id="de09f45607"><path d="M 404.488281 0 C 181.097656 0 0 181.097656 0 404.492188 C 0 627.882812 181.097656 808.980469 404.488281 808.980469 C 627.882812 808.980469 808.980469 627.882812 808.980469 404.492188 C 808.980469 181.097656 627.882812 0 404.488281 0 Z M 404.488281 0 " clip-rule="nonzero"/></clipPath><clipPath id="36ec3579ce"><path d="M 524 382 L 698.101562 382 L 698.101562 557 L 524 557 Z M 524 382 " clip-rule="nonzero"/></clipPath><clipPath id="ce3884cecf"><path d="M 416 555 L 559 555 L 559 697.335938 L 416 697.335938 Z M 416 555 " clip-rule="nonzero"/></clipPath><clipPath id="73cf8bd514"><path d="M 111 111.585938 L 602 111.585938 L 602 697.335938 L 111 697.335938 Z M 111 111.585938 " clip-rule="nonzero"/></clipPath></defs><g clip-path="url(#983121e3f8)"><g clip-path="url(#6a76a8b3b7)"><path fill="#ffffff" d="M 0 0 L 808.988281 0 L 808.988281 808.988281 L 0 808.988281 Z M 0 0 " fill-opacity="1" fill-rule="nonzero"/></g></g><g clip-path="url(#036079fb36)"><g clip-path="url(#de09f45607)"><path stroke-linecap="butt" transform="matrix(0.75, 0, 0, 0.75, 0.0000035, 0.00002)" fill="none" stroke-linejoin="miter" d="M 539.317731 -0.0000266667 C 241.463549 -0.0000266667 -0.00000466667 241.463527 -0.00000466667 539.317709 C -0.00000466667 837.177099 241.463549 1078.640653 539.317731 1078.640653 C 837.177121 1078.640653 1078.640675 837.177099 1078.640675 539.317709 C 1078.640675 241.463527 837.177121 -0.0000266667 539.317731 -0.0000266667 Z M 539.317731 -0.0000266667 " stroke="#000000" stroke-width="20" stroke-opacity="1" stroke-miterlimit="4"/></g></g><path fill="#ff8fb7" d="M 234.648438 377.328125 C 231.988281 375.5 228.351562 376.175781 226.523438 378.832031 C 224.699219 381.492188 225.375 385.128906 228.03125 386.953125 C 237.527344 393.480469 251.457031 405.714844 263.882812 426.949219 C 270.9375 439.003906 276.171875 452.03125 279.019531 464.625 C 279.632812 467.335938 282.042969 469.175781 284.710938 469.175781 C 285.136719 469.175781 285.570312 469.128906 286.003906 469.03125 C 289.148438 468.320312 291.125 465.195312 290.414062 462.046875 C 287.304688 448.300781 281.617188 434.125 273.964844 421.050781 C 263.265625 402.769531 249.671875 387.652344 234.648438 377.328125 Z M 234.648438 377.328125 " fill-opacity="1" fill-rule="nonzero"/><path fill="#ff8fb7" d="M 439.8125 149.636719 C 394.492188 149.636719 358.273438 164.984375 329.085938 196.550781 C 326.894531 198.921875 327.042969 202.613281 329.410156 204.804688 C 330.53125 205.84375 331.953125 206.355469 333.375 206.355469 C 334.945312 206.355469 336.511719 205.726562 337.664062 204.480469 C 364.515625 175.4375 397.929688 161.320312 439.8125 161.320312 C 447.480469 161.320312 455.511719 161.8125 463.691406 162.78125 C 466.878906 163.164062 469.796875 160.875 470.179688 157.671875 C 470.558594 154.46875 468.269531 151.5625 465.066406 151.183594 C 456.4375 150.15625 447.941406 149.636719 439.8125 149.636719 Z M 439.8125 149.636719 " fill-opacity="1" fill-rule="nonzero"/><g clip-path="url(#36ec3579ce)"><path fill="#ff8fb7" d="M 611.292969 382.992188 C 563.414062 382.992188 524.460938 421.945312 524.460938 469.824219 C 524.460938 517.703125 563.414062 556.65625 611.292969 556.65625 C 659.171875 556.65625 698.125 517.703125 698.125 469.824219 C 698.125 421.945312 659.171875 382.992188 611.292969 382.992188 Z M 611.292969 544.972656 C 569.855469 544.972656 536.144531 511.261719 536.144531 469.824219 C 536.144531 428.382812 569.855469 394.671875 611.292969 394.671875 C 652.734375 394.671875 686.445312 428.382812 686.445312 469.824219 C 686.445312 511.261719 652.734375 544.972656 611.292969 544.972656 Z M 611.292969 544.972656 " fill-opacity="1" fill-rule="nonzero"/></g><path fill="#ff8fb7" d="M 611.292969 409.855469 C 578.226562 409.855469 551.328125 436.757812 551.328125 469.824219 C 551.328125 473.046875 553.941406 475.664062 557.167969 475.664062 C 560.390625 475.664062 563.007812 473.046875 563.007812 469.824219 C 563.007812 443.195312 584.667969 421.535156 611.292969 421.535156 C 614.519531 421.535156 617.132812 418.917969 617.132812 415.695312 C 617.132812 412.46875 614.519531 409.855469 611.292969 409.855469 Z M 611.292969 409.855469 " fill-opacity="1" fill-rule="nonzero"/><g clip-path="url(#ce3884cecf)"><path fill="#ff8fb7" d="M 487.75 555.203125 C 448.574219 555.203125 416.703125 587.074219 416.703125 626.25 C 416.703125 665.425781 448.574219 697.296875 487.75 697.296875 C 526.921875 697.296875 558.796875 665.425781 558.796875 626.25 C 558.796875 587.074219 526.921875 555.203125 487.75 555.203125 Z M 487.75 685.613281 C 455.015625 685.613281 428.382812 658.984375 428.382812 626.246094 C 428.382812 593.511719 455.015625 566.882812 487.75 566.882812 C 520.484375 566.882812 547.113281 593.511719 547.113281 626.246094 C 547.113281 658.984375 520.484375 685.613281 487.75 685.613281 Z M 487.75 685.613281 " fill-opacity="1" fill-rule="nonzero"/></g><path fill="#ff8fb7" d="M 487.75 582.066406 C 463.386719 582.066406 443.566406 601.886719 443.566406 626.25 C 443.566406 629.472656 446.183594 632.089844 449.40625 632.089844 C 452.632812 632.089844 455.246094 629.472656 455.246094 626.25 C 455.246094 608.328125 469.828125 593.746094 487.75 593.746094 C 490.972656 593.746094 493.589844 591.132812 493.589844 587.90625 C 493.589844 584.683594 490.972656 582.066406 487.75 582.066406 Z M 487.75 582.066406 " fill-opacity="1" fill-rule="nonzero"/><g clip-path="url(#73cf8bd514)"><path fill="#ff8fb7" d="M 296.496094 548.0625 C 312.433594 537.042969 321.9375 517.898438 323.652344 493.402344 C 328.933594 492.769531 335.492188 492.785156 343.902344 493.644531 C 400.21875 499.386719 425.925781 465.175781 461.570312 408.148438 C 478.046875 381.78125 495.097656 378.5 514.839844 374.699219 C 535.707031 370.683594 559.355469 366.128906 580.078125 330.441406 C 592.167969 309.625 599.867188 284.652344 601.761719 260.128906 C 602.011719 256.910156 599.605469 254.101562 596.390625 253.855469 C 593.171875 253.609375 590.363281 256.011719 590.117188 259.226562 C 588.351562 282.039062 581.199219 305.246094 569.976562 324.574219 C 551.925781 355.664062 532.835938 359.339844 512.628906 363.230469 C 492.085938 367.183594 470.839844 371.273438 451.664062 401.957031 C 415.34375 460.070312 392.988281 486.910156 345.085938 482.023438 C 309.5 478.390625 299.789062 489.222656 290.398438 499.695312 C 285.636719 505.003906 281.140625 510.015625 272.496094 513.175781 C 272.167969 513.296875 271.851562 513.445312 271.546875 513.621094 C 270.074219 514.484375 268.46875 515 266.496094 515.242188 C 252.140625 517.003906 221.933594 502.414062 199.738281 464.484375 C 187.847656 444.164062 181.453125 421.808594 182.195312 403.152344 C 182.695312 390.609375 186.386719 381.132812 192.066406 377.808594 C 192.605469 377.492188 193.230469 377.210938 193.972656 376.9375 C 194.167969 376.867188 194.359375 376.785156 194.546875 376.695312 C 224.617188 361.972656 253.953125 321.355469 269.28125 273.21875 C 288.195312 213.824219 339.640625 116.511719 471.644531 132.199219 C 537.859375 140.066406 579.410156 173.285156 588.632812 225.746094 C 589.195312 228.921875 592.226562 231.046875 595.398438 230.484375 C 598.574219 229.925781 600.695312 226.898438 600.136719 223.722656 C 594.234375 190.148438 569.867188 132.105469 473.019531 120.597656 C 432.402344 115.773438 396.199219 120.835938 364.785156 135.640625 C 350.683594 120.324219 330.878906 111.570312 310.015625 111.570312 C 268.949219 111.570312 235.539062 144.980469 235.539062 186.046875 C 235.539062 209.984375 247.140625 232.542969 266.601562 246.53125 C 263.1875 254.785156 260.402344 262.605469 258.152344 269.675781 C 249.226562 297.699219 236.277344 320.5625 222.714844 337.359375 C 203.347656 331.21875 185.421875 332.496094 170.652344 341.125 C 170.648438 341.128906 170.648438 341.128906 170.644531 341.128906 L 170.613281 341.148438 L 142.734375 357.242188 C 123.945312 368.238281 112.984375 389.660156 111.875 417.558594 C 110.800781 444.496094 119.085938 474.496094 135.199219 502.03125 C 151.316406 529.570312 173.414062 551.484375 197.425781 563.742188 C 210.800781 570.574219 223.933594 574 236.140625 574 C 243.882812 574 251.253906 572.609375 258.070312 569.839844 L 325.277344 686.25 C 328.226562 691.355469 332.988281 695.011719 338.683594 696.539062 C 340.589844 697.046875 342.519531 697.300781 344.4375 697.300781 C 348.261719 697.300781 352.039062 696.296875 355.441406 694.328125 C 360.550781 691.378906 364.203125 686.617188 365.730469 680.921875 C 367.257812 675.226562 366.472656 669.273438 363.523438 664.167969 L 296.488281 548.058594 Z M 247.226562 186.046875 C 247.226562 151.421875 275.398438 123.25 310.023438 123.25 C 326.53125 123.25 342.25 129.757812 353.953125 141.234375 C 340.9375 148.578125 328.808594 157.714844 317.613281 168.648438 C 296.558594 189.210938 281.742188 213.355469 271.433594 235.542969 C 256.230469 223.667969 247.226562 205.398438 247.226562 186.046875 Z M 214.164062 347.101562 C 205.691406 355.910156 197.257812 362.316406 189.671875 366.078125 C 188.390625 366.5625 187.242188 367.105469 186.175781 367.726562 C 176.765625 373.234375 171.207031 385.652344 170.53125 402.6875 C 169.703125 423.515625 176.675781 448.191406 189.664062 470.382812 C 211.902344 508.382812 242.910156 527.070312 263.972656 527.070312 C 265.332031 527.070312 266.648438 526.992188 267.921875 526.835938 C 271.285156 526.425781 274.253906 525.488281 276.980469 523.972656 C 288.058594 519.804688 293.917969 513.269531 299.097656 507.496094 C 302.886719 503.273438 306.320312 499.453125 311.617188 496.785156 C 309.300781 516.964844 300.765625 532.214844 287.109375 540.203125 C 254.773438 559.128906 203.65625 532.140625 173.167969 480.039062 C 158.164062 454.40625 150.445312 426.664062 151.429688 401.929688 C 152.375 378.152344 161.289062 360.144531 176.519531 351.230469 C 187.109375 345.035156 199.996094 343.660156 214.164062 347.101562 Z M 235.957031 562.34375 C 205.703125 562.339844 169.164062 536.941406 145.285156 496.132812 C 115.339844 444.964844 116.28125 388.34375 146.925781 368.421875 C 142.710938 377.925781 140.253906 389.046875 139.757812 401.460938 C 138.6875 428.402344 146.972656 458.402344 163.085938 485.9375 C 179.199219 513.472656 201.296875 535.390625 225.308594 547.648438 C 236.132812 553.175781 246.804688 556.472656 256.949219 557.527344 C 250.523438 560.78125 243.4375 562.347656 235.957031 562.34375 Z M 354.457031 677.902344 C 353.738281 680.585938 352.015625 682.828125 349.609375 684.21875 C 347.203125 685.609375 344.398438 685.976562 341.714844 685.257812 C 339.03125 684.539062 336.789062 682.816406 335.398438 680.410156 L 268.457031 564.460938 L 286.472656 554.058594 L 353.417969 670.007812 C 354.804688 672.414062 355.175781 675.21875 354.457031 677.902344 Z M 354.457031 677.902344 " fill-opacity="1" fill-rule="nonzero"/></g><path fill="#ff8fb7" d="M 602.09375 242.15625 C 602.09375 242.539062 602.058594 242.917969 601.980469 243.296875 C 601.90625 243.671875 601.796875 244.035156 601.648438 244.390625 C 601.503906 244.746094 601.324219 245.082031 601.109375 245.402344 C 600.898438 245.71875 600.65625 246.015625 600.382812 246.285156 C 600.113281 246.558594 599.816406 246.800781 599.5 247.011719 C 599.179688 247.226562 598.84375 247.40625 598.488281 247.550781 C 598.132812 247.699219 597.769531 247.808594 597.394531 247.882812 C 597.015625 247.957031 596.636719 247.996094 596.253906 247.996094 C 595.871094 247.996094 595.492188 247.957031 595.113281 247.882812 C 594.738281 247.808594 594.375 247.699219 594.019531 247.550781 C 593.664062 247.40625 593.328125 247.226562 593.007812 247.011719 C 592.691406 246.800781 592.394531 246.558594 592.125 246.285156 C 591.851562 246.015625 591.613281 245.71875 591.398438 245.402344 C 591.183594 245.082031 591.003906 244.746094 590.859375 244.390625 C 590.710938 244.035156 590.601562 243.671875 590.527344 243.296875 C 590.453125 242.917969 590.414062 242.539062 590.414062 242.15625 C 590.414062 241.773438 590.453125 241.394531 590.527344 241.015625 C 590.601562 240.640625 590.710938 240.277344 590.859375 239.921875 C 591.003906 239.566406 591.183594 239.230469 591.398438 238.910156 C 591.613281 238.59375 591.851562 238.296875 592.125 238.027344 C 592.394531 237.753906 592.691406 237.511719 593.007812 237.300781 C 593.328125 237.085938 593.664062 236.90625 594.019531 236.761719 C 594.375 236.613281 594.738281 236.503906 595.113281 236.429688 C 595.492188 236.351562 595.871094 236.316406 596.253906 236.316406 C 596.636719 236.316406 597.015625 236.351562 597.394531 236.429688 C 597.769531 236.503906 598.132812 236.613281 598.488281 236.761719 C 598.84375 236.90625 599.179688 237.085938 599.5 237.300781 C 599.816406 237.511719 600.113281 237.753906 600.382812 238.027344 C 600.65625 238.296875 600.898438 238.59375 601.109375 238.910156 C 601.324219 239.230469 601.503906 239.566406 601.648438 239.921875 C 601.796875 240.277344 601.90625 240.640625 601.980469 241.015625 C 602.058594 241.394531 602.09375 241.773438 602.09375 242.15625 Z M 602.09375 242.15625 " fill-opacity="1" fill-rule="nonzero"/></svg>