<svg xmlns="http://www.w3.org/2000/svg" xmlns:xlink="http://www.w3.org/1999/xlink" zoomAndPan="magnify" viewBox="0 0 810 809.999993" preserveAspectRatio="xMidYMid meet" version="1.0"><defs><clipPath id="e5a539c775"><path d="M 112 682 L 525 682 L 525 745.050781 L 112 745.050781 Z M 112 682 " clip-rule="nonzero"/></clipPath><clipPath id="56decaf271"><path d="M 51.195312 64.800781 L 483 64.800781 L 483 497 L 51.195312 497 Z M 51.195312 64.800781 " clip-rule="nonzero"/></clipPath><clipPath id="a97d685224"><path d="M 59 667.523438 L 385.648438 667.523438 L 385.648438 789.976562 L 59 789.976562 Z M 59 667.523438 " clip-rule="nonzero"/></clipPath><clipPath id="f63b99c304"><path d="M 81.253906 733.199219 C 105.027344 728.101562 120.851562 708.601562 131.800781 701.398438 C 139.527344 696.375 146.128906 694.648438 153.101562 690.824219 C 159.925781 687.074219 166.152344 681.976562 173.203125 678.75 C 180.328125 675.523438 187.828125 673.199219 195.628906 671.398438 C 203.878906 669.523438 212.953125 668.550781 221.503906 668.023438 C 229.828125 667.5 238.078125 668.023438 246.175781 668.175781 C 254.050781 668.324219 261.703125 668.023438 269.425781 668.925781 C 277.300781 669.824219 285.328125 670.800781 293.050781 673.574219 C 301.378906 676.574219 308.953125 680.851562 317.503906 686.925781 C 328.753906 695.023438 342.175781 708.898438 353.277344 719.625 C 363.328125 729.300781 377.050781 741.976562 381.328125 748.273438 C 383.050781 750.824219 383.351562 752.25 383.953125 754.351562 C 384.628906 756.523438 385.003906 758.773438 385.078125 760.949219 C 385.226562 763.199219 385.003906 765.449219 384.628906 767.625 C 384.175781 769.800781 383.503906 771.976562 382.527344 773.925781 C 381.628906 775.949219 380.425781 777.898438 379.003906 779.625 C 377.652344 781.351562 376.003906 782.925781 374.277344 784.273438 C 372.476562 785.625 370.527344 786.75 368.503906 787.648438 C 366.476562 788.550781 364.300781 789.226562 362.128906 789.601562 C 359.878906 789.898438 357.628906 790.050781 355.453125 789.898438 C 353.203125 789.75 350.953125 789.300781 348.851562 788.625 C 346.753906 787.949219 344.726562 786.976562 342.851562 785.773438 C 340.976562 784.648438 339.175781 783.148438 337.601562 781.574219 C 336.101562 780 334.601562 778.875 333.550781 776.324219 C 331.675781 771.449219 330.175781 758.699219 331.300781 753.148438 C 332.050781 749.699219 333.777344 747.601562 335.578125 745.273438 C 337.453125 742.949219 339.703125 740.851562 342.175781 739.199219 C 344.652344 737.550781 347.503906 736.273438 350.351562 735.523438 C 353.203125 734.773438 356.351562 734.476562 359.277344 734.625 C 362.203125 734.851562 365.277344 735.601562 367.976562 736.726562 C 370.753906 737.773438 373.378906 739.425781 375.628906 741.375 C 377.800781 743.324219 379.828125 745.726562 381.328125 748.273438 C 382.828125 750.824219 383.953125 753.75 384.550781 756.675781 C 385.152344 759.523438 385.300781 762.675781 384.925781 765.601562 C 384.550781 768.523438 383.726562 771.523438 382.453125 774.226562 C 381.175781 776.851562 379.378906 779.398438 377.351562 781.574219 C 375.253906 783.675781 372.777344 785.550781 370.152344 786.898438 C 367.527344 788.25 364.527344 789.226562 361.601562 789.675781 C 358.675781 790.050781 355.527344 790.050781 352.675781 789.523438 C 349.753906 789 346.753906 788.023438 344.203125 786.601562 C 341.578125 785.175781 339.101562 783.226562 337.152344 781.050781 C 335.128906 778.949219 333.402344 776.324219 332.203125 773.625 C 331.003906 770.925781 330.175781 767.851562 329.878906 764.925781 C 329.652344 762 329.800781 758.851562 330.476562 756 C 331.152344 753.148438 332.351562 750.226562 333.925781 747.75 C 335.425781 745.199219 337.527344 742.875 339.777344 741 C 342.027344 739.125 344.726562 737.476562 347.503906 736.425781 C 350.277344 735.375 353.351562 734.773438 356.277344 734.625 C 359.203125 734.476562 362.351562 734.851562 365.203125 735.675781 C 367.976562 736.5 370.828125 737.851562 373.226562 739.574219 C 375.703125 741.226562 377.953125 743.398438 379.675781 745.800781 C 381.402344 748.125 382.902344 750.976562 383.800781 753.75 C 384.703125 756.523438 385.300781 762.601562 385.152344 762.601562 C 384.925781 762.675781 381.027344 748.351562 381.328125 748.273438 C 381.476562 748.199219 383.351562 752.25 383.953125 754.351562 C 384.628906 756.523438 385.003906 758.773438 385.078125 760.949219 C 385.226562 763.199219 385.003906 765.449219 384.628906 767.625 C 384.175781 769.800781 383.503906 771.976562 382.527344 773.925781 C 381.628906 775.949219 380.425781 777.898438 379.003906 779.625 C 377.652344 781.351562 376.003906 782.925781 374.277344 784.273438 C 372.476562 785.625 370.527344 786.75 368.503906 787.648438 C 366.476562 788.550781 364.300781 789.226562 362.128906 789.601562 C 359.953125 789.898438 357.628906 790.050781 355.453125 789.898438 C 353.203125 789.75 350.953125 789.300781 348.851562 788.625 C 346.753906 787.949219 344.726562 786.976562 342.851562 785.773438 C 340.976562 784.648438 339.175781 783.148438 337.601562 781.574219 C 336.101562 780 334.753906 776.773438 333.550781 776.324219 C 333.027344 776.023438 332.800781 776.699219 331.976562 776.476562 C 327.777344 774.976562 307.527344 751.648438 297.925781 742.574219 C 291.101562 736.199219 287.128906 730.125 280.152344 726.675781 C 273.027344 723.148438 263.800781 722.851562 255.550781 721.875 C 247.453125 720.898438 239.503906 720.824219 231.253906 720.898438 C 222.777344 721.050781 215.050781 720.226562 205.378906 722.699219 C 191.503906 726.226562 168.925781 737.023438 157.378906 744.898438 C 149.652344 750.148438 146.203125 756.148438 140.277344 761.398438 C 134.277344 766.726562 128.578125 773.398438 121.527344 776.476562 C 114.628906 779.476562 105.101562 778.949219 98.351562 779.625 C 93.101562 780.074219 88.078125 780.375 84.402344 780.375 C 82.152344 780.375 80.578125 780.375 78.777344 780.074219 C 76.902344 779.699219 75.027344 779.175781 73.300781 778.425781 C 71.578125 777.601562 69.925781 776.625 68.425781 775.5 C 66.925781 774.300781 65.503906 772.949219 64.378906 771.449219 C 63.175781 770.023438 62.128906 768.300781 61.378906 766.648438 C 60.550781 764.925781 60.027344 763.050781 59.652344 761.175781 C 59.277344 759.300781 59.128906 757.351562 59.277344 755.476562 C 59.351562 753.601562 59.726562 751.726562 60.253906 749.925781 C 60.777344 748.050781 61.601562 746.324219 62.578125 744.675781 C 63.550781 743.023438 64.753906 741.523438 66.027344 740.175781 C 67.378906 738.824219 68.878906 737.625 70.527344 736.648438 C 72.101562 735.675781 73.902344 734.851562 75.703125 734.25 C 77.503906 733.648438 81.328125 733.199219 81.328125 733.199219 " clip-rule="nonzero"/></clipPath></defs><g clip-path="url(#e5a539c775)"><path fill="#000000" d="M 415.382812 809.726562 C 405.398438 809.726562 395.769531 811.1875 386.574219 813.710938 C 383.894531 756.097656 344.855469 704.035156 286.375 687.777344 C 251.109375 677.972656 214.121094 682.507812 182.210938 700.542969 C 150.3125 718.582031 127.347656 747.957031 117.539062 783.253906 C 97.296875 856.160156 140.09375 931.9375 212.945312 952.195312 C 225.179688 955.589844 237.488281 957.222656 249.617188 957.222656 C 270.523438 957.222656 290.808594 952.289062 309.128906 943.433594 C 320.292969 991.855469 363.636719 1028.109375 415.371094 1028.109375 C 475.546875 1028.109375 524.496094 979.128906 524.496094 918.917969 C 524.496094 858.703125 475.546875 809.726562 415.371094 809.726562 Z M 216.296875 940.109375 C 184.25 931.199219 157.574219 910.3125 141.199219 881.304688 C 124.8125 852.289062 120.703125 818.65625 129.605469 786.585938 C 138.507812 754.519531 159.382812 727.828125 188.371094 711.441406 C 207.355469 700.710938 228.3125 695.242188 249.503906 695.242188 C 260.695312 695.242188 271.953125 696.769531 283.019531 699.851562 C 315.066406 708.757812 341.746094 729.644531 358.121094 758.652344 C 368.503906 777.046875 373.929688 797.304688 374.253906 817.835938 C 334.417969 834.125 306.261719 873.261719 306.261719 918.917969 C 306.261719 922.851562 306.492188 926.71875 306.902344 930.546875 C 278.835938 945.125 246.886719 948.628906 216.296875 940.109375 Z M 318.789062 918.917969 C 318.789062 880.589844 341.238281 847.515625 373.625 831.886719 C 372.917969 839.078125 371.691406 846.261719 369.722656 853.363281 C 361.671875 882.347656 343.785156 906.863281 319.019531 923.417969 C 318.945312 921.914062 318.789062 920.429688 318.789062 918.917969 Z M 415.382812 1015.570312 C 368.378906 1015.570312 329.171875 981.800781 320.585938 937.25 C 349.46875 919.769531 372.066406 891.75 381.789062 856.71875 C 384.574219 846.695312 386.058594 836.640625 386.542969 826.65625 C 395.65625 823.796875 405.34375 822.25 415.382812 822.25 C 468.652344 822.25 511.988281 865.613281 511.988281 918.917969 C 511.988281 972.21875 468.652344 1015.570312 415.382812 1015.570312 Z M 415.382812 1015.570312 " fill-opacity="1" fill-rule="nonzero"/></g><g clip-path="url(#56decaf271)"><path fill="#000000" d="M 266.886719 496.042969 C 385.710938 496.042969 482.378906 399.316406 482.378906 280.425781 C 482.378906 161.539062 385.710938 64.800781 266.886719 64.800781 C 148.0625 64.800781 51.394531 161.527344 51.394531 280.425781 C 51.394531 399.328125 148.0625 496.042969 266.886719 496.042969 Z M 266.886719 77.328125 C 378.804688 77.328125 469.859375 168.4375 469.859375 280.425781 C 469.859375 392.417969 378.804688 483.519531 266.886719 483.519531 C 154.96875 483.519531 63.914062 392.40625 63.914062 280.425781 C 63.914062 168.449219 154.96875 77.328125 266.886719 77.328125 Z M 266.886719 77.328125 " fill-opacity="1" fill-rule="nonzero"/></g><path fill="#000000" d="M 743.089844 526.871094 C 727.890625 488.167969 698.566406 457.730469 660.515625 441.144531 C 622.464844 424.558594 580.222656 423.8125 541.554688 439.007812 C 502.886719 454.214844 472.457031 483.558594 455.882812 521.632812 C 421.648438 600.28125 457.730469 692.128906 536.320312 726.386719 C 556.21875 735.0625 577.25 739.40625 598.332031 739.40625 C 617.570312 739.40625 636.84375 735.789062 655.292969 728.53125 C 693.960938 713.324219 724.390625 683.980469 740.953125 645.90625 C 757.53125 607.832031 758.285156 565.5625 743.089844 526.871094 Z M 729.476562 640.910156 C 714.234375 675.914062 686.265625 702.890625 650.707031 716.878906 C 615.152344 730.867188 576.3125 730.171875 541.3125 714.910156 C 469.050781 683.410156 435.878906 598.957031 467.347656 526.640625 C 482.589844 491.636719 510.570312 464.660156 546.125 450.660156 C 563.101562 443.992188 580.824219 440.660156 598.511719 440.660156 C 617.894531 440.660156 637.234375 444.644531 655.511719 452.628906 C 690.492188 467.878906 717.460938 495.875 731.433594 531.457031 C 745.410156 567.035156 744.707031 605.910156 729.464844 640.910156 Z M 729.476562 640.910156 " fill-opacity="1" fill-rule="nonzero"/><path fill="#000000" d="M 230.519531 458.625 C 230.867188 458.6875 231.214844 458.707031 231.550781 458.707031 C 234.566406 458.707031 237.214844 456.53125 237.71875 453.460938 C 238.285156 450.042969 235.964844 446.824219 232.558594 446.253906 C 189.917969 439.230469 152.53125 415.984375 127.324219 380.792969 C 102.109375 345.613281 92.082031 302.734375 99.101562 260.066406 C 99.671875 256.648438 97.347656 253.429688 93.941406 252.859375 C 90.527344 252.261719 87.300781 254.617188 86.742188 258.023438 C 79.175781 303.996094 89.96875 350.1875 117.140625 388.105469 C 144.308594 426.007812 184.578125 451.050781 230.519531 458.613281 Z M 230.519531 458.625 " fill-opacity="1" fill-rule="nonzero"/><path fill="#000000" d="M 429.773438 248.792969 C 430.496094 256.039062 430.71875 263.390625 430.425781 270.644531 C 430.277344 274.097656 432.96875 277.019531 436.425781 277.15625 C 436.507812 277.15625 436.59375 277.15625 436.6875 277.15625 C 440.019531 277.15625 442.796875 274.515625 442.933594 271.140625 C 443.246094 263.304688 443.015625 255.363281 442.226562 247.539062 C 441.890625 244.089844 438.675781 241.449219 435.375 241.933594 C 431.9375 242.28125 429.425781 245.351562 429.773438 248.792969 Z M 429.773438 248.792969 " fill-opacity="1" fill-rule="nonzero"/><path fill="#000000" d="M 281.96875 109.699219 C 340.660156 112.054688 392.289062 146.792969 416.695312 200.390625 C 420.132812 207.929688 422.980469 215.820312 425.15625 223.824219 C 425.914062 226.609375 428.4375 228.449219 431.203125 228.449219 C 431.738281 228.449219 432.296875 228.386719 432.839844 228.230469 C 436.171875 227.324219 438.148438 223.886719 437.246094 220.542969 C 434.902344 211.875 431.820312 203.34375 428.101562 195.183594 C 401.730469 137.285156 345.929688 99.726562 282.484375 97.183594 C 279.351562 96.855469 276.125 99.726562 275.980469 103.1875 C 275.832031 106.648438 278.53125 109.5625 281.980469 109.699219 Z M 281.96875 109.699219 " fill-opacity="1" fill-rule="nonzero"/><path fill="#000000" d="M 699.761719 640.425781 C 696.808594 638.628906 692.960938 639.554688 691.15625 642.507812 C 688.347656 647.09375 685.214844 651.535156 681.808594 655.71875 C 679.632812 658.402344 680.042969 662.355469 682.726562 664.53125 C 683.878906 665.480469 685.277344 665.929688 686.667969 665.929688 C 688.484375 665.929688 690.292969 665.144531 691.53125 663.617188 C 695.265625 659 698.734375 654.097656 701.832031 649.039062 C 703.628906 646.097656 702.707031 642.234375 699.753906 640.425781 Z M 699.761719 640.425781 " fill-opacity="1" fill-rule="nonzero"/><path fill="#000000" d="M 677.5625 488.691406 C 674.882812 486.515625 670.941406 486.914062 668.765625 489.597656 C 666.589844 492.277344 666.988281 496.222656 669.671875 498.398438 C 701.601562 524.367188 715.253906 566.488281 705.28125 608.316406 C 703.863281 614.25 701.96875 620.117188 699.648438 625.765625 C 698.332031 628.960938 699.847656 632.621094 703.042969 633.949219 C 703.820312 634.265625 704.628906 634.421875 705.429688 634.421875 C 707.886719 634.421875 710.222656 632.960938 711.21875 630.550781 C 713.792969 624.292969 715.898438 617.792969 717.460938 611.230469 C 728.550781 564.671875 713.257812 517.710938 677.5625 488.683594 Z M 677.5625 488.691406 " fill-opacity="1" fill-rule="nonzero"/><g clip-path="url(#a97d685224)"><g clip-path="url(#f63b99c304)"><path fill="#b9e5ff" d="M 56.277344 665.023438 L 388.148438 665.023438 L 388.148438 792.976562 L 56.277344 792.976562 Z M 56.277344 665.023438 " fill-opacity="1" fill-rule="nonzero"/></g></g></svg>