<svg xmlns="http://www.w3.org/2000/svg" xmlns:xlink="http://www.w3.org/1999/xlink" width="48" zoomAndPan="magnify" viewBox="0 0 36 36.000001" height="48" preserveAspectRatio="xMidYMid meet" version="1.0"><defs><clipPath id="4f7e6ca21f"><path d="M 2.011719 2.121094 L 32.800781 2.121094 L 32.800781 32.90625 L 2.011719 32.90625 Z M 2.011719 2.121094 " clip-rule="nonzero"/></clipPath><clipPath id="b4237b2e2f"><path d="M 17.40625 2.121094 C 8.90625 2.121094 2.011719 9.011719 2.011719 17.511719 C 2.011719 26.015625 8.90625 32.90625 17.40625 32.90625 C 25.910156 32.90625 32.800781 26.015625 32.800781 17.511719 C 32.800781 9.011719 25.910156 2.121094 17.40625 2.121094 Z M 17.40625 2.121094 " clip-rule="nonzero"/></clipPath><clipPath id="8b8c1814c2"><path d="M 3.734375 3.28125 L 33.824219 3.28125 L 33.824219 33.371094 L 3.734375 33.371094 Z M 3.734375 3.28125 " clip-rule="nonzero"/></clipPath><clipPath id="d659b12ce9"><path d="M 18.777344 3.28125 C 10.46875 3.28125 3.734375 10.015625 3.734375 18.328125 C 3.734375 26.636719 10.46875 33.371094 18.777344 33.371094 C 27.085938 33.371094 33.824219 26.636719 33.824219 18.328125 C 33.824219 10.015625 27.085938 3.28125 18.777344 3.28125 Z M 18.777344 3.28125 " clip-rule="nonzero"/></clipPath><clipPath id="117f150081"><path d="M 1 2 L 35 2 L 35 34 L 1 34 Z M 1 2 " clip-rule="nonzero"/></clipPath><clipPath id="17e45588e4"><path d="M 0.488281 1.921875 L 34.550781 0.941406 L 35.476562 33.113281 L 1.414062 34.09375 Z M 0.488281 1.921875 " clip-rule="nonzero"/></clipPath><clipPath id="c822c79300"><path d="M 53.074219 -20.5 L -7.03125 -18.769531 L -5.5 34.296875 L 54.601562 32.566406 Z M 53.074219 -20.5 " clip-rule="nonzero"/></clipPath><clipPath id="78a36b78f4"><path d="M 33.734375 1.542969 L 1.273438 2.476562 L 2.183594 34.097656 L 34.644531 33.164062 Z M 33.734375 1.542969 " clip-rule="nonzero"/></clipPath><clipPath id="ac525e39e8"><path d="M 33.734375 1.542969 L 1.273438 2.476562 L 2.179688 34.066406 L 34.640625 33.132812 Z M 33.734375 1.542969 " clip-rule="nonzero"/></clipPath><clipPath id="23c9a283bb"><path d="M 3 16 L 5 16 L 5 19 L 3 19 Z M 3 16 " clip-rule="nonzero"/></clipPath><clipPath id="336bef5edd"><path d="M 0.488281 1.921875 L 34.550781 0.941406 L 35.476562 33.113281 L 1.414062 34.09375 Z M 0.488281 1.921875 " clip-rule="nonzero"/></clipPath><clipPath id="fdeef7b2c5"><path d="M 53.074219 -20.5 L -7.03125 -18.769531 L -5.5 34.296875 L 54.601562 32.566406 Z M 53.074219 -20.5 " clip-rule="nonzero"/></clipPath><clipPath id="352d6a5817"><path d="M 4 4 L 16 4 L 16 15 L 4 15 Z M 4 4 " clip-rule="nonzero"/></clipPath><clipPath id="6569aa65a4"><path d="M 0.488281 1.921875 L 34.550781 0.941406 L 35.476562 33.113281 L 1.414062 34.09375 Z M 0.488281 1.921875 " clip-rule="nonzero"/></clipPath><clipPath id="4aaf362342"><path d="M 53.074219 -20.5 L -7.03125 -18.769531 L -5.5 34.296875 L 54.601562 32.566406 Z M 53.074219 -20.5 " clip-rule="nonzero"/></clipPath></defs><g clip-path="url(#4f7e6ca21f)"><g clip-path="url(#b4237b2e2f)"><path fill="#b9e5ff" d="M 2.011719 2.121094 L 32.800781 2.121094 L 32.800781 32.90625 L 2.011719 32.90625 Z M 2.011719 2.121094 " fill-opacity="1" fill-rule="nonzero"/></g></g><g clip-path="url(#8b8c1814c2)"><g clip-path="url(#d659b12ce9)"><path fill="#b9e5ff" d="M 3.734375 3.28125 L 33.824219 3.28125 L 33.824219 33.371094 L 3.734375 33.371094 Z M 3.734375 3.28125 " fill-opacity="1" fill-rule="nonzero"/></g></g><g clip-path="url(#117f150081)"><g clip-path="url(#17e45588e4)"><g clip-path="url(#c822c79300)"><g clip-path="url(#78a36b78f4)"><g clip-path="url(#ac525e39e8)"><path fill="#000000" d="M 2.453125 18.664062 C 2.957031 23.355469 5.847656 27.792969 10.097656 30.394531 C 11.832031 31.457031 13.785156 32.210938 15.742188 32.570312 C 17.855469 32.964844 20.390625 32.882812 22.40625 32.375 C 28.335938 30.867188 32.570312 26.160156 33.316406 20.242188 C 33.460938 19.125 33.425781 17.273438 33.238281 16.179688 C 32.65625 12.816406 30.992188 9.730469 28.464844 7.347656 C 26.195312 5.203125 23.339844 3.734375 20.296875 3.144531 C 18.945312 2.882812 18.390625 2.84375 16.710938 2.886719 C 15.257812 2.925781 15.070312 2.9375 14.191406 3.121094 C 7.566406 4.484375 2.960938 9.640625 2.417969 16.308594 C 2.34375 17.1875 2.355469 17.714844 2.453125 18.664062 Z M 1.734375 15.664062 C 2.433594 8.316406 8.1875 2.769531 15.8125 2.09375 C 22.738281 1.484375 29.546875 5.332031 32.570312 11.558594 C 34.550781 15.625 34.726562 20.285156 33.054688 24.292969 C 31.984375 26.839844 30.113281 29.160156 27.828125 30.765625 C 24.363281 33.191406 19.960938 34.097656 15.503906 33.304688 C 14.304688 33.089844 12.703125 32.578125 11.507812 32.027344 C 6.382812 29.679688 2.929688 25.273438 1.9375 19.828125 C 1.742188 18.753906 1.640625 16.652344 1.734375 15.664062 " fill-opacity="1" fill-rule="evenodd"/></g></g></g></g></g><g clip-path="url(#23c9a283bb)"><g clip-path="url(#336bef5edd)"><g clip-path="url(#fdeef7b2c5)"><path fill="#000000" d="M 3.707031 16.289062 C 3.777344 16.125 3.984375 16.046875 4.101562 16.140625 C 4.175781 16.199219 4.203125 16.402344 4.222656 17.160156 C 4.253906 18.183594 4.214844 18.367188 4.039062 18.117188 C 3.792969 17.761719 3.585938 16.609375 3.707031 16.289062 " fill-opacity="1" fill-rule="evenodd"/></g></g></g><g clip-path="url(#352d6a5817)"><g clip-path="url(#6569aa65a4)"><g clip-path="url(#4aaf362342)"><path fill="#000000" d="M 4.464844 13.15625 C 4.691406 12.382812 5.515625 10.910156 6.359375 9.792969 C 7.296875 8.546875 8.871094 6.976562 9.902344 6.265625 C 10.507812 5.847656 12.894531 4.601562 13.433594 4.421875 C 14.34375 4.125 15.148438 3.980469 15.410156 4.070312 C 15.464844 4.085938 15.507812 4.171875 15.511719 4.25 C 15.515625 4.371094 15.460938 4.40625 15.078125 4.527344 C 13.972656 4.886719 13.230469 5.203125 11.96875 5.875 C 10.101562 6.863281 9.3125 7.421875 8.292969 8.5 C 6.890625 9.96875 5.769531 11.644531 5.140625 13.191406 C 4.808594 14.019531 4.636719 14.292969 4.484375 14.238281 C 4.34375 14.1875 4.332031 13.613281 4.464844 13.15625 " fill-opacity="1" fill-rule="evenodd"/></g></g></g></svg>