<svg xmlns="http://www.w3.org/2000/svg" xmlns:xlink="http://www.w3.org/1999/xlink" zoomAndPan="magnify" viewBox="0 0 375 374.999991" preserveAspectRatio="xMidYMid meet" version="1.0"><defs><clipPath id="638dcafa1f"><path d="M 55.347656 109.859375 L 73.738281 109.859375 L 73.738281 128.253906 L 55.347656 128.253906 Z M 55.347656 109.859375 " clip-rule="nonzero"/></clipPath><clipPath id="c82bc091d9"><path d="M 64.542969 109.859375 C 59.464844 109.859375 55.347656 113.980469 55.347656 119.058594 C 55.347656 124.136719 59.464844 128.253906 64.542969 128.253906 C 69.621094 128.253906 73.742188 124.136719 73.742188 119.058594 C 73.742188 113.980469 69.621094 109.859375 64.542969 109.859375 Z M 64.542969 109.859375 " clip-rule="nonzero"/></clipPath><clipPath id="b108f51c7c"><path d="M 78.605469 63.574219 L 97 63.574219 L 97 81.96875 L 78.605469 81.96875 Z M 78.605469 63.574219 " clip-rule="nonzero"/></clipPath><clipPath id="ad326935a9"><path d="M 87.804688 63.574219 C 82.722656 63.574219 78.605469 67.691406 78.605469 72.769531 C 78.605469 77.851562 82.722656 81.96875 87.804688 81.96875 C 92.882812 81.96875 97 77.851562 97 72.769531 C 97 67.691406 92.882812 63.574219 87.804688 63.574219 Z M 87.804688 63.574219 " clip-rule="nonzero"/></clipPath><clipPath id="4223e9f878"><path d="M 111.722656 30.457031 L 130.117188 30.457031 L 130.117188 48.847656 L 111.722656 48.847656 Z M 111.722656 30.457031 " clip-rule="nonzero"/></clipPath><clipPath id="8c9f1a9b37"><path d="M 120.921875 30.457031 C 115.84375 30.457031 111.722656 34.574219 111.722656 39.652344 C 111.722656 44.730469 115.84375 48.847656 120.921875 48.847656 C 126 48.847656 130.117188 44.730469 130.117188 39.652344 C 130.117188 34.574219 126 30.457031 120.921875 30.457031 Z M 120.921875 30.457031 " clip-rule="nonzero"/></clipPath><clipPath id="93b4fbc3b7"><path d="M 170.585938 10.570312 L 188.484375 10.570312 L 188.484375 28.46875 L 170.585938 28.46875 Z M 170.585938 10.570312 " clip-rule="nonzero"/></clipPath><clipPath id="768a24387b"><path d="M 179.535156 10.570312 C 174.59375 10.570312 170.585938 14.578125 170.585938 19.519531 C 170.585938 24.460938 174.59375 28.46875 179.535156 28.46875 C 184.476562 28.46875 188.484375 24.460938 188.484375 19.519531 C 188.484375 14.578125 184.476562 10.570312 179.535156 10.570312 Z M 179.535156 10.570312 " clip-rule="nonzero"/></clipPath><clipPath id="b4fe27bbd5"><path d="M 231 16 L 248 16 L 248 41 L 231 41 Z M 231 16 " clip-rule="nonzero"/></clipPath><clipPath id="07394d04fa"><path d="M 237.574219 14.011719 L 250.0625 18.425781 L 241.457031 42.769531 L 228.96875 38.355469 Z M 237.574219 14.011719 " clip-rule="nonzero"/></clipPath><clipPath id="0644ada9ad"><path d="M 243.816406 16.21875 C 240.367188 15 235.648438 19.453125 233.277344 26.164062 C 230.90625 32.875 231.777344 39.300781 235.226562 40.519531 C 238.675781 41.738281 243.394531 37.289062 245.765625 30.578125 C 248.136719 23.867188 247.265625 17.4375 243.816406 16.21875 Z M 243.816406 16.21875 " clip-rule="nonzero"/></clipPath><clipPath id="732d731c3d"><path d="M 274 52 L 295 52 L 295 72 L 274 72 Z M 274 52 " clip-rule="nonzero"/></clipPath><clipPath id="f9dac091ee"><path d="M 271.347656 65.253906 L 289.703125 48.832031 L 298.210938 58.34375 L 279.855469 74.765625 Z M 271.347656 65.253906 " clip-rule="nonzero"/></clipPath><clipPath id="4bb12d456a"><path d="M 280.515625 57.050781 C 275.453125 61.582031 273.25 67.382812 275.601562 70.007812 C 277.953125 72.636719 283.960938 71.09375 289.027344 66.5625 C 294.089844 62.03125 296.292969 56.230469 293.941406 53.601562 C 291.59375 50.976562 285.582031 52.519531 280.515625 57.050781 Z M 280.515625 57.050781 " clip-rule="nonzero"/></clipPath><clipPath id="b306905170"><path d="M 302.335938 106.128906 L 318.578125 106.128906 L 318.578125 122.371094 L 302.335938 122.371094 Z M 302.335938 106.128906 " clip-rule="nonzero"/></clipPath><clipPath id="c1509a2edb"><path d="M 310.457031 106.128906 C 305.972656 106.128906 302.335938 109.765625 302.335938 114.25 C 302.335938 118.734375 305.972656 122.371094 310.457031 122.371094 C 314.941406 122.371094 318.578125 118.734375 318.578125 114.25 C 318.578125 109.765625 314.941406 106.128906 310.457031 106.128906 Z M 310.457031 106.128906 " clip-rule="nonzero"/></clipPath><clipPath id="7d398e7cd5"><path d="M 302.335938 160.609375 L 322.738281 160.609375 L 322.738281 177.679688 L 302.335938 177.679688 Z M 302.335938 160.609375 " clip-rule="nonzero"/></clipPath><clipPath id="c1e974a37e"><path d="M 312.527344 160.609375 C 306.898438 160.609375 302.335938 164.429688 302.335938 169.144531 C 302.335938 173.855469 306.898438 177.679688 312.527344 177.679688 C 318.15625 177.679688 322.714844 173.855469 322.714844 169.144531 C 322.714844 164.429688 318.15625 160.609375 312.527344 160.609375 Z M 312.527344 160.609375 " clip-rule="nonzero"/></clipPath><clipPath id="48a14fabb8"><path d="M 86 215 L 106 215 L 106 235 L 86 235 Z M 86 215 " clip-rule="nonzero"/></clipPath><clipPath id="1c9d5e24c4"><path d="M 98.800781 212.472656 L 108.644531 222.316406 L 92.765625 238.199219 L 82.917969 228.355469 Z M 98.800781 212.472656 " clip-rule="nonzero"/></clipPath><clipPath id="57817b3049"><path d="M 103.722656 217.394531 C 101.003906 214.675781 95.25 216.027344 90.867188 220.40625 C 86.484375 224.789062 85.136719 230.546875 87.855469 233.265625 C 90.574219 235.984375 96.328125 234.632812 100.710938 230.253906 C 105.09375 225.871094 106.441406 220.113281 103.722656 217.394531 Z M 103.722656 217.394531 " clip-rule="nonzero"/></clipPath><clipPath id="72ca0c9e41"><path d="M 58.316406 167.144531 L 78.65625 167.144531 L 78.65625 181.066406 L 58.316406 181.066406 Z M 58.316406 167.144531 " clip-rule="nonzero"/></clipPath><clipPath id="5757fdeea1"><path d="M 68.460938 167.144531 C 62.859375 167.144531 58.316406 170.261719 58.316406 174.105469 C 58.316406 177.949219 62.859375 181.066406 68.460938 181.066406 C 74.066406 181.066406 78.605469 177.949219 78.605469 174.105469 C 78.605469 170.261719 74.066406 167.144531 68.460938 167.144531 Z M 68.460938 167.144531 " clip-rule="nonzero"/></clipPath><clipPath id="fecc950140"><path d="M 137.890625 253.980469 L 156.382812 253.980469 L 156.382812 272.472656 L 137.890625 272.472656 Z M 137.890625 253.980469 " clip-rule="nonzero"/></clipPath><clipPath id="15ffc4b774"><path d="M 147.136719 253.980469 C 142.027344 253.980469 137.890625 258.121094 137.890625 263.226562 C 137.890625 268.332031 142.027344 272.472656 147.136719 272.472656 C 152.242188 272.472656 156.382812 268.332031 156.382812 263.226562 C 156.382812 258.121094 152.242188 253.980469 147.136719 253.980469 Z M 147.136719 253.980469 " clip-rule="nonzero"/></clipPath><clipPath id="a78d2b9d30"><path d="M 221.675781 258.550781 L 235.601562 258.550781 L 235.601562 272.472656 L 221.675781 272.472656 Z M 221.675781 258.550781 " clip-rule="nonzero"/></clipPath><clipPath id="7d463ef638"><path d="M 228.636719 258.550781 C 224.792969 258.550781 221.675781 261.667969 221.675781 265.511719 C 221.675781 269.355469 224.792969 272.472656 228.636719 272.472656 C 232.484375 272.472656 235.601562 269.355469 235.601562 265.511719 C 235.601562 261.667969 232.484375 258.550781 228.636719 258.550781 Z M 228.636719 258.550781 " clip-rule="nonzero"/></clipPath><clipPath id="4509eecdf0"><path d="M 274 222 L 291 222 L 291 240 L 274 240 Z M 274 222 " clip-rule="nonzero"/></clipPath><clipPath id="463aa87c63"><path d="M 271.347656 227.289062 L 282.582031 219.058594 L 293.574219 234.0625 L 282.34375 242.292969 Z M 271.347656 227.289062 " clip-rule="nonzero"/></clipPath><clipPath id="e077d60a92"><path d="M 276.964844 223.171875 C 273.863281 225.445312 273.804688 230.640625 276.832031 234.773438 C 279.863281 238.90625 284.832031 240.417969 287.933594 238.144531 C 291.035156 235.871094 291.09375 230.679688 288.066406 226.542969 C 285.035156 222.410156 280.066406 220.902344 276.964844 223.171875 Z M 276.964844 223.171875 " clip-rule="nonzero"/></clipPath><clipPath id="b44b10d4ce"><path d="M 174.40625 261.019531 L 198.671875 261.019531 L 198.671875 375 L 174.40625 375 Z M 174.40625 261.019531 " clip-rule="nonzero"/></clipPath><clipPath id="2a0cca5832"><path d="M 186.539062 261.019531 C 179.835938 261.019531 174.40625 289.722656 174.40625 325.128906 C 174.40625 360.539062 179.835938 389.242188 186.539062 389.242188 C 193.242188 389.242188 198.671875 360.539062 198.671875 325.128906 C 198.671875 289.722656 193.242188 261.019531 186.539062 261.019531 Z M 186.539062 261.019531 " clip-rule="nonzero"/></clipPath><clipPath id="620bb489b0"><path d="M 127.84375 184.699219 L 142.113281 184.699219 L 142.113281 198.96875 L 127.84375 198.96875 Z M 127.84375 184.699219 " clip-rule="nonzero"/></clipPath><clipPath id="2831e06f1f"><path d="M 134.976562 184.699219 C 131.035156 184.699219 127.84375 187.894531 127.84375 191.832031 C 127.84375 195.773438 131.035156 198.96875 134.976562 198.96875 C 138.917969 198.96875 142.113281 195.773438 142.113281 191.832031 C 142.113281 187.894531 138.917969 184.699219 134.976562 184.699219 Z M 134.976562 184.699219 " clip-rule="nonzero"/></clipPath><clipPath id="54c369cc59"><path d="M 160.136719 201.601562 L 174.40625 201.601562 L 174.40625 215.871094 L 160.136719 215.871094 Z M 160.136719 201.601562 " clip-rule="nonzero"/></clipPath><clipPath id="2dd3ebb39e"><path d="M 167.269531 201.601562 C 163.328125 201.601562 160.136719 204.796875 160.136719 208.734375 C 160.136719 212.675781 163.328125 215.871094 167.269531 215.871094 C 171.210938 215.871094 174.40625 212.675781 174.40625 208.734375 C 174.40625 204.796875 171.210938 201.601562 167.269531 201.601562 Z M 167.269531 201.601562 " clip-rule="nonzero"/></clipPath><clipPath id="a8ef890e8a"><path d="M 198.671875 208.734375 L 212.941406 208.734375 L 212.941406 223.003906 L 198.671875 223.003906 Z M 198.671875 208.734375 " clip-rule="nonzero"/></clipPath><clipPath id="3d2d12f449"><path d="M 205.808594 208.734375 C 201.867188 208.734375 198.671875 211.929688 198.671875 215.871094 C 198.671875 219.8125 201.867188 223.003906 205.808594 223.003906 C 209.75 223.003906 212.941406 219.8125 212.941406 215.871094 C 212.941406 211.929688 209.75 208.734375 205.808594 208.734375 Z M 205.808594 208.734375 " clip-rule="nonzero"/></clipPath><clipPath id="2c6fe15580"><path d="M 235.792969 191.832031 L 250.0625 191.832031 L 250.0625 206.101562 L 235.792969 206.101562 Z M 235.792969 191.832031 " clip-rule="nonzero"/></clipPath><clipPath id="8d6adb028d"><path d="M 242.925781 191.832031 C 238.988281 191.832031 235.792969 195.027344 235.792969 198.96875 C 235.792969 202.910156 238.988281 206.101562 242.925781 206.101562 C 246.867188 206.101562 250.0625 202.910156 250.0625 198.96875 C 250.0625 195.027344 246.867188 191.832031 242.925781 191.832031 Z M 242.925781 191.832031 " clip-rule="nonzero"/></clipPath><clipPath id="5ea186ad35"><path d="M 252.800781 156.425781 L 267.070312 156.425781 L 267.070312 170.695312 L 252.800781 170.695312 Z M 252.800781 156.425781 " clip-rule="nonzero"/></clipPath><clipPath id="c37bdc72f4"><path d="M 259.933594 156.425781 C 255.992188 156.425781 252.800781 159.621094 252.800781 163.5625 C 252.800781 167.503906 255.992188 170.695312 259.933594 170.695312 C 263.875 170.695312 267.070312 167.503906 267.070312 163.5625 C 267.070312 159.621094 263.875 156.425781 259.933594 156.425781 Z M 259.933594 156.425781 " clip-rule="nonzero"/></clipPath><clipPath id="61e2b24573"><path d="M 252.800781 125.5 L 268.820312 125.5 L 268.820312 141.523438 L 252.800781 141.523438 Z M 252.800781 125.5 " clip-rule="nonzero"/></clipPath><clipPath id="36382c6f2a"><path d="M 260.808594 125.5 C 256.386719 125.5 252.800781 129.089844 252.800781 133.511719 C 252.800781 137.9375 256.386719 141.523438 260.808594 141.523438 C 265.234375 141.523438 268.820312 137.9375 268.820312 133.511719 C 268.820312 129.089844 265.234375 125.5 260.808594 125.5 Z M 260.808594 125.5 " clip-rule="nonzero"/></clipPath><clipPath id="a8940ed982"><path d="M 240.695312 90.230469 L 254.964844 90.230469 L 254.964844 104.5 L 240.695312 104.5 Z M 240.695312 90.230469 " clip-rule="nonzero"/></clipPath><clipPath id="24a91b665f"><path d="M 247.828125 90.230469 C 243.890625 90.230469 240.695312 93.425781 240.695312 97.367188 C 240.695312 101.308594 243.890625 104.5 247.828125 104.5 C 251.769531 104.5 254.964844 101.308594 254.964844 97.367188 C 254.964844 93.425781 251.769531 90.230469 247.828125 90.230469 Z M 247.828125 90.230469 " clip-rule="nonzero"/></clipPath><clipPath id="5595be1a65"><path d="M 111.128906 152.925781 L 125.398438 152.925781 L 125.398438 167.195312 L 111.128906 167.195312 Z M 111.128906 152.925781 " clip-rule="nonzero"/></clipPath><clipPath id="10ab55a1cd"><path d="M 118.261719 152.925781 C 114.320312 152.925781 111.128906 156.121094 111.128906 160.058594 C 111.128906 164 114.320312 167.195312 118.261719 167.195312 C 122.203125 167.195312 125.398438 164 125.398438 160.058594 C 125.398438 156.121094 122.203125 152.925781 118.261719 152.925781 Z M 118.261719 152.925781 " clip-rule="nonzero"/></clipPath><clipPath id="1fde82c17e"><path d="M 111.128906 119.242188 L 125.398438 119.242188 L 125.398438 133.511719 L 111.128906 133.511719 Z M 111.128906 119.242188 " clip-rule="nonzero"/></clipPath><clipPath id="9b41413c2e"><path d="M 118.261719 119.242188 C 114.320312 119.242188 111.128906 122.4375 111.128906 126.378906 C 111.128906 130.316406 114.320312 133.511719 118.261719 133.511719 C 122.203125 133.511719 125.398438 130.316406 125.398438 126.378906 C 125.398438 122.4375 122.203125 119.242188 118.261719 119.242188 Z M 118.261719 119.242188 " clip-rule="nonzero"/></clipPath><clipPath id="aa26408c58"><path d="M 215.132812 67.695312 L 229.402344 67.695312 L 229.402344 81.964844 L 215.132812 81.964844 Z M 215.132812 67.695312 " clip-rule="nonzero"/></clipPath><clipPath id="4de1a7ccf5"><path d="M 222.265625 67.695312 C 218.324219 67.695312 215.132812 70.890625 215.132812 74.832031 C 215.132812 78.773438 218.324219 81.964844 222.265625 81.964844 C 226.207031 81.964844 229.402344 78.773438 229.402344 74.832031 C 229.402344 70.890625 226.207031 67.695312 222.265625 67.695312 Z M 222.265625 67.695312 " clip-rule="nonzero"/></clipPath><clipPath id="9f068862aa"><path d="M 174.40625 60.5625 L 188.675781 60.5625 L 188.675781 74.832031 L 174.40625 74.832031 Z M 174.40625 60.5625 " clip-rule="nonzero"/></clipPath><clipPath id="2799d8579d"><path d="M 181.539062 60.5625 C 177.597656 60.5625 174.40625 63.757812 174.40625 67.695312 C 174.40625 71.636719 177.597656 74.832031 181.539062 74.832031 C 185.480469 74.832031 188.675781 71.636719 188.675781 67.695312 C 188.675781 63.757812 185.480469 60.5625 181.539062 60.5625 Z M 181.539062 60.5625 " clip-rule="nonzero"/></clipPath><clipPath id="3a395036fc"><path d="M 69.40625 25.660156 L 309.40625 25.660156 L 309.40625 265.660156 L 69.40625 265.660156 Z M 69.40625 25.660156 " clip-rule="nonzero"/></clipPath><clipPath id="4ccd3f9562"><path d="M 85.816406 37.5 L 293.566406 37.5 L 293.566406 245.25 L 85.816406 245.25 Z M 85.816406 37.5 " clip-rule="nonzero"/></clipPath><clipPath id="bb92f9e152"><path d="M 142.113281 71.066406 L 156.382812 71.066406 L 156.382812 85.335938 L 142.113281 85.335938 Z M 142.113281 71.066406 " clip-rule="nonzero"/></clipPath><clipPath id="4f9693dbe4"><path d="M 149.246094 71.066406 C 145.304688 71.066406 142.113281 74.261719 142.113281 78.203125 C 142.113281 82.144531 145.304688 85.335938 149.246094 85.335938 C 153.1875 85.335938 156.382812 82.144531 156.382812 78.203125 C 156.382812 74.261719 153.1875 71.066406 149.246094 71.066406 Z M 149.246094 71.066406 " clip-rule="nonzero"/></clipPath><clipPath id="39d46efbe3"><path d="M 118.261719 90.230469 L 132.53125 90.230469 L 132.53125 104.5 L 118.261719 104.5 Z M 118.261719 90.230469 " clip-rule="nonzero"/></clipPath><clipPath id="a93a11c643"><path d="M 125.398438 90.230469 C 121.457031 90.230469 118.261719 93.425781 118.261719 97.367188 C 118.261719 101.308594 121.457031 104.5 125.398438 104.5 C 129.335938 104.5 132.53125 101.308594 132.53125 97.367188 C 132.53125 93.425781 129.335938 90.230469 125.398438 90.230469 Z M 125.398438 90.230469 " clip-rule="nonzero"/></clipPath></defs><g clip-path="url(#638dcafa1f)"><g clip-path="url(#c82bc091d9)"><path fill="#ffdae7" d="M 55.347656 109.859375 L 73.738281 109.859375 L 73.738281 128.253906 L 55.347656 128.253906 Z M 55.347656 109.859375 " fill-opacity="1" fill-rule="nonzero"/></g></g><g clip-path="url(#b108f51c7c)"><g clip-path="url(#ad326935a9)"><path fill="#ffdae7" d="M 78.605469 63.574219 L 97 63.574219 L 97 81.96875 L 78.605469 81.96875 Z M 78.605469 63.574219 " fill-opacity="1" fill-rule="nonzero"/></g></g><g clip-path="url(#4223e9f878)"><g clip-path="url(#8c9f1a9b37)"><path fill="#ffdae7" d="M 111.722656 30.457031 L 130.117188 30.457031 L 130.117188 48.847656 L 111.722656 48.847656 Z M 111.722656 30.457031 " fill-opacity="1" fill-rule="nonzero"/></g></g><g clip-path="url(#93b4fbc3b7)"><g clip-path="url(#768a24387b)"><path fill="#ffdae7" d="M 170.585938 10.570312 L 188.484375 10.570312 L 188.484375 28.46875 L 170.585938 28.46875 Z M 170.585938 10.570312 " fill-opacity="1" fill-rule="nonzero"/></g></g><g clip-path="url(#b4fe27bbd5)"><g clip-path="url(#07394d04fa)"><g clip-path="url(#0644ada9ad)"><path fill="#ffdae7" d="M 237.574219 14.011719 L 250.0625 18.425781 L 241.472656 42.722656 L 228.984375 38.304688 Z M 237.574219 14.011719 " fill-opacity="1" fill-rule="nonzero"/></g></g></g><g clip-path="url(#732d731c3d)"><g clip-path="url(#f9dac091ee)"><g clip-path="url(#4bb12d456a)"><path fill="#ffdae7" d="M 271.347656 65.253906 L 289.703125 48.832031 L 298.210938 58.34375 L 279.855469 74.765625 Z M 271.347656 65.253906 " fill-opacity="1" fill-rule="nonzero"/></g></g></g><g clip-path="url(#b306905170)"><g clip-path="url(#c1509a2edb)"><path fill="#ffdae7" d="M 302.335938 106.128906 L 318.578125 106.128906 L 318.578125 122.371094 L 302.335938 122.371094 Z M 302.335938 106.128906 " fill-opacity="1" fill-rule="nonzero"/></g></g><g clip-path="url(#7d398e7cd5)"><g clip-path="url(#c1e974a37e)"><path fill="#ffdae7" d="M 302.335938 160.609375 L 322.738281 160.609375 L 322.738281 177.679688 L 302.335938 177.679688 Z M 302.335938 160.609375 " fill-opacity="1" fill-rule="nonzero"/></g></g><g clip-path="url(#48a14fabb8)"><g clip-path="url(#1c9d5e24c4)"><g clip-path="url(#57817b3049)"><path fill="#ffdae7" d="M 98.800781 212.472656 L 108.644531 222.316406 L 92.765625 238.199219 L 82.917969 228.355469 Z M 98.800781 212.472656 " fill-opacity="1" fill-rule="nonzero"/></g></g></g><g clip-path="url(#72ca0c9e41)"><g clip-path="url(#5757fdeea1)"><path fill="#ffdae7" d="M 58.316406 167.144531 L 78.601562 167.144531 L 78.601562 181.066406 L 58.316406 181.066406 Z M 58.316406 167.144531 " fill-opacity="1" fill-rule="nonzero"/></g></g><g clip-path="url(#fecc950140)"><g clip-path="url(#15ffc4b774)"><path fill="#ffdae7" d="M 137.890625 253.980469 L 156.382812 253.980469 L 156.382812 272.472656 L 137.890625 272.472656 Z M 137.890625 253.980469 " fill-opacity="1" fill-rule="nonzero"/></g></g><g clip-path="url(#a78d2b9d30)"><g clip-path="url(#7d463ef638)"><path fill="#ffdae7" d="M 221.675781 258.550781 L 235.601562 258.550781 L 235.601562 272.472656 L 221.675781 272.472656 Z M 221.675781 258.550781 " fill-opacity="1" fill-rule="nonzero"/></g></g><g clip-path="url(#4509eecdf0)"><g clip-path="url(#463aa87c63)"><g clip-path="url(#e077d60a92)"><path fill="#ffdae7" d="M 271.347656 227.289062 L 282.582031 219.058594 L 293.542969 234.019531 L 282.308594 242.246094 Z M 271.347656 227.289062 " fill-opacity="1" fill-rule="nonzero"/></g></g></g><g clip-path="url(#b44b10d4ce)"><g clip-path="url(#2a0cca5832)"><path fill="#ffdae7" d="M 174.40625 261.019531 L 198.671875 261.019531 L 198.671875 389.28125 L 174.40625 389.28125 Z M 174.40625 261.019531 " fill-opacity="1" fill-rule="nonzero"/></g></g><g clip-path="url(#620bb489b0)"><g clip-path="url(#2831e06f1f)"><path fill="#ffdae7" d="M 127.84375 184.699219 L 142.113281 184.699219 L 142.113281 198.96875 L 127.84375 198.96875 Z M 127.84375 184.699219 " fill-opacity="1" fill-rule="nonzero"/></g></g><g clip-path="url(#54c369cc59)"><g clip-path="url(#2dd3ebb39e)"><path fill="#ffdae7" d="M 160.136719 201.601562 L 174.40625 201.601562 L 174.40625 215.871094 L 160.136719 215.871094 Z M 160.136719 201.601562 " fill-opacity="1" fill-rule="nonzero"/></g></g><g clip-path="url(#a8ef890e8a)"><g clip-path="url(#3d2d12f449)"><path fill="#ffdae7" d="M 198.671875 208.734375 L 212.941406 208.734375 L 212.941406 223.003906 L 198.671875 223.003906 Z M 198.671875 208.734375 " fill-opacity="1" fill-rule="nonzero"/></g></g><g clip-path="url(#2c6fe15580)"><g clip-path="url(#8d6adb028d)"><path fill="#ffdae7" d="M 235.792969 191.832031 L 250.0625 191.832031 L 250.0625 206.101562 L 235.792969 206.101562 Z M 235.792969 191.832031 " fill-opacity="1" fill-rule="nonzero"/></g></g><g clip-path="url(#5ea186ad35)"><g clip-path="url(#c37bdc72f4)"><path fill="#ffdae7" d="M 252.800781 156.425781 L 267.070312 156.425781 L 267.070312 170.695312 L 252.800781 170.695312 Z M 252.800781 156.425781 " fill-opacity="1" fill-rule="nonzero"/></g></g><g clip-path="url(#61e2b24573)"><g clip-path="url(#36382c6f2a)"><path fill="#ffdae7" d="M 252.800781 125.5 L 268.820312 125.5 L 268.820312 141.523438 L 252.800781 141.523438 Z M 252.800781 125.5 " fill-opacity="1" fill-rule="nonzero"/></g></g><g clip-path="url(#a8940ed982)"><g clip-path="url(#24a91b665f)"><path fill="#ffdae7" d="M 240.695312 90.230469 L 254.964844 90.230469 L 254.964844 104.5 L 240.695312 104.5 Z M 240.695312 90.230469 " fill-opacity="1" fill-rule="nonzero"/></g></g><g clip-path="url(#5595be1a65)"><g clip-path="url(#10ab55a1cd)"><path fill="#ffdae7" d="M 111.128906 152.925781 L 125.398438 152.925781 L 125.398438 167.195312 L 111.128906 167.195312 Z M 111.128906 152.925781 " fill-opacity="1" fill-rule="nonzero"/></g></g><g clip-path="url(#1fde82c17e)"><g clip-path="url(#9b41413c2e)"><path fill="#ffdae7" d="M 111.128906 119.242188 L 125.398438 119.242188 L 125.398438 133.511719 L 111.128906 133.511719 Z M 111.128906 119.242188 " fill-opacity="1" fill-rule="nonzero"/></g></g><g clip-path="url(#aa26408c58)"><g clip-path="url(#4de1a7ccf5)"><path fill="#ffdae7" d="M 215.132812 67.695312 L 229.402344 67.695312 L 229.402344 81.964844 L 215.132812 81.964844 Z M 215.132812 67.695312 " fill-opacity="1" fill-rule="nonzero"/></g></g><g clip-path="url(#9f068862aa)"><g clip-path="url(#2799d8579d)"><path fill="#ffdae7" d="M 174.40625 60.5625 L 188.675781 60.5625 L 188.675781 74.832031 L 174.40625 74.832031 Z M 174.40625 60.5625 " fill-opacity="1" fill-rule="nonzero"/></g></g><g clip-path="url(#3a395036fc)"><path stroke-linecap="butt" transform="matrix(0.535853, 0, 0, 0.535853, 68.762827, 25.017336)" fill="none" stroke-linejoin="miter" d="M 418.781458 225.003288 C 418.781458 228.174344 418.70127 231.33811 418.548184 234.509166 C 418.387809 237.672933 418.154536 240.836699 417.848365 243.993176 C 417.534904 247.149652 417.148546 250.298839 416.682 253.433446 C 416.215453 256.568054 415.676009 259.695371 415.056378 262.808109 C 414.436746 265.913557 413.744217 269.011715 412.971499 272.088004 C 412.198782 275.164293 411.353167 278.218713 410.434655 281.251263 C 409.516142 284.283813 408.517441 287.294494 407.453133 290.283306 C 406.381535 293.264828 405.244328 296.22448 404.026934 299.154973 C 402.81683 302.085467 401.533828 304.986801 400.177928 307.851686 C 398.822028 310.716571 397.393231 313.552297 395.898825 316.344285 C 394.404419 319.143562 392.844405 321.8991 391.211493 324.625479 C 389.578582 327.344569 387.887352 330.01992 386.123224 332.658822 C 384.359096 335.297724 382.53665 337.885597 380.648596 340.437022 C 378.753252 342.981156 376.80688 345.481552 374.794899 347.93092 C 372.782919 350.387577 370.71262 352.785916 368.584003 355.133227 C 366.448096 357.487827 364.268451 359.784109 362.023197 362.022073 C 359.777944 364.267326 357.481662 366.454262 355.134351 368.582879 C 352.787041 370.711496 350.381412 372.781794 347.932044 374.793775 C 345.482677 376.805755 342.982281 378.759417 340.438146 380.647472 C 337.886722 382.535526 335.298848 384.357972 332.659946 386.122099 C 330.021044 387.886227 327.345694 389.577457 324.619314 391.210369 C 321.900225 392.843281 319.144686 394.403294 316.345409 395.8977 C 313.553422 397.392106 310.717696 398.820904 307.85281 400.176804 C 304.987925 401.532703 302.086591 402.815705 299.156098 404.02581 C 296.225605 405.243204 293.265952 406.38041 290.28443 407.452008 C 287.295619 408.523607 284.284938 409.515017 281.252388 410.43353 C 278.219837 411.359333 275.158128 412.204948 272.081839 412.970375 C 269.00555 413.743092 265.914682 414.435622 262.801944 415.055253 C 259.696496 415.674885 256.569178 416.214329 253.434571 416.680875 C 250.299964 417.147421 247.150777 417.53378 243.9943 417.847241 C 240.837824 418.160701 237.674057 418.393974 234.510291 418.54706 C 231.339235 418.700145 228.168179 418.780333 224.997123 418.780333 C 221.826066 418.780333 218.6623 418.700145 215.491244 418.54706 C 212.327478 418.393974 209.163711 418.160701 206.007235 417.847241 C 202.850758 417.53378 199.701571 417.147421 196.566964 416.680875 C 193.432357 416.214329 190.305039 415.674885 187.192301 415.055253 C 184.086853 414.435622 180.988695 413.743092 177.912406 412.970375 C 174.836117 412.204948 171.781698 411.359333 168.749147 410.43353 C 165.716597 409.515017 162.705916 408.523607 159.717105 407.452008 C 156.728293 406.38041 153.77593 405.243204 150.845437 404.02581 C 147.914944 402.815705 145.01361 401.532703 142.148724 400.176804 C 139.283839 398.820904 136.448113 397.392106 133.656126 395.8977 C 130.856849 394.403294 128.09402 392.843281 125.374931 391.210369 C 122.655841 389.577457 119.980491 387.886227 117.341589 386.122099 C 114.702687 384.357972 112.114813 382.535526 109.563389 380.647472 C 107.019254 378.759417 104.518858 376.805755 102.069491 374.793775 C 99.612833 372.781794 97.214494 370.711496 94.867184 368.582879 C 92.512583 366.454262 90.216301 364.267326 87.978338 362.022073 C 85.733084 359.784109 83.546149 357.487827 81.417532 355.133227 C 79.288915 352.785916 77.218616 350.387577 75.206636 347.93092 C 73.194655 345.481552 71.240993 342.981156 69.352939 340.437022 C 67.464885 337.885597 65.642439 335.297724 63.878311 332.658822 C 62.114183 330.01992 60.422953 327.344569 58.790041 324.625479 C 57.15713 321.8991 55.597116 319.143562 54.10271 316.344285 C 52.608304 313.552297 51.179507 310.716571 49.823607 307.851686 C 48.467707 304.986801 47.184705 302.085467 45.967311 299.154973 C 44.757207 296.22448 43.612711 293.264828 42.548402 290.283306 C 41.476804 287.294494 40.485393 284.283813 39.56688 281.251263 C 38.641078 278.218713 37.795463 275.164293 37.030035 272.088004 C 36.257318 269.011715 35.564789 265.913557 34.945157 262.808109 C 34.325526 259.695371 33.786081 256.568054 33.319535 253.433446 C 32.852989 250.298839 32.466631 247.149652 32.15317 243.993176 C 31.839709 240.836699 31.606436 237.672933 31.453351 234.509166 C 31.300265 231.33811 31.220077 228.174344 31.220077 225.003288 C 31.220077 221.832232 31.300265 218.661176 31.453351 215.490119 C 31.606436 212.326353 31.839709 209.162587 32.15317 206.00611 C 32.466631 202.849633 32.852989 199.700447 33.319535 196.565839 C 33.786081 193.431232 34.325526 190.303915 34.945157 187.198467 C 35.564789 184.085729 36.257318 180.99486 37.030035 177.918571 C 37.795463 174.842282 38.641078 171.780573 39.56688 168.748023 C 40.485393 165.715472 41.476804 162.704792 42.548402 159.71598 C 43.612711 156.734458 44.757207 153.774806 45.967311 150.844313 C 47.184705 147.913819 48.467707 145.012485 49.823607 142.1476 C 51.179507 139.282715 52.608304 136.446989 54.10271 133.655001 C 55.597116 130.855724 57.15713 128.100186 58.790041 125.373806 C 60.422953 122.654717 62.114183 119.979366 63.878311 117.340464 C 65.642439 114.701562 67.464885 112.113689 69.352939 109.562264 C 71.240993 107.01813 73.194655 104.517734 75.206636 102.068366 C 77.218616 99.618999 79.288915 97.21337 81.417532 94.866059 C 83.546149 92.518749 85.733084 90.222467 87.978338 87.977213 C 90.216301 85.73196 92.512583 83.545024 94.867184 81.416407 C 97.214494 79.28779 99.612833 77.217492 102.069491 75.205511 C 104.518858 73.193531 107.019254 71.247158 109.563389 69.351814 C 112.114813 67.46376 114.702687 65.641314 117.341589 63.877186 C 119.980491 62.113059 122.655841 60.421829 125.374931 58.788917 C 128.09402 57.156005 130.856849 55.595991 133.656126 54.101586 C 136.448113 52.60718 139.283839 51.178382 142.148724 49.822482 C 145.01361 48.466582 147.914944 47.18358 150.845437 45.973476 C 153.77593 44.756082 156.728293 43.618876 159.717105 42.547278 C 162.705916 41.475679 165.716597 40.484269 168.749147 39.565756 C 171.781698 38.639953 174.836117 37.794338 177.912406 37.028911 C 180.988695 36.256194 184.086853 35.563664 187.192301 34.944033 C 190.305039 34.324401 193.432357 33.784957 196.566964 33.318411 C 199.701571 32.851865 202.850758 32.465506 206.007235 32.152045 C 209.163711 31.845874 212.327478 31.612601 215.491244 31.452226 C 218.6623 31.29914 221.826066 31.218953 224.997123 31.218953 C 228.168179 31.218953 231.339235 31.29914 234.510291 31.452226 C 237.674057 31.612601 240.837824 31.845874 243.9943 32.152045 C 247.150777 32.465506 250.299964 32.851865 253.434571 33.318411 C 256.569178 33.784957 259.696496 34.324401 262.801944 34.944033 C 265.914682 35.563664 269.00555 36.256194 272.081839 37.028911 C 275.158128 37.794338 278.219837 38.639953 281.252388 39.565756 C 284.284938 40.484269 287.295619 41.475679 290.28443 42.547278 C 293.265952 43.618876 296.225605 44.756082 299.156098 45.973476 C 302.086591 47.18358 304.987925 48.466582 307.85281 49.822482 C 310.717696 51.178382 313.553422 52.60718 316.345409 54.101586 C 319.144686 55.595991 321.900225 57.156005 324.619314 58.788917 C 327.345694 60.421829 330.021044 62.113059 332.659946 63.877186 C 335.298848 65.641314 337.886722 67.46376 340.438146 69.351814 C 342.982281 71.247158 345.482677 73.193531 347.932044 75.205511 C 350.381412 77.217492 352.787041 79.28779 355.134351 81.416407 C 357.481662 83.545024 359.777944 85.73196 362.023197 87.977213 C 364.268451 90.222467 366.448096 92.518749 368.584003 94.866059 C 370.71262 97.21337 372.782919 99.618999 374.794899 102.068366 C 376.80688 104.517734 378.753252 107.01813 380.648596 109.562264 C 382.53665 112.113689 384.359096 114.701562 386.123224 117.340464 C 387.887352 119.979366 389.578582 122.654717 391.211493 125.373806 C 392.844405 128.100186 394.404419 130.855724 395.898825 133.655001 C 397.393231 136.446989 398.822028 139.282715 400.177928 142.1476 C 401.533828 145.012485 402.81683 147.913819 404.026934 150.844313 C 405.244328 153.774806 406.381535 156.734458 407.453133 159.71598 C 408.517441 162.704792 409.516142 165.715472 410.434655 168.748023 C 411.353167 171.780573 412.198782 174.842282 412.971499 177.918571 C 413.744217 180.99486 414.436746 184.085729 415.056378 187.198467 C 415.676009 190.303915 416.215453 193.431232 416.682 196.565839 C 417.148546 199.700447 417.534904 202.849633 417.848365 206.00611 C 418.154536 209.162587 418.387809 212.326353 418.548184 215.490119 C 418.70127 218.661176 418.781458 221.832232 418.781458 225.003288 Z M 418.781458 225.003288 " stroke="#ffdae7" stroke-width="60" stroke-opacity="1" stroke-miterlimit="10"/></g><g clip-path="url(#4ccd3f9562)"><path stroke-linecap="butt" transform="matrix(0.46409, 0, 0, 0.46409, 85.259517, 36.94309)" fill="none" stroke-linejoin="miter" d="M 418.77652 225.000033 C 418.77652 228.173247 418.700767 231.338045 418.549261 234.51126 C 418.389337 237.676058 418.153661 240.840856 417.850648 243.997237 C 417.539219 247.153618 417.152036 250.293164 416.680683 253.432711 C 416.217747 256.572258 415.679058 259.694971 415.056199 262.800849 C 414.441757 265.915145 413.743145 269.00419 412.968779 272.084818 C 412.202831 275.157028 411.352712 278.212405 410.435258 281.250948 C 409.517803 284.28949 408.524595 287.294365 407.455634 290.282405 C 406.386673 293.270446 405.241959 296.224818 404.029909 299.15394 C 402.817859 302.083061 401.530055 304.986931 400.174916 307.848717 C 398.819776 310.718919 397.397301 313.547036 395.899072 316.349902 C 394.400843 319.144352 392.843695 321.905133 391.210794 324.623829 C 389.577893 327.342525 387.886073 330.019136 386.1185 332.662079 C 384.359344 335.296604 382.532851 337.889045 380.64744 340.430984 C 378.753611 342.98134 376.809281 345.481193 374.797614 347.930545 C 372.785947 350.388313 370.715361 352.787163 368.577439 355.13551 C 366.447934 357.483857 364.267927 359.781703 362.020584 362.020629 C 359.781658 364.267972 357.483813 366.447979 355.135466 368.577484 C 352.787118 370.715406 350.388269 372.785992 347.9305 374.797658 C 345.481149 376.809325 342.981295 378.753656 340.430939 380.647484 C 337.889001 382.532896 335.29656 384.359388 332.662034 386.118544 C 330.019091 387.886118 327.34248 389.577938 324.623784 391.210839 C 321.905088 392.84374 319.144307 394.400888 316.349858 395.899116 C 313.546992 397.397345 310.718874 398.819821 307.848672 400.17496 C 304.986887 401.5301 302.083016 402.817903 299.153895 404.029953 C 296.224774 405.242004 293.270401 406.386718 290.282361 407.455679 C 287.29432 408.52464 284.289446 409.517848 281.250903 410.435302 C 278.21236 411.352757 275.156984 412.202876 272.084773 412.968824 C 269.004145 413.743189 265.915101 414.441802 262.800805 415.056244 C 259.694926 415.679103 256.572213 416.217792 253.432667 416.680728 C 250.29312 417.152081 247.153573 417.539263 243.997192 417.850693 C 240.840811 418.153706 237.676013 418.389382 234.511216 418.549305 C 231.338001 418.700812 228.173203 418.776565 224.999988 418.776565 C 221.826773 418.776565 218.661975 418.700812 215.48876 418.549305 C 212.323963 418.389382 209.159165 418.153706 206.002784 417.850693 C 202.846403 417.539263 199.706856 417.152081 196.56731 416.680728 C 193.427763 416.217792 190.30505 415.679103 187.199171 415.056244 C 184.084875 414.441802 180.987414 413.743189 177.915203 412.968824 C 174.842992 412.202876 171.787616 411.352757 168.749073 410.435302 C 165.71053 409.517848 162.705656 408.52464 159.717615 407.455679 C 156.729575 406.386718 153.775202 405.242004 150.846081 404.029953 C 147.91696 402.817903 145.013089 401.5301 142.151304 400.17496 C 139.281102 398.819821 136.452984 397.397345 133.650118 395.899116 C 130.855669 394.400888 128.094888 392.84374 125.376192 391.210839 C 122.657496 389.577938 119.980885 387.886118 117.337942 386.118544 C 114.703416 384.359388 112.110975 382.532896 109.569037 380.647484 C 107.018681 378.753656 104.518827 376.809325 102.069476 374.797658 C 99.611707 372.785992 97.212858 370.715406 94.864511 368.577484 C 92.516163 366.447979 90.218318 364.267972 87.979392 362.020629 C 85.732049 359.781703 83.552042 357.483857 81.422537 355.13551 C 79.284615 352.787163 77.214029 350.388313 75.202362 347.930545 C 73.190696 345.481193 71.246365 342.98134 69.352536 340.430984 C 67.467125 337.889045 65.640633 335.296604 63.881476 332.662079 C 62.113903 330.019136 60.422083 327.342525 58.789182 324.623829 C 57.156281 321.905133 55.599133 319.144352 54.100904 316.349902 C 52.602675 313.547036 51.1802 310.718919 49.82506 307.848717 C 48.469921 304.986931 47.182117 302.083061 45.970067 299.15394 C 44.758017 296.224818 43.613303 293.270446 42.544342 290.282405 C 41.475381 287.294365 40.482173 284.28949 39.564718 281.250948 C 38.647264 278.212405 37.797145 275.157028 37.031197 272.084818 C 36.256831 269.00419 35.558219 265.915145 34.943777 262.800849 C 34.320918 259.694971 33.782229 256.572258 33.319293 253.432711 C 32.84794 250.293164 32.460757 247.153618 32.149328 243.997237 C 31.846315 240.840856 31.610639 237.676058 31.450715 234.51126 C 31.299209 231.338045 31.223456 228.173247 31.223456 225.000033 C 31.223456 221.826818 31.299209 218.66202 31.450715 215.488805 C 31.610639 212.324007 31.846315 209.159209 32.149328 206.002829 C 32.460757 202.846448 32.84794 199.706901 33.319293 196.567354 C 33.782229 193.427807 34.320918 190.305094 34.943777 187.199216 C 35.558219 184.08492 36.256831 180.987458 37.031197 177.915248 C 37.797145 174.843037 38.647264 171.779243 39.564718 168.749118 C 40.482173 165.710575 41.475381 162.705701 42.544342 159.71766 C 43.613303 156.729619 44.758017 153.775247 45.970067 150.846126 C 47.182117 147.917004 48.469921 145.013134 49.82506 142.151349 C 51.1802 139.281146 52.602675 136.453029 54.100904 133.650163 C 55.599133 130.855714 57.156281 128.094933 58.789182 125.376237 C 60.422083 122.65754 62.113903 119.98093 63.881476 117.337987 C 65.640633 114.703461 67.467125 112.11102 69.352536 109.569081 C 71.246365 107.018726 73.190696 104.518872 75.202362 102.06952 C 77.214029 99.611752 79.284615 97.212902 81.422537 94.864555 C 83.552042 92.516208 85.732049 90.218363 87.979392 87.979436 C 90.218318 85.732093 92.516163 83.552086 94.864511 81.422581 C 97.212858 79.284659 99.611707 77.214074 102.069476 75.202407 C 104.518827 73.19074 107.018681 71.24641 109.569037 69.352581 C 112.110975 67.46717 114.703416 65.640677 117.337942 63.881521 C 119.980885 62.113948 122.657496 60.422128 125.376192 58.789226 C 128.094888 57.156325 130.855669 55.599178 133.650118 54.100949 C 136.452984 52.60272 139.281102 51.180244 142.151304 49.825105 C 145.013089 48.469965 147.91696 47.182162 150.846081 45.970112 C 153.775202 44.758062 156.729575 43.613347 159.717615 42.544386 C 162.705656 41.475425 165.71053 40.482218 168.749073 39.564763 C 171.787616 38.647308 174.842992 37.79719 177.915203 37.031241 C 180.987414 36.256876 184.084875 35.558264 187.199171 34.943821 C 190.30505 34.320962 193.427763 33.782273 196.56731 33.319337 C 199.706856 32.847985 202.846403 32.460802 206.002784 32.149372 C 209.159165 31.84636 212.323963 31.610683 215.48876 31.45076 C 218.661975 31.299254 221.826773 31.223501 224.999988 31.223501 C 228.173203 31.223501 231.338001 31.299254 234.511216 31.45076 C 237.676013 31.610683 240.840811 31.84636 243.997192 32.149372 C 247.153573 32.460802 250.29312 32.847985 253.432667 33.319337 C 256.572213 33.782273 259.694926 34.320962 262.800805 34.943821 C 265.915101 35.558264 269.004145 36.256876 272.084773 37.031241 C 275.156984 37.79719 278.21236 38.647308 281.250903 39.564763 C 284.289446 40.482218 287.29432 41.475425 290.282361 42.544386 C 293.270401 43.613347 296.224774 44.758062 299.153895 45.970112 C 302.083016 47.182162 304.986887 48.469965 307.848672 49.825105 C 310.718874 51.180244 313.546992 52.60272 316.349858 54.100949 C 319.144307 55.599178 321.905088 57.156325 324.623784 58.789226 C 327.34248 60.422128 330.019091 62.113948 332.662034 63.881521 C 335.29656 65.640677 337.889001 67.46717 340.430939 69.352581 C 342.981295 71.24641 345.481149 73.19074 347.9305 75.202407 C 350.388269 77.214074 352.787118 79.284659 355.135466 81.422581 C 357.483813 83.552086 359.781658 85.732093 362.020584 87.979436 C 364.267927 90.218363 366.447934 92.516208 368.577439 94.864555 C 370.715361 97.212902 372.785947 99.611752 374.797614 102.06952 C 376.809281 104.518872 378.753611 107.018726 380.64744 109.569081 C 382.532851 112.11102 384.359344 114.703461 386.1185 117.337987 C 387.886073 119.98093 389.577893 122.65754 391.210794 125.376237 C 392.843695 128.094933 394.400843 130.855714 395.899072 133.650163 C 397.397301 136.453029 398.819776 139.281146 400.174916 142.151349 C 401.530055 145.013134 402.817859 147.917004 404.029909 150.846126 C 405.241959 153.775247 406.386673 156.729619 407.455634 159.71766 C 408.524595 162.705701 409.517803 165.710575 410.435258 168.749118 C 411.352712 171.779243 412.202831 174.843037 412.968779 177.915248 C 413.743145 180.987458 414.441757 184.08492 415.056199 187.199216 C 415.679058 190.305094 416.217747 193.427807 416.680683 196.567354 C 417.152036 199.706901 417.539219 202.846448 417.850648 206.002829 C 418.153661 209.159209 418.389337 212.324007 418.549261 215.488805 C 418.700767 218.66202 418.77652 221.826818 418.77652 225.000033 Z M 418.77652 225.000033 " stroke="#ffdae7" stroke-width="60" stroke-opacity="1" stroke-miterlimit="10"/></g><g clip-path="url(#bb92f9e152)"><g clip-path="url(#4f9693dbe4)"><path fill="#ffdae7" d="M 142.113281 71.066406 L 156.382812 71.066406 L 156.382812 85.335938 L 142.113281 85.335938 Z M 142.113281 71.066406 " fill-opacity="1" fill-rule="nonzero"/></g></g><g clip-path="url(#39d46efbe3)"><g clip-path="url(#a93a11c643)"><path fill="#ffdae7" d="M 118.261719 90.230469 L 132.53125 90.230469 L 132.53125 104.5 L 118.261719 104.5 Z M 118.261719 90.230469 " fill-opacity="1" fill-rule="nonzero"/></g></g><path fill="#ff8fb7" d="M 319.535156 173.109375 C 318.355469 173.332031 316.632812 172.789062 315.660156 172.664062 C 311.972656 172.222656 308.285156 171.773438 304.609375 171.320312 C 297.363281 170.4375 290.128906 169.558594 282.886719 168.675781 C 276.71875 167.929688 270.539062 167.175781 264.367188 166.425781 C 261.71875 166.097656 258.832031 166.097656 256.246094 165.632812 C 253.132812 165.074219 253.855469 161.542969 256.542969 161.121094 C 260.65625 160.46875 265.382812 161.316406 269.488281 161.703125 C 278.316406 162.527344 287.125 163.558594 295.90625 164.800781 C 300.292969 165.421875 304.675781 166.089844 309.046875 166.8125 C 312.207031 167.339844 318.207031 167.167969 320.441406 169.777344 C 321.109375 170.570312 321.148438 172.074219 320.304688 172.773438 C 320.101562 172.945312 319.835938 173.046875 319.535156 173.109375 Z M 279.078125 214.761719 C 271.507812 208.921875 263.855469 203.03125 255.546875 196.636719 C 267.71875 171.980469 261.984375 171.648438 295.867188 179.269531 C 294.609375 192.800781 290.859375 200.992188 279.078125 214.761719 Z M 288.074219 233.792969 C 287.972656 234.292969 287.707031 234.726562 287.273438 234.972656 C 286.464844 235.433594 285.457031 235.105469 284.597656 234.765625 C 278.332031 232.25 272.898438 228.121094 267.644531 223.976562 C 262.222656 219.699219 256.828125 215.722656 251.550781 211.253906 C 248.074219 208.308594 244.035156 205.6875 241.242188 202.117188 C 240.457031 201.121094 239.761719 199.734375 240.417969 198.660156 C 242.25 195.71875 249.8125 202.425781 251.1875 203.542969 C 256.007812 207.457031 260.546875 211.390625 265.53125 215.117188 C 269.414062 218.027344 273.292969 220.925781 277.175781 223.828125 C 279.171875 225.316406 281.164062 226.808594 283.160156 228.296875 C 284.589844 229.371094 286.925781 230.464844 287.808594 232.070312 C 288.097656 232.582031 288.191406 233.226562 288.074219 233.792969 Z M 232.671875 249 C 228.953125 239.988281 225.445312 231.480469 221.503906 221.902344 C 227.394531 218.183594 232.546875 214.925781 239.386719 210.601562 C 248.019531 217.253906 255.757812 223.199219 264.34375 229.8125 C 255.617188 240.609375 245.558594 245.847656 232.671875 249 Z M 227.898438 268.382812 C 226.875 266.886719 226.207031 264.519531 225.796875 263.601562 C 224.46875 260.644531 223.140625 257.679688 221.820312 254.707031 C 219.703125 249.957031 217.582031 245.191406 215.457031 240.4375 C 213.785156 236.699219 212.109375 232.957031 210.441406 229.214844 C 208.390625 224.640625 202.964844 218.65625 204.246094 213.316406 C 204.511719 212.253906 205.347656 211.292969 206.4375 211.097656 C 209.539062 210.546875 212.375 219.652344 213.414062 221.871094 C 215.6875 226.753906 217.792969 231.714844 219.78125 236.722656 C 222.023438 242.363281 224.125 248.0625 226.175781 253.78125 C 227.222656 256.703125 228.257812 259.621094 229.289062 262.546875 C 229.730469 263.820312 232.285156 268.042969 231.113281 269.050781 C 229.777344 270.214844 228.722656 269.585938 227.898438 268.382812 Z M 162.886719 256.179688 C 162.476562 244.570312 168.796875 236.628906 172.730469 227.375 L 200.496094 227.375 C 204.410156 236.417969 208.246094 245.289062 213.234375 256.863281 C 194.527344 258.84375 179.144531 259.519531 162.886719 256.179688 Z M 181.128906 270.851562 C 182.253906 270.796875 186.570312 270.472656 188.914062 271 C 189.824219 271.210938 190.4375 271.535156 190.453125 272.070312 C 190.753906 284.578125 190.476562 296.988281 190.6875 309.523438 C 190.902344 322.792969 191.128906 336.066406 191.34375 349.332031 C 191.78125 375.855469 192.214844 402.386719 192.640625 428.917969 C 193.078125 455.453125 193.496094 481.984375 193.921875 508.515625 C 193.984375 512.226562 194.039062 515.945312 194.101562 519.664062 C 194.195312 525.59375 194 531.679688 195.140625 537.53125 C 191.859375 537.75 188.582031 537.96875 185.304688 538.183594 C 184.949219 525.429688 184.296875 512.769531 183.675781 500 C 183.109375 488.285156 182.667969 476.558594 182.277344 464.835938 C 181.828125 451.300781 181.464844 437.753906 181.144531 424.207031 C 180.820312 410.132812 180.554688 396.054688 180.355469 381.972656 C 180.167969 368.644531 180.027344 355.316406 179.964844 341.988281 C 179.917969 330.695312 179.917969 319.398438 180.050781 308.105469 C 180.144531 300.132812 180.261719 292.152344 180.671875 284.1875 C 180.734375 283.03125 181.230469 270.851562 181.128906 270.851562 Z M 233.503906 567.363281 C 245.316406 581.988281 249.984375 598.816406 245.261719 617.492188 C 238.625 643.746094 214.351562 661.3125 189.257812 658.191406 C 177.488281 656.742188 166.40625 651.484375 157.988281 643.09375 C 143.957031 629.089844 136.558594 605.359375 143.015625 586.140625 C 144.730469 581.054688 147.082031 576.1875 150.027344 571.703125 C 156.925781 561.160156 166.941406 553.996094 178.925781 550.402344 C 194.871094 545.621094 212.582031 548.980469 225.5625 559.421875 C 228.488281 561.773438 231.144531 564.445312 233.503906 567.363281 Z M 142.621094 271.332031 C 142.597656 271.324219 142.582031 271.308594 142.566406 271.300781 C 141.820312 270.859375 141.488281 269.9375 141.519531 269.082031 C 141.550781 268.222656 141.890625 267.40625 142.214844 266.613281 C 146.144531 257.191406 149.691406 247.695312 153.410156 238.203125 C 155.988281 231.613281 157.726562 224.757812 160.652344 218.230469 C 161.605469 216.105469 165.9375 204.039062 169.191406 206.121094 C 171.21875 207.417969 168.335938 213.222656 167.839844 214.945312 C 165.363281 223.617188 162.816406 232.21875 159.519531 240.625 C 155.808594 250.074219 151.78125 259.738281 146.9375 268.648438 C 146.476562 269.492188 145.996094 270.355469 145.242188 270.945312 C 144.507812 271.519531 143.433594 271.777344 142.621094 271.332031 Z M 109.15625 226.652344 C 118.535156 218.519531 125.582031 212.402344 133.640625 205.40625 C 139.949219 209.832031 145.789062 213.914062 152.585938 218.679688 C 148.867188 228.351562 145.390625 237.378906 141.082031 248.558594 C 130.207031 241.097656 120.910156 234.71875 109.15625 226.652344 Z M 91.613281 233.34375 C 90.285156 233.375 88.941406 232.730469 88.59375 231.480469 C 88.121094 229.8125 89.570312 228.269531 90.882812 227.125 C 97.335938 221.53125 104.070312 216.128906 110.132812 210.117188 C 117.097656 203.226562 124.605469 196.835938 132.777344 191.417969 C 134.253906 190.441406 137.085938 187.53125 138.808594 189.710938 C 141.332031 192.917969 133.777344 197.976562 131.847656 199.40625 C 127.035156 202.96875 122.578125 206.726562 118.144531 210.699219 C 113.75 214.660156 109.34375 218.601562 104.941406 222.554688 C 102.691406 224.566406 100.460938 226.605469 98.195312 228.601562 C 96.558594 230.039062 94.882812 232.320312 92.839844 233.113281 C 92.453125 233.257812 92.03125 233.335938 91.613281 233.34375 Z M 79 181.328125 C 91.09375 177.625 100.953125 174.621094 112.199219 171.183594 C 115.492188 177.789062 118.433594 183.679688 122.066406 190.945312 C 113.976562 197.957031 106.230469 204.652344 96.722656 212.890625 C 90.472656 201.765625 85.226562 192.421875 79 181.328125 Z M 64.320312 178.238281 C 62.316406 178.347656 59.785156 177.324219 61.292969 174.871094 C 62.480469 172.9375 66.75 172.617188 68.707031 172.066406 C 75.722656 170.074219 82.742188 168.078125 89.765625 166.082031 C 94.796875 164.644531 99.832031 163.21875 104.839844 161.695312 C 107.527344 160.890625 110.203125 160.191406 112.796875 159.1875 C 114.683594 158.46875 117.65625 157.367188 119.605469 158.414062 C 121.484375 159.421875 119.859375 160.945312 118.796875 161.640625 C 115.839844 163.605469 112.121094 164.273438 108.824219 165.4375 C 104.085938 167.097656 99.160156 168.15625 94.421875 169.769531 C 86.746094 172.386719 78.960938 175.03125 71.066406 176.886719 C 70.21875 177.089844 66.914062 178.097656 64.320312 178.238281 Z M 107.410156 136.445312 L 107.410156 154.351562 C 97.605469 157.15625 87.792969 159.964844 77.339844 162.960938 C 72.074219 153.019531 73.238281 143.546875 74.550781 131.679688 C 85.511719 133.269531 95.527344 134.722656 107.410156 136.445312 Z M 63.226562 120.648438 C 61.90625 120.292969 59.703125 120.199219 58.917969 118.871094 C 57.863281 117.078125 59.476562 115.464844 61.191406 115.757812 C 67.191406 116.765625 73.277344 118.421875 79.292969 119.59375 C 86.550781 121.011719 93.816406 122.433594 101.074219 123.855469 L 111.964844 125.980469 C 114.15625 126.410156 119.480469 126.285156 120.054688 129.101562 C 120.25 130.066406 119.953125 130.625 119.394531 130.925781 C 117.953125 131.703125 114.730469 130.800781 113.355469 130.625 C 109.964844 130.171875 106.578125 129.652344 103.195312 129.125 C 97.917969 128.292969 92.582031 127.566406 87.34375 126.476562 C 81.988281 125.359375 76.664062 124.109375 71.359375 122.769531 C 68.644531 122.085938 65.925781 121.371094 63.226562 120.648438 Z M 87.226562 84.296875 C 98.652344 91.277344 107.417969 96.632812 116.816406 102.367188 C 114.917969 107.382812 113.332031 111.574219 111.042969 117.613281 C 100.152344 115.773438 89.695312 114.003906 76.824219 111.832031 C 80.488281 102.128906 83.46875 94.226562 87.226562 84.296875 Z M 86.535156 69.578125 C 87.484375 69.53125 88.359375 70.015625 89.191406 70.488281 C 102.214844 77.933594 114.628906 86.570312 127.1875 94.886719 C 128.46875 95.730469 132.46875 100 129.003906 100.304688 C 128.871094 100.3125 128.726562 100.320312 128.5625 100.320312 C 127.722656 100.3125 126.941406 99.9375 126.1875 99.566406 C 115.964844 94.480469 106.851562 87.921875 97.210938 81.84375 C 94.4375 80.105469 91.636719 78.414062 88.8125 76.765625 C 87.242188 75.851562 83.921875 74.042969 84.152344 71.824219 C 84.285156 70.644531 85.347656 69.632812 86.535156 69.578125 Z M 117.578125 51.4375 C 119.542969 54.808594 120.714844 57.207031 122.226562 59.371094 C 126.730469 65.769531 131.363281 72.070312 136.472656 79.144531 C 133.800781 81.347656 131.769531 84.375 130.089844 84.1875 C 118.789062 82.914062 110.125 76.191406 99.074219 68.398438 C 105.609375 62.40625 110.492188 57.929688 117.578125 51.4375 Z M 117.65625 36.707031 C 117.703125 36.644531 117.742188 36.589844 117.789062 36.535156 C 118.386719 35.8125 119.433594 35.441406 120.289062 35.8125 C 120.917969 36.085938 121.328125 36.683594 121.714844 37.25 C 126.414062 44.1875 130.765625 51.160156 135.457031 58.074219 C 139.71875 64.378906 144.730469 70.085938 148.761719 76.566406 C 149.28125 77.402344 149.808594 78.421875 149.421875 79.328125 C 149.054688 80.191406 147.96875 80.554688 147.046875 80.386719 C 146.128906 80.214844 145.34375 79.625 144.617188 79.042969 C 140.523438 75.773438 137.378906 71.550781 134.539062 67.1875 C 131.425781 62.421875 128.246094 57.828125 124.835938 53.238281 C 122.65625 50.304688 121.3125 46.96875 119.386719 43.855469 C 118.136719 41.835938 115.964844 39.1875 117.65625 36.707031 Z M 170.613281 29.703125 C 171.257812 41.609375 171.699219 49.746094 172.1875 58.773438 C 165.171875 61.917969 158.710938 64.804688 151.246094 68.152344 C 145.28125 59.394531 139.839844 51.398438 132.917969 41.222656 C 145.886719 37.257812 156.957031 33.878906 170.613281 29.703125 Z M 173.210938 74.390625 C 176.535156 76.945312 182.269531 82.984375 187 80.664062 C 189.445312 79.453125 191.269531 76.789062 192.898438 74.710938 C 194.039062 73.242188 195.109375 71.09375 196.65625 70.113281 C 198.542969 68.910156 201.585938 68.867188 203.695312 69.246094 C 205.867188 69.648438 208.058594 70.683594 209.65625 72.226562 C 209.882812 72.453125 210.070312 72.675781 210.230469 72.917969 C 211.21875 74.351562 211.25 76.152344 211.652344 77.933594 C 212.226562 80.445312 212.839844 83.480469 214.578125 85.5 C 219.460938 91.191406 229.429688 83.335938 235.453125 84.367188 C 237.027344 84.640625 239.449219 85.757812 239.921875 87.488281 C 240.375 89.132812 239.207031 91.90625 238.875 93.589844 C 238.097656 97.570312 236.839844 102.082031 238.175781 106.078125 C 239.992188 111.503906 245.039062 110.875 249.632812 109.890625 C 251.605469 109.480469 254.710938 108.128906 256.332031 109.632812 C 258.320312 111.480469 258.816406 114.335938 259.34375 116.859375 C 259.980469 119.949219 259.695312 120.773438 257.472656 123.203125 C 254.261719 126.71875 248.578125 130.707031 248.035156 135.839844 C 247.617188 139.738281 249.929688 142.375 253.476562 143.609375 C 255.554688 144.332031 257.800781 144.597656 259.988281 144.726562 C 260.898438 144.773438 262.269531 144.519531 262.953125 145.125 C 263.699219 145.800781 263.847656 148.328125 263.957031 149.277344 C 264.046875 150.054688 264.085938 150.875 263.769531 151.597656 C 262.890625 153.546875 260.066406 153.800781 258.25 154.121094 C 256.285156 154.453125 254.796875 155.035156 253.027344 155.992188 C 250.683594 157.25 247.675781 158.722656 246.304688 161.136719 C 245.15625 163.15625 245.730469 165.273438 246.714844 167.238281 C 247.632812 169.0625 249.175781 170.707031 250.394531 172.324219 C 251.683594 174.039062 254.246094 175.621094 253.878906 178.011719 C 253.476562 180.691406 250.183594 185.148438 247.808594 186.542969 C 245.714844 187.785156 241.28125 187.902344 239.085938 187.027344 C 232.625 184.449219 228.691406 193.011719 229.226562 197.976562 C 229.382812 199.414062 229.792969 200.890625 229.414062 202.285156 C 228.929688 204.027344 227.324219 205.214844 225.6875 205.964844 C 223.839844 206.820312 221.757812 207.960938 219.75 208.015625 C 217.558594 208.070312 215.222656 207.285156 213.15625 206.648438 C 206.996094 204.746094 200.699219 204.761719 196.15625 209.917969 C 194.730469 211.539062 193.660156 213.683594 191.539062 214.503906 C 189.148438 215.4375 184.203125 215.652344 181.96875 214.339844 C 180.65625 213.574219 180.050781 212.003906 179.765625 210.507812 C 178.832031 205.601562 177.410156 198.34375 171.378906 197.378906 C 168.742188 196.953125 166.023438 197.941406 163.671875 199.042969 C 162.066406 199.789062 160.535156 200.78125 159.015625 201.6875 C 157.40625 202.644531 154.589844 205.265625 152.671875 205.207031 C 151.964844 205.191406 151.320312 204.839844 150.722656 204.46875 C 149.234375 203.558594 146.539062 202.023438 145.820312 200.316406 C 144.964844 198.320312 146.898438 195.457031 147.386719 193.523438 C 148.324219 189.820312 147.167969 185.660156 144.46875 182.972656 C 143.1875 181.707031 141.589844 180.792969 139.871094 180.28125 C 137.0625 179.433594 135.347656 180.761719 132.761719 181.007812 C 130.488281 181.21875 128.167969 179.984375 126.714844 178.292969 C 124.78125 176.027344 122.003906 170.980469 125.085938 168.582031 C 127.863281 166.417969 131.886719 164.125 131.265625 159.800781 C 130.765625 156.332031 125.644531 153.460938 122.453125 150.433594 C 118.238281 146.429688 117.703125 143.097656 123.011719 139.207031 C 132.824219 132.011719 133.066406 131.570312 126.855469 121.042969 C 124.058594 116.308594 124.363281 113.257812 128.59375 110.582031 C 132.621094 108.027344 141.332031 104.316406 139.53125 98.300781 C 138.824219 95.925781 136.667969 93.859375 137.078125 91.421875 C 137.335938 89.878906 138.566406 88.722656 139.734375 87.679688 C 140.035156 87.410156 140.371094 87.121094 140.773438 87.097656 C 141.144531 87.066406 141.496094 87.277344 141.8125 87.472656 C 144.570312 89.15625 146.222656 90.429688 149.453125 90.226562 C 151.304688 90.109375 153.113281 89.941406 154.785156 89.039062 C 158.867188 86.859375 160.054688 81.640625 160.054688 77.359375 C 160.210938 72.707031 169.144531 71.265625 173.210938 74.390625 Z M 177.792969 16.792969 C 177.824219 15.839844 177.917969 14.785156 178.605469 14.140625 C 180.144531 12.710938 181.074219 13.558594 181.648438 15.195312 C 182.535156 17.71875 182.558594 22.121094 182.621094 22.996094 C 182.898438 27.398438 183.132812 31.800781 183.3125 36.199219 C 183.351562 37.164062 183.382812 38.125 183.414062 39.089844 C 183.667969 48.277344 184.039062 57.546875 183.753906 66.730469 C 183.714844 68.175781 183.109375 70.464844 181.347656 69.011719 C 180.074219 67.957031 180.292969 64.851562 180.113281 63.332031 C 179.855469 61.015625 179.648438 58.6875 179.46875 56.367188 C 179.113281 51.71875 178.863281 47.0625 178.53125 42.410156 C 177.925781 33.886719 177.480469 25.339844 177.792969 16.792969 Z M 225.980469 36.753906 C 222.84375 44.886719 220.113281 51.949219 217.046875 59.898438 C 208.515625 58.402344 200.941406 57.066406 191.851562 55.460938 C 191.351562 47.339844 190.863281 39.367188 190.320312 30.472656 C 203.539062 29.074219 214.167969 31.792969 225.980469 36.753906 Z M 228.785156 47.667969 C 230.46875 43.085938 232.300781 38.5625 234.234375 34.074219 C 235.957031 30.09375 237.121094 25.839844 238.882812 21.777344 C 240.1875 18.78125 243.175781 16.65625 244.402344 20.707031 C 245.347656 23.867188 244.347656 26.699219 243.183594 29.6875 C 237.71875 43.769531 231.773438 57.65625 225.941406 71.597656 C 225.398438 72.902344 224.0625 76.117188 222.203125 76.023438 C 221.867188 76.007812 221.601562 75.9375 221.402344 75.8125 C 220.050781 75.035156 221.027344 72.351562 221.355469 71.226562 C 222.148438 68.507812 222.835938 65.761719 223.652344 63.050781 C 225.199219 57.875 226.914062 52.742188 228.785156 47.667969 Z M 246.390625 44.257812 C 254.75 50.53125 262.125 56.066406 270.722656 62.523438 C 263.15625 69.757812 256.914062 75.71875 250.703125 81.65625 C 234.3125 73.808594 230.492188 71.070312 246.390625 44.257812 Z M 288.871094 54.714844 C 290.355469 53.96875 292.429688 54.644531 292.839844 56.539062 C 293.289062 58.574219 289.960938 60.753906 288.71875 61.949219 C 286.722656 63.875 284.71875 65.808594 282.71875 67.738281 C 278.617188 71.691406 274.527344 75.640625 270.429688 79.59375 C 265.773438 84.09375 261.105469 88.597656 256.449219 93.09375 C 254.5625 94.910156 246.140625 105.324219 243.59375 102.617188 C 241.382812 100.257812 253.097656 90.648438 254.933594 88.800781 C 259.765625 83.949219 264.59375 79.097656 269.429688 74.246094 C 273.804688 69.84375 278.183594 65.449219 282.5625 61.046875 C 284.464844 59.140625 286.328125 56.625 288.429688 54.992188 C 288.570312 54.886719 288.71875 54.792969 288.871094 54.714844 Z M 298.132812 108.726562 C 289.507812 112.429688 281.210938 115.992188 271.003906 120.378906 C 267.789062 113.164062 264.980469 106.847656 261.648438 99.378906 C 269.480469 91.972656 275.839844 85.964844 283.105469 79.089844 C 291.046875 87.652344 294.128906 97.292969 298.132812 108.726562 Z M 302.496094 128.480469 L 302.496094 158.847656 C 293.050781 157.941406 284.019531 157.078125 274.195312 156.132812 C 272.601562 138.519531 272.570312 138.433594 285.976562 133.503906 C 290.742188 131.75 295.710938 130.523438 302.496094 128.480469 Z M 315.132812 115.921875 C 314.441406 116.101562 313.699219 116.199219 313.144531 116.386719 C 310.523438 117.25 307.953125 118.328125 305.359375 119.296875 C 294.460938 123.375 283.71875 127.75 272.890625 132.035156 C 269.707031 133.292969 266.476562 134.480469 263.335938 135.816406 C 261.726562 136.5 258.4375 138.601562 256.78125 137.066406 C 255.757812 136.113281 256.410156 134.007812 257.210938 133.175781 C 258 132.355469 259.066406 131.859375 260.097656 131.390625 C 266.984375 128.273438 274.0625 125.679688 281.039062 122.84375 C 290.78125 118.902344 300.261719 114.546875 310.445312 111.683594 C 311.71875 111.324219 313.039062 110.976562 314.339844 111.203125 C 315.644531 111.417969 316.917969 112.367188 317.089844 113.679688 C 317.269531 115.105469 316.265625 115.617188 315.132812 115.921875 Z M 313.464844 158.085938 L 313.464844 124.738281 C 317.882812 119.902344 328.136719 120.207031 325.652344 110.332031 C 322.957031 99.675781 312.625 107.273438 307.464844 103.757812 C 306.578125 103.152344 305.8125 100.273438 305.335938 99.269531 C 304.601562 97.71875 303.871094 96.171875 303.132812 94.628906 C 301.703125 91.609375 300.277344 88.597656 298.847656 85.585938 C 296.828125 81.230469 294.796875 76.90625 292.234375 72.847656 C 291.871094 72.273438 290.695312 71.0625 290.683594 70.394531 C 290.660156 69.65625 291.652344 69.011719 292.132812 68.523438 C 294.679688 65.921875 297.132812 63.136719 298.847656 59.90625 C 300.835938 56.164062 299.75 52.710938 296.882812 49.761719 C 291.109375 43.824219 285.441406 49.699219 280.328125 53.261719 C 280.023438 53.480469 279.707031 53.691406 279.339844 53.757812 C 278.84375 53.851562 278.332031 53.644531 277.945312 53.316406 C 269.117188 45.894531 259.152344 39.429688 249.789062 32.621094 C 249.160156 25.023438 254.757812 16.367188 245.238281 12.222656 C 241.730469 10.699219 238.269531 10.707031 235.824219 13.914062 C 233.183594 17.382812 231.523438 21.839844 229.519531 25.691406 C 229.421875 25.882812 229.3125 26.085938 229.109375 26.179688 C 228.90625 26.273438 228.667969 26.210938 228.449219 26.15625 C 222.96875 24.640625 217.355469 22.957031 211.722656 21.769531 C 206.0625 20.582031 200.273438 20.0625 194.511719 19.667969 C 193.394531 19.597656 192.269531 19.535156 191.144531 19.480469 C 189.925781 19.433594 189.34375 19.699219 189.140625 18.378906 C 188.929688 17.058594 189.007812 15.691406 188.707031 14.339844 C 187.480469 8.808594 184.125 4.273438 177.917969 5.167969 C 168.515625 6.5 172.871094 15.613281 168.886719 19.683594 C 157.75 23.371094 146.875 27.296875 135.78125 30.472656 C 132.902344 31.296875 129.570312 31.488281 126.605469 31.007812 C 123.96875 30.574219 121.722656 28.71875 118.96875 28.230469 C 116.46875 27.785156 113.75 28.136719 111.671875 29.59375 C 109.589844 31.054688 108.285156 33.71875 108.816406 36.199219 C 109.242188 38.1875 110.753906 40.003906 110.445312 42.023438 C 109.972656 45.160156 106.445312 47.089844 104.328125 49.023438 C 101.921875 51.222656 99.726562 53.652344 97.800781 56.273438 C 96.660156 57.820312 95.585938 59.457031 94.050781 60.613281 C 89.246094 64.214844 83.402344 60.980469 78.261719 63.199219 C 73.527344 65.253906 74.597656 70.472656 76.640625 74.191406 C 79.699219 79.765625 79 83.769531 76.585938 88.761719 C 73.410156 95.304688 70.699219 102.074219 68.210938 107.777344 C 61.625 111.472656 52.039062 105.574219 50.015625 115.625 C 47.957031 125.796875 59.210938 125.476562 63.777344 131.40625 L 63.777344 164.738281 C 59.816406 170.421875 48.53125 169.390625 51.589844 179.441406 C 54.585938 189.292969 63.390625 182.53125 69.421875 184.558594 C 75.636719 196.714844 81.785156 208.753906 88.003906 220.925781 C 85.792969 223.882812 83.246094 226.140625 82.242188 228.941406 C 81.15625 231.96875 80.070312 236.835938 81.597656 238.484375 C 83.46875 240.484375 88.207031 240.820312 91.441406 240.308594 C 94.796875 239.773438 97.839844 237.351562 100.398438 236.070312 C 112.9375 244.691406 124.535156 252.664062 136.085938 260.613281 C 136.152344 267.1875 131.394531 274.757812 140.617188 278.707031 C 152.066406 283.597656 152.246094 270.84375 159.039062 266.886719 C 162.484375 267.871094 166.359375 268.980469 170.566406 270.183594 C 170.789062 273.429688 171.109375 276.007812 171.140625 278.578125 C 171.929688 361.527344 172.566406 444.476562 173.664062 527.410156 C 173.785156 536.988281 170.472656 542.183594 162.28125 547.296875 C 122.28125 572.308594 121.28125 630.535156 159.835938 657.972656 C 184.421875 675.464844 219.167969 670.597656 237.964844 647.015625 C 265.539062 612.433594 255.332031 561.992188 215.757812 542.089844 C 205.945312 537.152344 203.648438 531.367188 203.523438 521.480469 C 202.6875 457.429688 201.242188 393.398438 200.171875 329.359375 C 199.859375 310.550781 200.125 291.734375 200.125 271.910156 C 205.410156 270.742188 210.929688 269.53125 216.0625 268.398438 C 222.433594 271.636719 224.070312 281.246094 233.246094 278.34375 C 242.25 275.488281 237.277344 267.65625 239.339844 262.492188 C 250.875 254.925781 262.230469 247.464844 273.535156 240.050781 C 280.382812 241.671875 286.558594 249.894531 293.769531 242.230469 C 301.757812 233.753906 290.097656 228.484375 289.625 223.253906 C 296.851562 207.929688 303.289062 194.292969 309.460938 181.203125 C 316.304688 177.664062 327.453125 184.695312 329.074219 172.160156 C 330.402344 161.859375 319.667969 164.242188 313.464844 158.085938 " fill-opacity="1" fill-rule="nonzero"/></svg>