<svg xmlns="http://www.w3.org/2000/svg" xmlns:xlink="http://www.w3.org/1999/xlink" width="500" zoomAndPan="magnify" viewBox="0 0 375 374.999991" height="500" preserveAspectRatio="xMidYMid meet" version="1.0"><defs><clipPath id="95754d1e02"><path d="M 26.371094 32.347656 L 336.675781 32.347656 L 336.675781 342.652344 L 26.371094 342.652344 Z M 26.371094 32.347656 " clip-rule="nonzero"/></clipPath><clipPath id="87b9f44969"><path d="M 181.523438 32.347656 C 95.835938 32.347656 26.371094 101.8125 26.371094 187.5 C 26.371094 273.1875 95.835938 342.652344 181.523438 342.652344 C 267.210938 342.652344 336.675781 273.1875 336.675781 187.5 C 336.675781 101.8125 267.210938 32.347656 181.523438 32.347656 Z M 181.523438 32.347656 " clip-rule="nonzero"/></clipPath><clipPath id="57fceda67e"><path d="M 43.722656 44.0625 L 346.980469 44.0625 L 346.980469 347.320312 L 43.722656 347.320312 Z M 43.722656 44.0625 " clip-rule="nonzero"/></clipPath><clipPath id="85af2215d5"><path d="M 195.351562 44.0625 C 111.609375 44.0625 43.722656 111.949219 43.722656 195.691406 C 43.722656 279.433594 111.609375 347.320312 195.351562 347.320312 C 279.09375 347.320312 346.980469 279.433594 346.980469 195.691406 C 346.980469 111.949219 279.09375 44.0625 195.351562 44.0625 Z M 195.351562 44.0625 " clip-rule="nonzero"/></clipPath><clipPath id="9ec34f5cad"><path d="M 23 31 L 351 31 L 351 350 L 23 350 Z M 23 31 " clip-rule="nonzero"/></clipPath><clipPath id="5f3e8a2e03"><path d="M 10.984375 30.34375 L 354.316406 20.460938 L 363.652344 344.71875 L 20.320312 354.601562 Z M 10.984375 30.34375 " clip-rule="nonzero"/></clipPath><clipPath id="91043ed468"><path d="M 541.023438 -195.621094 L -64.769531 -178.179688 L -49.371094 356.65625 L 556.421875 339.214844 Z M 541.023438 -195.621094 " clip-rule="nonzero"/></clipPath><clipPath id="6cbd6e3b38"><path d="M 346.070312 26.542969 L 18.898438 35.960938 L 28.074219 354.660156 L 355.246094 345.242188 Z M 346.070312 26.542969 " clip-rule="nonzero"/></clipPath><clipPath id="7906ed7093"><path d="M 346.070312 26.542969 L 18.898438 35.960938 L 28.066406 354.332031 L 355.234375 344.910156 Z M 346.070312 26.542969 " clip-rule="nonzero"/></clipPath><clipPath id="5725fc0615"><path d="M 43 173 L 49 173 L 49 195 L 43 195 Z M 43 173 " clip-rule="nonzero"/></clipPath><clipPath id="bdfaf61403"><path d="M 10.984375 30.34375 L 354.316406 20.460938 L 363.652344 344.71875 L 20.320312 354.601562 Z M 10.984375 30.34375 " clip-rule="nonzero"/></clipPath><clipPath id="30a15ab595"><path d="M 541.023438 -195.621094 L -64.769531 -178.179688 L -49.371094 356.65625 L 556.421875 339.214844 Z M 541.023438 -195.621094 " clip-rule="nonzero"/></clipPath><clipPath id="aaf3fdb3a9"><path d="M 50 51 L 163 51 L 163 155 L 50 155 Z M 50 51 " clip-rule="nonzero"/></clipPath><clipPath id="79ba549734"><path d="M 10.984375 30.34375 L 354.316406 20.460938 L 363.652344 344.71875 L 20.320312 354.601562 Z M 10.984375 30.34375 " clip-rule="nonzero"/></clipPath><clipPath id="3253a3a66e"><path d="M 541.023438 -195.621094 L -64.769531 -178.179688 L -49.371094 356.65625 L 556.421875 339.214844 Z M 541.023438 -195.621094 " clip-rule="nonzero"/></clipPath><clipPath id="3785a0c5a6"><path d="M 26.371094 32.347656 L 336.675781 32.347656 L 336.675781 342.652344 L 26.371094 342.652344 Z M 26.371094 32.347656 " clip-rule="nonzero"/></clipPath><clipPath id="442c7636db"><path d="M 181.523438 32.347656 C 95.835938 32.347656 26.371094 101.8125 26.371094 187.5 C 26.371094 273.1875 95.835938 342.652344 181.523438 342.652344 C 267.210938 342.652344 336.675781 273.1875 336.675781 187.5 C 336.675781 101.8125 267.210938 32.347656 181.523438 32.347656 Z M 181.523438 32.347656 " clip-rule="nonzero"/></clipPath><clipPath id="638aeb7c31"><path d="M 43.722656 44.0625 L 346.980469 44.0625 L 346.980469 347.320312 L 43.722656 347.320312 Z M 43.722656 44.0625 " clip-rule="nonzero"/></clipPath><clipPath id="feecc83508"><path d="M 195.351562 44.0625 C 111.609375 44.0625 43.722656 111.949219 43.722656 195.691406 C 43.722656 279.433594 111.609375 347.320312 195.351562 347.320312 C 279.09375 347.320312 346.980469 279.433594 346.980469 195.691406 C 346.980469 111.949219 279.09375 44.0625 195.351562 44.0625 Z M 195.351562 44.0625 " clip-rule="nonzero"/></clipPath><clipPath id="a3cc0463c7"><path d="M 23 31 L 351 31 L 351 350 L 23 350 Z M 23 31 " clip-rule="nonzero"/></clipPath><clipPath id="b51d3295d6"><path d="M 10.984375 30.34375 L 354.316406 20.460938 L 363.652344 344.71875 L 20.320312 354.601562 Z M 10.984375 30.34375 " clip-rule="nonzero"/></clipPath><clipPath id="8c0b90359d"><path d="M 541.023438 -195.621094 L -64.769531 -178.179688 L -49.371094 356.65625 L 556.421875 339.214844 Z M 541.023438 -195.621094 " clip-rule="nonzero"/></clipPath><clipPath id="9676c07882"><path d="M 346.070312 26.542969 L 18.898438 35.960938 L 28.074219 354.660156 L 355.246094 345.242188 Z M 346.070312 26.542969 " clip-rule="nonzero"/></clipPath><clipPath id="5789562d4d"><path d="M 346.070312 26.542969 L 18.898438 35.960938 L 28.066406 354.332031 L 355.234375 344.910156 Z M 346.070312 26.542969 " clip-rule="nonzero"/></clipPath><clipPath id="bcd17b94c1"><path d="M 43 173 L 49 173 L 49 195 L 43 195 Z M 43 173 " clip-rule="nonzero"/></clipPath><clipPath id="10b742d316"><path d="M 10.984375 30.34375 L 354.316406 20.460938 L 363.652344 344.71875 L 20.320312 354.601562 Z M 10.984375 30.34375 " clip-rule="nonzero"/></clipPath><clipPath id="92852602e5"><path d="M 541.023438 -195.621094 L -64.769531 -178.179688 L -49.371094 356.65625 L 556.421875 339.214844 Z M 541.023438 -195.621094 " clip-rule="nonzero"/></clipPath><clipPath id="aad765f233"><path d="M 50 51 L 163 51 L 163 155 L 50 155 Z M 50 51 " clip-rule="nonzero"/></clipPath><clipPath id="21a4a32e9a"><path d="M 10.984375 30.34375 L 354.316406 20.460938 L 363.652344 344.71875 L 20.320312 354.601562 Z M 10.984375 30.34375 " clip-rule="nonzero"/></clipPath><clipPath id="64d58d794d"><path d="M 541.023438 -195.621094 L -64.769531 -178.179688 L -49.371094 356.65625 L 556.421875 339.214844 Z M 541.023438 -195.621094 " clip-rule="nonzero"/></clipPath><clipPath id="2b54d41987"><path d="M 31.761719 37.535156 L 331.6875 37.535156 L 331.6875 337.464844 L 31.761719 337.464844 Z M 31.761719 37.535156 " clip-rule="nonzero"/></clipPath><clipPath id="b5a429f8ff"><path d="M 181.722656 37.535156 C 98.902344 37.535156 31.761719 104.675781 31.761719 187.5 C 31.761719 270.324219 98.902344 337.464844 181.722656 337.464844 C 264.546875 337.464844 331.6875 270.324219 331.6875 187.5 C 331.6875 104.675781 264.546875 37.535156 181.722656 37.535156 Z M 181.722656 37.535156 " clip-rule="nonzero"/></clipPath><clipPath id="54a2b82522"><path d="M 48.53125 48.859375 L 341.648438 48.859375 L 341.648438 341.976562 L 48.53125 341.976562 Z M 48.53125 48.859375 " clip-rule="nonzero"/></clipPath><clipPath id="5b5481ecf5"><path d="M 195.089844 48.859375 C 114.148438 48.859375 48.53125 114.472656 48.53125 195.417969 C 48.53125 276.359375 114.148438 341.976562 195.089844 341.976562 C 276.03125 341.976562 341.648438 276.359375 341.648438 195.417969 C 341.648438 114.472656 276.03125 48.859375 195.089844 48.859375 Z M 195.089844 48.859375 " clip-rule="nonzero"/></clipPath><clipPath id="7e77413fe6"><path d="M 28 36 L 346 36 L 346 345 L 28 345 Z M 28 36 " clip-rule="nonzero"/></clipPath><clipPath id="8c58640000"><path d="M 16.886719 35.597656 L 348.773438 26.042969 L 357.800781 339.621094 L 25.914062 349.175781 Z M 16.886719 35.597656 " clip-rule="nonzero"/></clipPath><clipPath id="34ed9f110c"><path d="M 529.203125 -182.8125 L -55.988281 -165.964844 L -41.117188 350.5625 L 544.074219 333.714844 Z M 529.203125 -182.8125 " clip-rule="nonzero"/></clipPath><clipPath id="dc5099eda3"><path d="M 340.769531 31.921875 L 24.539062 41.027344 L 33.410156 349.070312 L 349.636719 339.964844 Z M 340.769531 31.921875 " clip-rule="nonzero"/></clipPath><clipPath id="28f3aee2a2"><path d="M 340.769531 31.921875 L 24.539062 41.027344 L 33.398438 348.75 L 349.628906 339.644531 Z M 340.769531 31.921875 " clip-rule="nonzero"/></clipPath><clipPath id="2afb881f5e"><path d="M 47 173 L 54 173 L 54 195 L 47 195 Z M 47 173 " clip-rule="nonzero"/></clipPath><clipPath id="efddf2a2c2"><path d="M 16.886719 35.597656 L 348.773438 26.042969 L 357.800781 339.621094 L 25.914062 349.175781 Z M 16.886719 35.597656 " clip-rule="nonzero"/></clipPath><clipPath id="42cea360e3"><path d="M 529.203125 -182.8125 L -55.988281 -165.964844 L -41.117188 350.5625 L 544.074219 333.714844 Z M 529.203125 -182.8125 " clip-rule="nonzero"/></clipPath><clipPath id="8872609a19"><path d="M 54 56 L 164 56 L 164 156 L 54 156 Z M 54 56 " clip-rule="nonzero"/></clipPath><clipPath id="0ba8a3e036"><path d="M 16.886719 35.597656 L 348.773438 26.042969 L 357.800781 339.621094 L 25.914062 349.175781 Z M 16.886719 35.597656 " clip-rule="nonzero"/></clipPath><clipPath id="8d1dd17b87"><path d="M 529.203125 -182.8125 L -55.988281 -165.964844 L -41.117188 350.5625 L 544.074219 333.714844 Z M 529.203125 -182.8125 " clip-rule="nonzero"/></clipPath></defs><g clip-path="url(#95754d1e02)"><g clip-path="url(#87b9f44969)"><path fill="#b9e5ff" d="M 26.371094 32.347656 L 336.675781 32.347656 L 336.675781 342.652344 L 26.371094 342.652344 Z M 26.371094 32.347656 " fill-opacity="1" fill-rule="nonzero"/></g></g><g clip-path="url(#57fceda67e)"><g clip-path="url(#85af2215d5)"><path fill="#b9e5ff" d="M 43.722656 44.0625 L 346.980469 44.0625 L 346.980469 347.320312 L 43.722656 347.320312 Z M 43.722656 44.0625 " fill-opacity="1" fill-rule="nonzero"/></g></g><g clip-path="url(#9ec34f5cad)"><g clip-path="url(#5f3e8a2e03)"><g clip-path="url(#91043ed468)"><g clip-path="url(#6cbd6e3b38)"><g clip-path="url(#7906ed7093)"><path fill="#000000" d="M 30.816406 199.109375 C 35.890625 246.398438 65.003906 291.105469 107.839844 317.335938 C 125.320312 328.035156 145.023438 335.628906 164.734375 339.265625 C 186.039062 343.214844 211.589844 342.421875 231.902344 337.269531 C 291.6875 322.089844 334.347656 274.644531 341.882812 214.996094 C 343.328125 203.75 342.972656 185.066406 341.070312 174.039062 C 335.222656 140.167969 318.433594 109.050781 292.960938 85.058594 C 270.113281 63.429688 241.308594 48.609375 210.632812 42.675781 C 197.039062 40.019531 191.425781 39.636719 174.507812 40.058594 C 159.84375 40.484375 157.960938 40.597656 149.125 42.433594 C 82.351562 56.167969 35.929688 108.167969 30.433594 175.371094 C 29.714844 184.222656 29.808594 189.515625 30.816406 199.109375 Z M 23.550781 168.871094 C 30.613281 94.804688 88.617188 38.878906 165.449219 32.101562 C 235.238281 25.949219 303.886719 64.710938 334.371094 127.46875 C 354.308594 168.484375 356.085938 215.441406 339.222656 255.8125 C 328.457031 281.511719 309.582031 304.890625 286.542969 321.078125 C 251.625 345.53125 207.253906 354.664062 162.328125 346.640625 C 150.273438 344.488281 134.109375 339.355469 122.074219 333.792969 C 70.425781 310.132812 35.59375 265.707031 25.609375 210.828125 C 23.652344 199.984375 22.621094 178.824219 23.550781 168.871094 " fill-opacity="1" fill-rule="evenodd"/></g></g></g></g></g><g clip-path="url(#5725fc0615)"><g clip-path="url(#bdfaf61403)"><g clip-path="url(#30a15ab595)"><path fill="#000000" d="M 43.460938 175.179688 C 44.144531 173.515625 46.253906 172.722656 47.4375 173.664062 C 48.183594 174.25 48.425781 176.316406 48.644531 183.917969 C 48.941406 194.261719 48.570312 196.101562 46.789062 193.59375 C 44.3125 190.011719 42.214844 178.382812 43.460938 175.179688 " fill-opacity="1" fill-rule="evenodd"/></g></g></g><g clip-path="url(#aaf3fdb3a9)"><g clip-path="url(#79ba549734)"><g clip-path="url(#3253a3a66e)"><path fill="#000000" d="M 51.078125 143.597656 C 53.347656 135.800781 61.691406 120.945312 70.195312 109.679688 C 79.636719 97.105469 95.5 81.304688 105.886719 74.125 C 111.980469 69.933594 136.035156 57.367188 141.464844 55.5625 C 150.632812 52.5625 158.75 51.109375 161.394531 52.007812 C 161.949219 52.175781 162.398438 53.011719 162.421875 53.804688 C 162.457031 55.019531 161.917969 55.402344 158.058594 56.609375 C 146.894531 60.21875 139.4375 63.417969 126.71875 70.179688 C 107.890625 80.15625 99.953125 85.804688 89.671875 96.636719 C 75.542969 111.476562 64.214844 128.363281 57.90625 143.953125 C 54.550781 152.269531 52.804688 155.058594 51.269531 154.492188 C 49.851562 153.988281 49.746094 148.203125 51.078125 143.597656 " fill-opacity="1" fill-rule="evenodd"/></g></g></g><g clip-path="url(#3785a0c5a6)"><g clip-path="url(#442c7636db)"><path fill="#b9e5ff" d="M 26.371094 32.347656 L 336.675781 32.347656 L 336.675781 342.652344 L 26.371094 342.652344 Z M 26.371094 32.347656 " fill-opacity="1" fill-rule="nonzero"/></g></g><g clip-path="url(#638aeb7c31)"><g clip-path="url(#feecc83508)"><path fill="#b9e5ff" d="M 43.722656 44.0625 L 346.980469 44.0625 L 346.980469 347.320312 L 43.722656 347.320312 Z M 43.722656 44.0625 " fill-opacity="1" fill-rule="nonzero"/></g></g><g clip-path="url(#a3cc0463c7)"><g clip-path="url(#b51d3295d6)"><g clip-path="url(#8c0b90359d)"><g clip-path="url(#9676c07882)"><g clip-path="url(#5789562d4d)"><path fill="#000000" d="M 30.816406 199.109375 C 35.890625 246.398438 65.003906 291.105469 107.839844 317.335938 C 125.320312 328.035156 145.023438 335.628906 164.734375 339.265625 C 186.039062 343.214844 211.589844 342.421875 231.902344 337.269531 C 291.6875 322.089844 334.347656 274.644531 341.882812 214.996094 C 343.328125 203.75 342.972656 185.066406 341.070312 174.039062 C 335.222656 140.167969 318.433594 109.050781 292.960938 85.058594 C 270.113281 63.429688 241.308594 48.609375 210.632812 42.675781 C 197.039062 40.019531 191.425781 39.636719 174.507812 40.058594 C 159.84375 40.484375 157.960938 40.597656 149.125 42.433594 C 82.351562 56.167969 35.929688 108.167969 30.433594 175.371094 C 29.714844 184.222656 29.808594 189.515625 30.816406 199.109375 Z M 23.550781 168.871094 C 30.613281 94.804688 88.617188 38.878906 165.449219 32.101562 C 235.238281 25.949219 303.886719 64.710938 334.371094 127.46875 C 354.308594 168.484375 356.085938 215.441406 339.222656 255.8125 C 328.457031 281.511719 309.582031 304.890625 286.542969 321.078125 C 251.625 345.53125 207.253906 354.664062 162.328125 346.640625 C 150.273438 344.488281 134.109375 339.355469 122.074219 333.792969 C 70.425781 310.132812 35.59375 265.707031 25.609375 210.828125 C 23.652344 199.984375 22.621094 178.824219 23.550781 168.871094 " fill-opacity="1" fill-rule="evenodd"/></g></g></g></g></g><g clip-path="url(#bcd17b94c1)"><g clip-path="url(#10b742d316)"><g clip-path="url(#92852602e5)"><path fill="#000000" d="M 43.460938 175.179688 C 44.144531 173.515625 46.253906 172.722656 47.4375 173.664062 C 48.183594 174.25 48.425781 176.316406 48.644531 183.917969 C 48.941406 194.261719 48.570312 196.101562 46.789062 193.59375 C 44.3125 190.011719 42.214844 178.382812 43.460938 175.179688 " fill-opacity="1" fill-rule="evenodd"/></g></g></g><g clip-path="url(#aad765f233)"><g clip-path="url(#21a4a32e9a)"><g clip-path="url(#64d58d794d)"><path fill="#000000" d="M 51.078125 143.597656 C 53.347656 135.800781 61.691406 120.945312 70.195312 109.679688 C 79.636719 97.105469 95.5 81.304688 105.886719 74.125 C 111.980469 69.933594 136.035156 57.367188 141.464844 55.5625 C 150.632812 52.5625 158.75 51.109375 161.394531 52.007812 C 161.949219 52.175781 162.398438 53.011719 162.421875 53.804688 C 162.457031 55.019531 161.917969 55.402344 158.058594 56.609375 C 146.894531 60.21875 139.4375 63.417969 126.71875 70.179688 C 107.890625 80.15625 99.953125 85.804688 89.671875 96.636719 C 75.542969 111.476562 64.214844 128.363281 57.90625 143.953125 C 54.550781 152.269531 52.804688 155.058594 51.269531 154.492188 C 49.851562 153.988281 49.746094 148.203125 51.078125 143.597656 " fill-opacity="1" fill-rule="evenodd"/></g></g></g><g clip-path="url(#2b54d41987)"><g clip-path="url(#b5a429f8ff)"><path fill="#b9e5ff" d="M 31.761719 37.535156 L 331.6875 37.535156 L 331.6875 337.464844 L 31.761719 337.464844 Z M 31.761719 37.535156 " fill-opacity="1" fill-rule="nonzero"/></g></g><g clip-path="url(#54a2b82522)"><g clip-path="url(#5b5481ecf5)"><path fill="#b9e5ff" d="M 48.53125 48.859375 L 341.648438 48.859375 L 341.648438 341.976562 L 48.53125 341.976562 Z M 48.53125 48.859375 " fill-opacity="1" fill-rule="nonzero"/></g></g><g clip-path="url(#7e77413fe6)"><g clip-path="url(#8c58640000)"><g clip-path="url(#34ed9f110c)"><g clip-path="url(#dc5099eda3)"><g clip-path="url(#28f3aee2a2)"><path fill="#000000" d="M 36.058594 198.71875 C 40.960938 244.425781 69.101562 287.636719 110.503906 312.992188 C 127.398438 323.332031 146.445312 330.671875 165.496094 334.1875 C 186.089844 338.007812 210.785156 337.238281 230.417969 332.257812 C 288.203125 317.585938 329.4375 271.730469 336.722656 214.074219 C 338.117188 203.203125 337.773438 185.144531 335.9375 174.488281 C 330.285156 141.75 314.058594 111.671875 289.4375 88.484375 C 267.351562 67.578125 239.511719 53.253906 209.859375 47.515625 C 196.722656 44.949219 191.296875 44.578125 174.945312 44.988281 C 160.773438 45.398438 158.953125 45.507812 150.410156 47.285156 C 85.871094 60.558594 41 110.820312 35.6875 175.773438 C 34.996094 184.328125 35.082031 189.449219 36.058594 198.71875 Z M 29.035156 169.492188 C 35.863281 97.902344 91.925781 43.847656 166.191406 37.296875 C 233.644531 31.351562 299.996094 68.816406 329.460938 129.472656 C 348.730469 169.117188 350.449219 214.503906 334.152344 253.523438 C 323.742188 278.367188 305.5 300.960938 283.234375 316.609375 C 249.484375 340.242188 206.59375 349.070312 163.171875 341.316406 C 151.519531 339.238281 135.894531 334.273438 124.261719 328.898438 C 74.34375 306.027344 40.675781 263.089844 31.023438 210.042969 C 29.132812 199.566406 28.136719 179.113281 29.035156 169.492188 " fill-opacity="1" fill-rule="evenodd"/></g></g></g></g></g><g clip-path="url(#2afb881f5e)"><g clip-path="url(#efddf2a2c2)"><g clip-path="url(#42cea360e3)"><path fill="#000000" d="M 48.28125 175.589844 C 48.941406 173.980469 50.980469 173.214844 52.121094 174.125 C 52.84375 174.691406 53.078125 176.6875 53.289062 184.039062 C 53.578125 194.035156 53.21875 195.8125 51.496094 193.386719 C 49.105469 189.925781 47.074219 178.683594 48.28125 175.589844 " fill-opacity="1" fill-rule="evenodd"/></g></g></g><g clip-path="url(#8872609a19)"><g clip-path="url(#0ba8a3e036)"><g clip-path="url(#8d1dd17b87)"><path fill="#000000" d="M 55.640625 145.066406 C 57.835938 137.527344 65.898438 123.171875 74.117188 112.28125 C 83.246094 100.128906 98.578125 84.855469 108.617188 77.914062 C 114.507812 73.863281 137.757812 61.714844 143.007812 59.972656 C 151.867188 57.070312 159.714844 55.667969 162.269531 56.535156 C 162.804688 56.699219 163.238281 57.507812 163.261719 58.273438 C 163.296875 59.449219 162.777344 59.816406 159.042969 60.984375 C 148.253906 64.472656 141.046875 67.566406 128.753906 74.101562 C 110.554688 83.746094 102.882812 89.203125 92.945312 99.671875 C 79.289062 114.015625 68.339844 130.339844 62.242188 145.40625 C 59 153.445312 57.3125 156.140625 55.824219 155.59375 C 54.457031 155.105469 54.355469 149.515625 55.640625 145.066406 " fill-opacity="1" fill-rule="evenodd"/></g></g></g></svg>