<svg xmlns="http://www.w3.org/2000/svg" xmlns:xlink="http://www.w3.org/1999/xlink" width="500" zoomAndPan="magnify" viewBox="0 0 375 149.999998" height="200" preserveAspectRatio="xMidYMid meet" version="1.0"><defs><g/><clipPath id="b1bc126aaf"><path d="M 12.839844 14.769531 L 53.882812 14.769531 L 53.882812 55.8125 L 12.839844 55.8125 Z M 12.839844 14.769531 " clip-rule="nonzero"/></clipPath><clipPath id="19e7873f63"><path d="M 33.363281 14.769531 C 22.027344 14.769531 12.839844 23.957031 12.839844 35.292969 C 12.839844 46.625 22.027344 55.8125 33.363281 55.8125 C 44.695312 55.8125 53.882812 46.625 53.882812 35.292969 C 53.882812 23.957031 44.695312 14.769531 33.363281 14.769531 Z M 33.363281 14.769531 " clip-rule="nonzero"/></clipPath><clipPath id="a3cf6b8819"><path d="M 15.730469 16.328125 L 55.214844 16.328125 L 55.214844 56.585938 L 15.730469 56.585938 Z M 15.730469 16.328125 " clip-rule="nonzero"/></clipPath><clipPath id="9f4d1ef97a"><path d="M 35.472656 16.328125 C 24.570312 16.328125 15.730469 25.324219 15.730469 36.417969 C 15.730469 47.515625 24.570312 56.507812 35.472656 56.507812 C 46.378906 56.507812 55.214844 47.515625 55.214844 36.417969 C 55.214844 25.324219 46.378906 16.328125 35.472656 16.328125 Z M 35.472656 16.328125 " clip-rule="nonzero"/></clipPath><clipPath id="1678ed6842"><path d="M 12 14 L 57 14 L 57 57 L 12 57 Z M 12 14 " clip-rule="nonzero"/></clipPath><clipPath id="8dbfa637ae"><path d="M 9.210938 15.738281 L 54.773438 11.601562 L 58.707031 54.921875 L 13.144531 59.0625 Z M 9.210938 15.738281 " clip-rule="nonzero"/></clipPath><clipPath id="3ec4ace7bc"><path d="M 78.203125 -18.859375 L -2.464844 -11.53125 L 4.050781 60.175781 L 84.71875 52.847656 Z M 78.203125 -18.859375 " clip-rule="nonzero"/></clipPath><clipPath id="e64a3503bb"><path d="M 53.976562 12.457031 L 10.3125 16.425781 L 14.175781 58.957031 L 57.839844 54.992188 Z M 53.976562 12.457031 " clip-rule="nonzero"/></clipPath><clipPath id="94f8ad341b"><path d="M 53.976562 12.457031 L 10.3125 16.425781 L 14.171875 58.914062 L 57.835938 54.949219 Z M 53.976562 12.457031 " clip-rule="nonzero"/></clipPath><clipPath id="4c2c93250e"><path d="M 14 34 L 16 34 L 16 38 L 14 38 Z M 14 34 " clip-rule="nonzero"/></clipPath><clipPath id="1371055969"><path d="M 9.210938 15.738281 L 54.773438 11.601562 L 58.707031 54.921875 L 13.144531 59.0625 Z M 9.210938 15.738281 " clip-rule="nonzero"/></clipPath><clipPath id="bb464d33ed"><path d="M 78.203125 -18.859375 L -2.464844 -11.53125 L 4.050781 60.175781 L 84.71875 52.847656 Z M 78.203125 -18.859375 " clip-rule="nonzero"/></clipPath><clipPath id="bdc7329eb1"><path d="M 15 17 L 30 17 L 30 33 L 15 33 Z M 15 17 " clip-rule="nonzero"/></clipPath><clipPath id="2be67ba52a"><path d="M 9.210938 15.738281 L 54.773438 11.601562 L 58.707031 54.921875 L 13.144531 59.0625 Z M 9.210938 15.738281 " clip-rule="nonzero"/></clipPath><clipPath id="0c916f5c27"><path d="M 78.203125 -18.859375 L -2.464844 -11.53125 L 4.050781 60.175781 L 84.71875 52.847656 Z M 78.203125 -18.859375 " clip-rule="nonzero"/></clipPath><clipPath id="90c3d3d76b"><path d="M 20.175781 59.953125 L 42.222656 59.953125 L 42.222656 82.609375 L 20.175781 82.609375 Z M 20.175781 59.953125 " clip-rule="nonzero"/></clipPath><clipPath id="f4a609e457"><path d="M 31.199219 59.953125 C 25.109375 59.953125 20.175781 65.023438 20.175781 71.277344 C 20.175781 77.53125 25.109375 82.601562 31.199219 82.601562 C 37.289062 82.601562 42.222656 77.53125 42.222656 71.277344 C 42.222656 65.023438 37.289062 59.953125 31.199219 59.953125 Z M 31.199219 59.953125 " clip-rule="nonzero"/></clipPath><clipPath id="d7ce5213a3"><path d="M 21.726562 60.816406 L 42.9375 60.816406 L 42.9375 83 L 21.726562 83 Z M 21.726562 60.816406 " clip-rule="nonzero"/></clipPath><clipPath id="238f6418bc"><path d="M 32.332031 60.816406 C 26.476562 60.816406 21.726562 65.777344 21.726562 71.898438 C 21.726562 78.019531 26.476562 82.984375 32.332031 82.984375 C 38.191406 82.984375 42.9375 78.019531 42.9375 71.898438 C 42.9375 65.777344 38.191406 60.816406 32.332031 60.816406 Z M 32.332031 60.816406 " clip-rule="nonzero"/></clipPath><clipPath id="e076b89923"><path d="M 19 59 L 44 59 L 44 84 L 19 84 Z M 19 59 " clip-rule="nonzero"/></clipPath><clipPath id="5e059f4f33"><path d="M 22.871094 56.507812 L 46.695312 63.214844 L 40.394531 85.59375 L 16.570312 78.886719 Z M 22.871094 56.507812 " clip-rule="nonzero"/></clipPath><clipPath id="40df813b7f"><path d="M 64.550781 52.335938 L 21.957031 40.34375 L 11.386719 77.886719 L 53.984375 89.875 Z M 64.550781 52.335938 " clip-rule="nonzero"/></clipPath><clipPath id="bd2d5647ff"><path d="M 46.207031 63.515625 L 23.304688 57.070312 L 17.027344 79.375 L 39.925781 85.824219 Z M 46.207031 63.515625 " clip-rule="nonzero"/></clipPath><clipPath id="5c2399257f"><path d="M 46.207031 63.515625 L 23.304688 57.070312 L 17.035156 79.351562 L 39.933594 85.800781 Z M 46.207031 63.515625 " clip-rule="nonzero"/></clipPath><clipPath id="83f8bf69db"><path d="M 21 67 L 23 67 L 23 69 L 21 69 Z M 21 67 " clip-rule="nonzero"/></clipPath><clipPath id="af49cbdc39"><path d="M 22.871094 56.507812 L 46.695312 63.214844 L 40.394531 85.59375 L 16.570312 78.886719 Z M 22.871094 56.507812 " clip-rule="nonzero"/></clipPath><clipPath id="6c10f7930d"><path d="M 64.550781 52.335938 L 21.957031 40.34375 L 11.386719 77.886719 L 53.984375 89.875 Z M 64.550781 52.335938 " clip-rule="nonzero"/></clipPath><clipPath id="4b176171a4"><path d="M 22 61 L 33 61 L 33 67 L 22 67 Z M 22 61 " clip-rule="nonzero"/></clipPath><clipPath id="bba70d4243"><path d="M 22.871094 56.507812 L 46.695312 63.214844 L 40.394531 85.59375 L 16.570312 78.886719 Z M 22.871094 56.507812 " clip-rule="nonzero"/></clipPath><clipPath id="a7854bdc4d"><path d="M 64.550781 52.335938 L 21.957031 40.34375 L 11.386719 77.886719 L 53.984375 89.875 Z M 64.550781 52.335938 " clip-rule="nonzero"/></clipPath><clipPath id="cbd6bc822c"><path d="M 45.640625 74.367188 L 56.945312 74.367188 L 56.945312 85.980469 L 45.640625 85.980469 Z M 45.640625 74.367188 " clip-rule="nonzero"/></clipPath><clipPath id="5562bf66fa"><path d="M 51.292969 74.367188 C 48.167969 74.367188 45.640625 76.96875 45.640625 80.171875 C 45.640625 83.378906 48.167969 85.980469 51.292969 85.980469 C 54.414062 85.980469 56.945312 83.378906 56.945312 80.171875 C 56.945312 76.96875 54.414062 74.367188 51.292969 74.367188 Z M 51.292969 74.367188 " clip-rule="nonzero"/></clipPath><clipPath id="521e37ced6"><path d="M 46.070312 75 L 56.945312 75 L 56.945312 86.382812 L 46.070312 86.382812 Z M 46.070312 75 " clip-rule="nonzero"/></clipPath><clipPath id="a23a93ecc2"><path d="M 51.507812 75 C 48.503906 75 46.070312 77.542969 46.070312 80.683594 C 46.070312 83.820312 48.503906 86.363281 51.507812 86.363281 C 54.507812 86.363281 56.945312 83.820312 56.945312 80.683594 C 56.945312 77.542969 54.507812 75 51.507812 75 Z M 51.507812 75 " clip-rule="nonzero"/></clipPath><clipPath id="852c47283c"><path d="M 49.335938 76.183594 L 57.511719 76.183594 L 57.511719 85.03125 L 49.335938 85.03125 Z M 49.335938 76.183594 " clip-rule="nonzero"/></clipPath><clipPath id="decf60fa59"><path d="M 53.421875 76.183594 C 51.164062 76.183594 49.335938 78.164062 49.335938 80.605469 C 49.335938 83.050781 51.164062 85.03125 53.421875 85.03125 C 55.679688 85.03125 57.511719 83.050781 57.511719 80.605469 C 57.511719 78.164062 55.679688 76.183594 53.421875 76.183594 Z M 53.421875 76.183594 " clip-rule="nonzero"/></clipPath><clipPath id="1fce7848ca"><path d="M 48.769531 77.132812 L 56.945312 77.132812 L 56.945312 85.980469 L 48.769531 85.980469 Z M 48.769531 77.132812 " clip-rule="nonzero"/></clipPath><clipPath id="91b029e8b9"><path d="M 52.855469 77.132812 C 50.597656 77.132812 48.769531 79.113281 48.769531 81.554688 C 48.769531 84 50.597656 85.980469 52.855469 85.980469 C 55.113281 85.980469 56.945312 84 56.945312 81.554688 C 56.945312 79.113281 55.113281 77.132812 52.855469 77.132812 Z M 52.855469 77.132812 " clip-rule="nonzero"/></clipPath><clipPath id="644ff10c94"><path d="M 45 74 L 58 74 L 58 87 L 45 87 Z M 45 74 " clip-rule="nonzero"/></clipPath><clipPath id="18147db0a4"><path d="M 46.851562 72.570312 L 59.125 76.023438 L 55.871094 87.574219 L 43.601562 84.121094 Z M 46.851562 72.570312 " clip-rule="nonzero"/></clipPath><clipPath id="c2cff73544"><path d="M 68.644531 70.382812 L 46.265625 64.082031 L 40.777344 83.574219 L 63.160156 89.875 Z M 68.644531 70.382812 " clip-rule="nonzero"/></clipPath><clipPath id="5e5cf3e536"><path d="M 59.046875 76.226562 L 47.074219 72.855469 L 43.789062 84.523438 L 55.765625 87.894531 Z M 59.046875 76.226562 " clip-rule="nonzero"/></clipPath><clipPath id="5e85ad06c9"><path d="M 59.046875 76.226562 L 47.074219 72.855469 L 43.792969 84.511719 L 55.769531 87.882812 Z M 59.046875 76.226562 " clip-rule="nonzero"/></clipPath><clipPath id="b27e2bbc54"><path d="M 46 78 L 47 78 L 47 79 L 46 79 Z M 46 78 " clip-rule="nonzero"/></clipPath><clipPath id="b152787a94"><path d="M 46.851562 72.570312 L 59.125 76.023438 L 55.871094 87.574219 L 43.601562 84.121094 Z M 46.851562 72.570312 " clip-rule="nonzero"/></clipPath><clipPath id="b856daa66e"><path d="M 68.644531 70.382812 L 46.265625 64.082031 L 40.777344 83.574219 L 63.160156 89.875 Z M 68.644531 70.382812 " clip-rule="nonzero"/></clipPath><clipPath id="fafbb30ad9"><path d="M 46 74 L 53 74 L 53 78 L 46 78 Z M 46 74 " clip-rule="nonzero"/></clipPath><clipPath id="d61a29a940"><path d="M 46.851562 72.570312 L 59.125 76.023438 L 55.871094 87.574219 L 43.601562 84.121094 Z M 46.851562 72.570312 " clip-rule="nonzero"/></clipPath><clipPath id="e052b31101"><path d="M 68.644531 70.382812 L 46.265625 64.082031 L 40.777344 83.574219 L 63.160156 89.875 Z M 68.644531 70.382812 " clip-rule="nonzero"/></clipPath><clipPath id="61ddc956b9"><path d="M 59 78 L 60 78 L 60 83 L 59 83 Z M 59 78 " clip-rule="nonzero"/></clipPath><clipPath id="e47b3c6bf4"><path d="M 46.851562 72.570312 L 59.125 76.023438 L 55.871094 87.574219 L 43.601562 84.121094 Z M 46.851562 72.570312 " clip-rule="nonzero"/></clipPath><clipPath id="8128b15e9a"><path d="M 68.644531 70.382812 L 46.265625 64.082031 L 40.777344 83.574219 L 63.160156 89.875 Z M 68.644531 70.382812 " clip-rule="nonzero"/></clipPath></defs><path stroke-linecap="butt" transform="matrix(2.825051, 0, 0, 2.825051, 59.912464, 2.946439)" fill="none" stroke-linejoin="miter" d="M 13.737872 25.877174 C 14.618663 25.849519 15.42064 26.05831 16.143802 26.502162 C 16.872494 26.940484 17.456001 27.519843 17.89294 28.241622 C 18.336793 28.963401 18.678324 29.758464 18.913386 30.626811 C 19.156745 31.495158 19.257683 32.369036 19.216202 33.25121 C 19.17472 34.133385 18.996349 34.903559 18.685238 35.563115 C 18.628546 35.730424 18.528991 35.948894 18.382422 36.219906 C 18.244151 36.490919 17.890175 36.959661 17.320495 37.626131 C 16.750815 38.292601 16.116147 38.862281 15.413726 39.333788 C 14.719602 39.805295 13.747551 40.191073 12.497573 40.48974 C 11.247596 40.788408 9.898063 40.85063 8.446209 40.67779 C 8.363246 40.67779 8.24848 40.67779 8.103295 40.67779 C 7.96364 40.67779 7.6788 40.643222 7.248775 40.572704 C 6.825663 40.503568 6.405317 40.399864 5.989119 40.260209 C 5.578451 40.115024 5.116623 39.885493 4.603635 39.572998 C 4.096177 39.25359 3.641263 38.869195 3.238892 38.417046 C 2.843434 37.959366 2.475631 37.368945 2.135483 36.647166 C 1.795334 35.924005 1.538148 35.091608 1.363926 34.147212 C 0.538443 28.717277 0.382196 23.200231 0.895184 17.597457 C 1.034839 15.862145 1.347333 14.538884 1.832667 13.629055 C 2.742496 11.955966 4.33677 10.977002 6.614107 10.692162 C 6.752379 10.692162 6.943194 10.678334 7.186553 10.65068 C 7.429911 10.616112 7.884825 10.60505 8.551295 10.618878 C 9.224679 10.632705 9.849668 10.685248 10.424879 10.775125 C 11.008386 10.859471 11.633375 11.029545 12.299845 11.28673 C 12.973229 11.542533 13.50834 11.882682 13.903798 12.307177 C 13.931452 12.362485 13.986761 12.428856 14.071107 12.504905 C 14.160984 12.574041 14.319996 12.744116 14.549527 13.015128 C 14.779059 13.286141 14.969874 13.577895 15.121973 13.890389 C 15.282368 14.202883 15.480097 14.60802 15.716542 15.108564 C 15.9599 15.600811 16.123061 16.117948 16.206024 16.659974 C 16.295901 17.201999 16.369185 17.836667 16.424493 18.566742 C 16.479802 19.288521 16.406518 20.031041 16.206024 20.794301 C 16.206024 21.023833 16.171456 21.326648 16.10232 21.701365 C 16.031801 22.069168 15.789826 22.707983 15.372245 23.617812 C 14.96296 24.527641 14.418169 25.279839 13.737872 25.877174 Z M 2.905657 23.190552 C 3.045311 23.043984 3.107534 22.87391 3.093706 22.680329 C 3.079879 22.478452 2.985854 22.305612 2.811632 22.159044 C 2.756323 22.076081 2.756323 21.89218 2.811632 21.60734 C 2.875237 21.405463 2.8462 21.221561 2.728669 21.055635 C 2.618051 20.881413 2.461804 20.766647 2.259927 20.711338 C 2.121656 20.683684 1.993063 20.683684 1.874149 20.711338 C 1.763531 20.738993 1.655679 20.805363 1.551976 20.909067 C 1.455185 21.00724 1.39158 21.124771 1.363926 21.263043 C 1.163432 22.145217 1.333506 22.815835 1.874149 23.273515 C 2.020717 23.41317 2.176964 23.482306 2.34289 23.482306 C 2.572422 23.482306 2.760471 23.385515 2.905657 23.190552 Z M 5.166401 13.463129 C 5.304673 13.288907 5.359982 13.105005 5.332327 12.911424 C 5.304673 12.709548 5.203735 12.546387 5.030895 12.421942 C 4.863586 12.289201 4.679684 12.236658 4.477807 12.265695 C 4.277313 12.293349 4.107239 12.392905 3.967584 12.567128 C 3.822399 12.762091 3.641263 13.038635 3.426942 13.400907 C 3.218151 13.754883 2.91257 14.444859 2.510199 15.472219 C 2.114742 16.494047 1.846495 17.528321 1.708223 18.576421 C 1.708223 18.778298 1.763531 18.964965 1.874149 19.139188 C 1.993063 19.305114 2.163137 19.403287 2.384372 19.430941 C 2.413409 19.430941 2.443829 19.430941 2.478397 19.430941 C 2.645706 19.430941 2.797805 19.368719 2.937459 19.242891 C 3.082645 19.111533 3.169756 18.948372 3.19741 18.753409 C 3.314941 17.843581 3.551386 16.928221 3.905362 16.004565 C 4.259338 15.073996 4.527585 14.451773 4.707339 14.139278 C 4.895388 13.826784 5.047487 13.601401 5.166401 13.463129 Z M 7.82122 20.159634 C 8.211147 20.527437 8.664678 20.711338 9.185963 20.711338 C 9.714162 20.711338 10.169076 20.527437 10.550706 20.159634 C 10.93925 19.791831 11.134213 19.336916 11.134213 18.794891 C 11.134213 18.454742 11.047102 18.135334 10.872879 17.836667 C 10.706953 17.538 10.474657 17.296024 10.175989 17.107974 C 9.877322 16.919925 9.544087 16.827283 9.176284 16.827283 C 8.661913 16.827283 8.211147 17.020863 7.82122 17.409407 C 7.43959 17.79242 7.248775 18.254248 7.248775 18.794891 C 7.248775 19.336916 7.43959 19.791831 7.82122 20.159634 Z M 13.455797 31.168837 C 13.074167 30.792737 12.619253 30.60607 12.092437 30.60607 C 11.564239 30.60607 11.109324 30.792737 10.727694 31.168837 C 10.346064 31.53664 10.155249 31.991554 10.155249 32.532197 C 10.155249 33.074222 10.346064 33.53605 10.727694 33.91768 C 11.109324 34.299311 11.564239 34.490126 12.092437 34.490126 C 12.619253 34.490126 13.074167 34.299311 13.455797 33.91768 C 13.845724 33.53605 14.039304 33.074222 14.039304 32.532197 C 14.039304 31.991554 13.845724 31.53664 13.455797 31.168837 Z M 15.445529 33.636989 C 15.473183 33.352149 15.351504 33.195902 15.080491 33.168247 C 14.810861 33.140593 14.661528 33.269186 14.63249 33.554026 C 14.521873 34.261977 14.195551 34.80262 13.653526 35.17872 C 13.057574 35.601831 12.230709 35.712449 11.175695 35.511955 C 10.918509 35.455263 10.762262 35.563115 10.706953 35.834128 C 10.651645 36.105141 10.7512 36.268302 11.008386 36.32361 C 11.43288 36.413487 11.814511 36.459117 12.154659 36.459117 C 12.952488 36.459117 13.623106 36.25724 14.165132 35.854869 C 14.900738 35.314226 15.327998 34.574472 15.445529 33.636989 Z M 35.965068 31.67906 C 36.049414 34.296545 35.889018 36.500598 35.486647 38.292601 C 35.146499 39.708505 34.480029 40.545049 33.487237 40.802235 C 33.402891 40.829889 33.289508 40.854778 33.14294 40.875519 C 33.004668 40.889346 32.76131 40.882432 32.414247 40.854778 C 32.074099 40.82021 31.768518 40.740012 31.497505 40.614185 C 31.233406 40.482827 30.966541 40.232555 30.695529 39.864752 C 30.424516 39.496949 30.230935 39.028207 30.112022 38.458527 C 30.174244 38.688058 29.847922 39.198282 29.133057 39.990579 C 28.112611 41.100902 26.945597 41.6291 25.633397 41.572409 C 23.787468 41.489446 22.496009 40.85063 21.75902 39.655961 C 21.016501 38.400453 20.52287 37.042624 20.280895 35.583856 C 20.037536 34.119557 19.888203 32.389777 19.832894 30.39728 C 19.80524 28.634314 19.863314 26.800829 20.009882 24.898209 C 20.009882 24.863641 20.016795 24.748876 20.030623 24.555295 C 20.04445 24.353418 20.051363 24.231739 20.051363 24.190257 C 20.051363 24.148776 20.058277 24.038158 20.072104 23.857022 C 20.085931 23.668973 20.099759 23.548676 20.113586 23.491985 C 20.127413 23.429762 20.148154 23.32191 20.175808 23.169811 C 20.203462 23.009416 20.232499 22.887737 20.260154 22.804774 C 20.287808 22.721811 20.322376 22.618107 20.363858 22.492279 C 20.412253 22.360921 20.464796 22.253069 20.520105 22.170106 C 20.575414 22.078847 20.630722 21.986204 20.686031 21.888031 C 20.742723 21.784328 20.814624 21.690303 20.905883 21.60734 C 21.356649 21.122006 21.915268 20.787388 22.581738 20.607634 C 23.255122 20.419585 23.904999 20.46798 24.529988 20.75282 C 25.008408 21.010005 25.355471 21.437265 25.571175 22.0346 C 25.786879 22.631934 25.87399 23.229268 25.831126 23.82522 C 25.789644 24.422554 25.752311 25.006061 25.717743 25.575741 C 25.717743 25.686359 25.724656 25.842606 25.738484 26.044483 C 25.759224 26.244977 25.817299 26.596187 25.915472 27.096731 C 26.012262 27.588979 26.122879 28.023152 26.248707 28.397869 C 26.380065 28.765672 26.595769 29.091994 26.894436 29.376834 C 27.193103 29.661674 27.526338 29.786118 27.894141 29.75155 C 28.324167 29.723896 28.689204 29.613278 28.987872 29.418315 C 29.286539 29.217821 29.505008 28.926067 29.64328 28.544437 C 29.789848 28.154511 29.889404 27.811597 29.946095 27.512929 C 30.001404 27.214262 30.049799 26.773175 30.091281 26.189668 C 30.132762 25.606161 30.185306 25.189963 30.247528 24.939691 C 30.330491 24.197171 30.598738 23.565269 31.049505 23.043984 C 31.507184 22.517168 32.108667 22.235094 32.851186 22.200526 C 33.61583 22.172871 34.229757 22.430057 34.69435 22.972083 C 35.16724 23.512725 35.461759 24.197171 35.580672 25.024037 C 35.663635 25.537025 35.725858 26.099791 35.767339 26.710953 C 35.808821 27.322114 35.836475 27.84893 35.850302 28.294165 C 35.86413 28.731104 35.886253 29.321525 35.913907 30.064045 C 35.948475 30.801033 35.965068 31.338911 35.965068 31.67906 Z M 20.64455 27.283398 C 20.64455 27.651201 20.821537 27.835103 21.175513 27.835103 C 21.530872 27.835103 21.70786 27.651201 21.70786 27.283398 C 21.70786 26.915595 21.530872 26.731694 21.175513 26.731694 C 20.821537 26.731694 20.64455 26.915595 20.64455 27.283398 Z M 22.779467 22.0346 C 22.946775 21.894945 23.002084 21.724871 22.946775 21.524377 C 22.891467 21.3225 22.762874 21.20082 22.560997 21.159339 C 22.367416 21.117857 22.183515 21.152425 22.009292 21.263043 C 20.961192 22.172871 20.49245 23.541763 20.603068 25.366951 C 20.603068 25.589568 20.699858 25.745815 20.894822 25.835692 C 21.096698 25.918655 21.2806 25.918655 21.446526 25.835692 C 21.620749 25.745815 21.70786 25.589568 21.70786 25.366951 C 21.623514 23.888825 21.981638 22.777119 22.779467 22.0346 Z M 33.267385 40.416456 C 34.66393 39.882727 35.23361 38.660404 34.976424 36.75087 C 34.921116 36.355413 34.69435 36.185338 34.298892 36.240647 C 34.014052 36.295956 33.871633 36.46603 33.871633 36.75087 C 34.073509 38.173687 33.774842 39.042034 32.977014 39.354529 C 32.775137 39.437492 32.653458 39.586825 32.611976 39.802529 C 32.570495 40.018233 32.61889 40.197987 32.757162 40.344555 C 32.90373 40.482827 33.073804 40.507716 33.267385 40.416456 Z M 56.26199 22.076081 C 56.976855 22.618107 57.581103 23.335738 58.07335 24.231739 C 58.573894 25.12774 58.920957 26.074902 59.11592 27.074608 C 59.316414 28.068782 59.403525 29.078166 59.375871 30.105526 C 59.348217 31.127355 59.19197 32.063455 58.90713 32.917975 C 58.282141 34.958867 57.174584 36.576648 55.584458 37.771316 C 54.501789 38.570527 53.453689 39.124997 52.438773 39.437492 C 51.432155 39.749986 50.59561 39.844011 49.92914 39.719566 C 49.26267 39.586825 48.672249 39.409837 48.15926 39.188603 C 47.644889 38.959071 47.277086 38.701886 47.054469 38.417046 L 46.66869 38.031267 C 46.128047 38.96875 45.530713 39.68085 44.87807 40.167567 C 44.225427 40.652901 43.628093 40.89626 43.086067 40.89626 C 42.545424 40.89626 42.031053 40.834037 41.545719 40.70821 C 41.065916 40.576852 40.698113 40.409543 40.440927 40.209049 L 40.013667 39.906233 C 39.271147 39.308899 38.671048 38.166774 38.211985 36.479857 C 37.761219 34.786028 37.476379 32.942864 37.358848 30.948984 C 37.246848 28.956487 37.184625 27.002706 37.170798 25.086259 C 37.156971 23.162898 37.18186 21.56171 37.244082 20.284078 L 37.368527 18.410495 C 37.56349 16.958641 37.87875 15.743231 38.317072 14.764267 C 38.760924 13.778389 39.225518 13.095326 39.712234 12.712313 C 40.197569 12.330683 40.66631 12.063818 41.118459 11.910336 C 41.576139 11.751324 41.94809 11.684953 42.23293 11.712608 L 42.66019 11.796954 C 43.340487 11.769299 43.906019 12.181349 44.356785 13.035869 C 44.815848 13.890389 45.121428 14.941255 45.273527 16.191232 C 45.433923 17.44121 45.555602 18.684273 45.638565 19.920423 C 45.728442 21.156574 45.760244 22.214353 45.73259 23.096527 L 45.689726 24.419789 C 46.912049 22.600131 48.529829 21.437265 50.543067 20.929808 C 52.564601 20.416819 54.469987 20.798449 56.26199 22.076081 Z M 38.140084 18.711928 C 38.140084 19.079731 38.323985 19.263632 38.691788 19.263632 C 39.059591 19.263632 39.243493 19.079731 39.243493 18.711928 C 39.243493 18.337211 39.059591 18.149161 38.691788 18.149161 C 38.323985 18.149161 38.140084 18.337211 38.140084 18.711928 Z M 41.253965 13.378783 C 41.392237 13.205943 41.433719 13.022042 41.37841 12.827079 C 41.323101 12.626584 41.201422 12.504905 41.013372 12.463424 C 40.826705 12.415029 40.63589 12.463424 40.440927 12.608609 C 39.275296 13.747969 38.577023 15.226095 38.347492 17.045752 C 38.292183 17.413555 38.44843 17.638938 38.816233 17.721901 C 39.156382 17.785506 39.35411 17.659679 39.409419 17.347185 C 39.63895 15.694836 40.25426 14.372958 41.253965 13.378783 Z M 49.970621 27.138213 C 49.414769 27.685769 49.138225 28.359153 49.138225 29.158364 C 49.138225 29.956193 49.414769 30.633725 49.970621 31.189577 C 50.526474 31.744047 51.192944 32.021974 51.970032 32.021974 C 52.755416 32.021974 53.431565 31.744047 54.001245 31.189577 C 54.570925 30.633725 54.855765 29.967254 54.855765 29.190167 C 54.855765 28.404783 54.570925 27.727251 54.001245 27.158954 C 53.431565 26.589274 52.755416 26.304434 51.970032 26.304434 C 51.192944 26.304434 50.526474 26.58236 49.970621 27.138213 Z M 55.667421 30.60607 C 55.724112 30.523107 55.717199 30.445675 55.64668 30.376539 C 55.577544 30.307403 55.483519 30.279749 55.365988 30.293576 C 55.255371 30.307403 55.184852 30.369625 55.157198 30.481626 C 54.5889 31.932097 53.477195 32.63037 51.824847 32.575061 C 51.714229 32.575061 51.636797 32.616543 51.595315 32.699506 C 51.553834 32.782469 51.553834 32.876494 51.595315 32.980197 C 51.636797 33.07837 51.714229 33.126766 51.824847 33.126766 C 53.706726 33.182074 54.987123 32.341382 55.667421 30.60607 Z M 79.295311 22.076081 C 80.011559 22.618107 80.615806 23.335738 81.108054 24.231739 C 81.608598 25.12774 81.95566 26.074902 82.149241 27.074608 C 82.351118 28.068782 82.438229 29.078166 82.410575 30.105526 C 82.38292 31.127355 82.226673 32.063455 81.941833 32.917975 C 81.316845 34.958867 80.209287 36.576648 78.619161 37.771316 C 77.53511 38.570527 76.48701 39.124997 75.473477 39.437492 C 74.466858 39.749986 73.630314 39.844011 72.963844 39.719566 C 72.297373 39.586825 71.706953 39.409837 71.192581 39.188603 C 70.679593 38.959071 70.31179 38.701886 70.089172 38.417046 L 69.703394 38.031267 C 69.162751 38.96875 68.565417 39.68085 67.912774 40.167567 C 67.260131 40.652901 66.662796 40.89626 66.120771 40.89626 C 65.578745 40.89626 65.065757 40.834037 64.57904 40.70821 C 64.100619 40.576852 63.732816 40.409543 63.475631 40.209049 L 63.048371 39.906233 C 62.305851 39.308899 61.704369 38.166774 61.246689 36.479857 C 60.795923 34.786028 60.511083 32.942864 60.392169 30.948984 C 60.281552 28.956487 60.219329 27.002706 60.205502 25.086259 C 60.191675 23.162898 60.215181 21.56171 60.277403 20.284078 L 60.403231 18.410495 C 60.596811 16.958641 60.913454 15.743231 61.350393 14.764267 C 61.795628 13.778389 62.260221 13.095326 62.746938 12.712313 C 63.232272 12.330683 63.701014 12.063818 64.153163 11.910336 C 64.610842 11.751324 64.982794 11.684953 65.266251 11.712608 L 65.693511 11.796954 C 66.373808 11.769299 66.940723 12.181349 67.391489 13.035869 C 67.849169 13.890389 68.154749 14.941255 68.308231 16.191232 C 68.467244 17.44121 68.588923 18.684273 68.673269 19.920423 C 68.763145 21.156574 68.793565 22.214353 68.765911 23.096527 L 68.724429 24.419789 C 69.946752 22.600131 71.564533 21.437265 73.57777 20.929808 C 75.597922 20.416819 77.50469 20.798449 79.295311 22.076081 Z M 61.173405 18.711928 C 61.173405 19.079731 61.357306 19.263632 61.725109 19.263632 C 62.094295 19.263632 62.278197 19.079731 62.278197 18.711928 C 62.278197 18.337211 62.094295 18.149161 61.725109 18.149161 C 61.357306 18.149161 61.173405 18.337211 61.173405 18.711928 Z M 64.287286 13.378783 C 64.426941 13.205943 64.468422 13.022042 64.413114 12.827079 C 64.357805 12.626584 64.236126 12.504905 64.048076 12.463424 C 63.861409 12.415029 63.670594 12.463424 63.475631 12.608609 C 62.308617 13.747969 61.611727 15.226095 61.382195 17.045752 C 61.326887 17.413555 61.483134 17.638938 61.850937 17.721901 C 62.191085 17.785506 62.388814 17.659679 62.444123 17.347185 C 62.673654 15.694836 63.287581 14.372958 64.287286 13.378783 Z M 73.005325 27.138213 C 72.449472 27.685769 72.171546 28.359153 72.171546 29.158364 C 72.171546 29.956193 72.449472 30.633725 73.005325 31.189577 C 73.561178 31.744047 74.227648 32.021974 75.004736 32.021974 C 75.79012 32.021974 76.466269 31.744047 77.035949 31.189577 C 77.605629 30.633725 77.890469 29.967254 77.890469 29.190167 C 77.890469 28.404783 77.605629 27.727251 77.035949 27.158954 C 76.466269 26.589274 75.79012 26.304434 75.004736 26.304434 C 74.227648 26.304434 73.561178 26.58236 73.005325 27.138213 Z M 78.702124 30.60607 C 78.757433 30.523107 78.75052 30.445675 78.681384 30.376539 C 78.612248 30.307403 78.518223 30.279749 78.400692 30.293576 C 78.288692 30.307403 78.219556 30.369625 78.191901 30.481626 C 77.622221 31.932097 76.511899 32.63037 74.85955 32.575061 C 74.74755 32.575061 74.671501 32.616543 74.630019 32.699506 C 74.588538 32.782469 74.588538 32.876494 74.630019 32.980197 C 74.671501 33.07837 74.74755 33.126766 74.85955 33.126766 C 76.74143 33.182074 78.021827 32.341382 78.702124 30.60607 Z M 91.883578 16.494047 L 91.925059 36.240647 C 91.897405 36.385833 91.86975 36.553141 91.842096 36.739808 C 91.814442 36.920945 91.70659 37.261093 91.519923 37.761637 C 91.331873 38.253885 91.095428 38.681145 90.810588 39.042034 C 90.527131 39.39601 90.113698 39.715418 89.571673 40.000258 C 89.036561 40.278185 88.412955 40.388802 87.696707 40.333493 C 87.099372 40.278185 86.572557 40.181394 86.113494 40.04174 C 85.662728 39.896554 85.294925 39.68085 85.010085 39.39601 C 84.725245 39.11117 84.4888 38.851219 84.302133 38.614774 C 84.120997 38.371416 83.971664 38.045094 83.854133 37.63581 C 83.743515 37.219612 83.672997 36.909883 83.645342 36.709389 C 83.617688 36.507512 83.576206 36.208845 83.520898 35.813387 C 83.465589 34.84825 83.437934 32.929037 83.437934 30.054366 C 83.437934 27.179694 83.451762 24.208233 83.479416 21.138598 L 83.520898 16.494047 C 83.576206 16.466393 83.576206 16.303232 83.520898 16.004565 C 83.465589 15.698984 83.50707 15.306292 83.645342 14.826489 C 83.79191 14.341155 83.968898 13.872414 84.176306 13.421647 C 84.39201 12.962585 84.798529 12.556066 85.395864 12.20209 C 85.993198 11.848114 86.717742 11.657299 87.572262 11.629645 C 87.689793 11.60199 87.84604 11.581249 88.041004 11.567422 C 88.24288 11.546682 88.60377 11.588163 89.123672 11.691867 C 89.65187 11.79004 90.106785 11.980855 90.488415 12.265695 C 90.876959 12.549152 91.221256 13.05661 91.519923 13.785302 C 91.81859 14.507081 91.938886 15.409996 91.883578 16.494047 Z M 84.072602 20.326943 C 84.100257 20.694746 84.297985 20.878647 84.665788 20.878647 C 85.041888 20.878647 85.214727 20.694746 85.187073 20.326943 C 85.041888 18.81978 85.069542 17.069258 85.270036 15.076761 C 85.297691 14.855526 85.218876 14.695131 85.030826 14.598341 C 84.84969 14.493254 84.665788 14.493254 84.479121 14.598341 C 84.297985 14.695131 84.190133 14.855526 84.155565 15.076761 C 83.961985 17.069258 83.93433 18.81978 84.072602 20.326943 Z M 84.208109 22.294551 C 84.208109 22.662354 84.39201 22.846255 84.759813 22.846255 C 85.127616 22.846255 85.311518 22.662354 85.311518 22.294551 C 85.311518 21.919834 85.127616 21.731784 84.759813 21.731784 C 84.39201 21.731784 84.208109 21.919834 84.208109 22.294551 Z M 88.217992 39.655961 C 89.100166 39.34485 89.752809 38.840158 90.175921 38.146033 C 90.599032 37.444995 90.75528 36.640253 90.644662 35.730424 C 90.644662 35.500893 90.543724 35.337732 90.34323 35.240942 C 90.148266 35.135855 89.964365 35.135855 89.790142 35.240942 C 89.624216 35.337732 89.541253 35.500893 89.541253 35.730424 C 89.679525 37.180896 89.137499 38.132206 87.915176 38.584355 C 87.714682 38.674231 87.593003 38.82633 87.551521 39.042034 C 87.51004 39.250825 87.558435 39.427813 87.696707 39.572998 C 87.843275 39.712653 88.016115 39.740307 88.217992 39.655961 Z M 105.273821 34.022767 C 106.017724 33.82089 106.606762 33.772495 107.045084 33.876199 C 107.488936 33.972989 107.808344 34.163804 108.003307 34.448644 C 108.203801 34.733484 108.332394 35.032151 108.387703 35.344646 C 108.444394 35.65714 108.458222 35.928153 108.430567 36.157684 L 108.387703 36.54208 C 107.936937 37.619217 107.387998 38.527663 106.742268 39.271566 C 106.103452 40.007172 105.457723 40.542284 104.80508 40.875519 C 104.152437 41.20184 103.476288 41.436902 102.77525 41.583471 C 102.079742 41.721742 101.434013 41.749397 100.838061 41.666434 C 100.240727 41.576557 99.698701 41.482532 99.213367 41.385742 C 98.733564 41.282038 98.351934 41.174186 98.067094 41.062186 L 97.681315 40.843716 C 96.828178 40.475913 96.095338 39.924209 95.484176 39.188603 C 94.873015 38.4447 94.4181 37.646872 94.119433 36.792352 C 93.820766 35.937832 93.57879 35.0363 93.390741 34.084989 C 93.209605 33.133679 93.119728 32.223851 93.119728 31.355503 C 93.119728 30.488539 93.133555 29.707303 93.161209 29.011796 C 93.188864 28.310758 93.230345 27.749374 93.287037 27.32488 L 93.422543 26.690212 C 94.241112 23.328824 96.074597 21.391636 98.921614 20.878647 C 99.94206 20.711338 100.937617 20.812277 101.909668 21.18008 C 102.959151 21.575537 103.830264 22.266896 104.524388 23.252774 C 105.225426 24.231739 105.555896 25.311642 105.514414 26.492483 C 105.47155 27.671942 104.979302 28.648141 104.034906 29.418315 C 103.896634 29.530315 103.455547 29.755698 102.711644 30.095847 C 101.976038 30.435996 101.507297 30.835601 101.30542 31.293281 C 101.139494 31.744047 101.13258 32.212789 101.284679 32.699506 C 101.445075 33.18484 101.723001 33.556791 102.118458 33.813977 C 102.860978 34.349089 103.913227 34.418224 105.273821 34.022767 Z M 93.891285 27.929128 C 93.891285 28.296931 94.068273 28.480832 94.422248 28.480832 C 94.776224 28.480832 94.953212 28.296931 94.953212 27.929128 C 94.953212 27.554411 94.776224 27.366361 94.422248 27.366361 C 94.068273 27.366361 93.891285 27.554411 93.891285 27.929128 Z M 95.504917 26.304434 C 95.87272 24.909271 96.814351 23.884677 98.327045 23.232034 C 98.522008 23.114503 98.618798 22.965169 98.618798 22.784033 C 98.618798 22.597366 98.524774 22.441119 98.338107 22.315291 C 98.15697 22.183933 97.966155 22.163192 97.765661 22.253069 C 96.001313 23.043984 94.893755 24.293961 94.442989 26.003001 C 94.38768 26.23115 94.436076 26.419199 94.588175 26.564385 C 94.74857 26.704039 94.925558 26.752434 95.119138 26.710953 C 95.321015 26.662558 95.449608 26.527051 95.504917 26.304434 Z M 97.858303 25.877174 C 97.858303 26.419199 98.056032 26.887941 98.452872 27.283398 C 98.84833 27.678856 99.323985 27.876584 99.879837 27.876584 C 100.434307 27.876584 100.903049 27.678856 101.284679 27.283398 C 101.674606 26.887941 101.868186 26.412286 101.868186 25.856433 C 101.868186 25.30058 101.674606 24.833221 101.284679 24.450208 C 100.903049 24.061665 100.427394 23.868084 99.859097 23.868084 C 99.489911 23.868084 99.156676 23.953813 98.858009 24.128035 C 98.559342 24.293961 98.317366 24.534554 98.129316 24.847049 C 97.949563 25.159543 97.858303 25.502457 97.858303 25.877174 Z M 107.408738 36.875315 C 107.46543 36.65408 107.412887 36.472944 107.252491 36.334672 C 107.100392 36.188104 106.923404 36.136943 106.721527 36.178425 C 106.527947 36.219906 106.40212 36.355413 106.346811 36.583561 C 106.034316 37.77823 105.264142 38.701886 104.034906 39.354529 C 103.839943 39.465146 103.743152 39.61448 103.743152 39.802529 C 103.743152 39.990579 103.833029 40.149592 104.014165 40.28095 C 104.200832 40.406777 104.395795 40.409543 104.597672 40.292012 C 106.103452 39.528751 107.040935 38.389391 107.408738 36.875315 Z M 107.408738 36.875315 " stroke="#000000" stroke-width="0.586667" stroke-opacity="1" stroke-miterlimit="4"/><g fill="#b9e5ff" fill-opacity="1"><g transform="translate(59.912464, 121.598592)"><g><path d="M 38.8125 -45.5625 C 41.300781 -45.632812 43.566406 -45.046875 45.609375 -43.796875 C 47.660156 -42.554688 49.304688 -40.910156 50.546875 -38.859375 C 51.796875 -36.816406 52.757812 -34.566406 53.4375 -32.109375 C 54.125 -29.660156 54.40625 -27.191406 54.28125 -24.703125 C 54.164062 -22.210938 53.664062 -20.046875 52.78125 -18.203125 C 52.625 -17.710938 52.34375 -17.085938 51.9375 -16.328125 C 51.539062 -15.566406 50.535156 -14.238281 48.921875 -12.34375 C 47.316406 -10.457031 45.53125 -8.851562 43.5625 -7.53125 C 41.59375 -6.207031 38.84375 -5.125 35.3125 -4.28125 C 31.78125 -3.4375 27.960938 -3.253906 23.859375 -3.734375 C 23.617188 -3.734375 23.296875 -3.734375 22.890625 -3.734375 C 22.492188 -3.734375 21.691406 -3.832031 20.484375 -4.03125 C 19.285156 -4.238281 18.101562 -4.539062 16.9375 -4.9375 C 15.769531 -5.34375 14.460938 -5.984375 13.015625 -6.859375 C 11.566406 -7.742188 10.28125 -8.828125 9.15625 -10.109375 C 8.03125 -11.398438 6.984375 -13.070312 6.015625 -15.125 C 5.054688 -17.175781 4.335938 -19.523438 3.859375 -22.171875 C 1.523438 -37.515625 1.082031 -53.101562 2.53125 -68.9375 C 2.9375 -73.832031 3.820312 -77.566406 5.1875 -80.140625 C 7.75 -84.878906 12.25 -87.648438 18.6875 -88.453125 C 19.082031 -88.453125 19.617188 -88.492188 20.296875 -88.578125 C 20.984375 -88.660156 22.269531 -88.679688 24.15625 -88.640625 C 26.050781 -88.597656 27.820312 -88.457031 29.46875 -88.21875 C 31.113281 -87.976562 32.878906 -87.492188 34.765625 -86.765625 C 36.648438 -86.046875 38.15625 -85.082031 39.28125 -83.875 C 39.363281 -83.71875 39.523438 -83.535156 39.765625 -83.328125 C 40.003906 -83.128906 40.445312 -82.648438 41.09375 -81.890625 C 41.738281 -81.128906 42.28125 -80.304688 42.71875 -79.421875 C 43.164062 -78.535156 43.726562 -77.390625 44.40625 -75.984375 C 45.09375 -74.578125 45.554688 -73.109375 45.796875 -71.578125 C 46.035156 -70.054688 46.234375 -68.269531 46.390625 -66.21875 C 46.554688 -64.175781 46.359375 -62.066406 45.796875 -59.890625 C 45.796875 -59.253906 45.691406 -58.410156 45.484375 -57.359375 C 45.285156 -56.316406 44.601562 -54.507812 43.4375 -51.9375 C 42.28125 -49.363281 40.738281 -47.238281 38.8125 -45.5625 Z M 8.1875 -53.140625 C 8.59375 -53.546875 8.773438 -54.03125 8.734375 -54.59375 C 8.691406 -55.15625 8.429688 -55.640625 7.953125 -56.046875 C 7.796875 -56.285156 7.796875 -56.804688 7.953125 -57.609375 C 8.109375 -58.171875 8.023438 -58.691406 7.703125 -59.171875 C 7.390625 -59.648438 6.953125 -59.972656 6.390625 -60.140625 C 5.984375 -60.210938 5.617188 -60.207031 5.296875 -60.125 C 4.984375 -60.050781 4.6875 -59.875 4.40625 -59.59375 C 4.125 -59.3125 3.941406 -58.972656 3.859375 -58.578125 C 3.296875 -56.078125 3.773438 -54.1875 5.296875 -52.90625 C 5.703125 -52.5 6.144531 -52.296875 6.625 -52.296875 C 7.269531 -52.296875 7.789062 -52.578125 8.1875 -53.140625 Z M 14.578125 -80.625 C 14.984375 -81.101562 15.144531 -81.625 15.0625 -82.1875 C 14.976562 -82.75 14.695312 -83.210938 14.21875 -83.578125 C 13.738281 -83.941406 13.21875 -84.082031 12.65625 -84 C 12.09375 -83.914062 11.609375 -83.632812 11.203125 -83.15625 C 10.804688 -82.59375 10.304688 -81.804688 9.703125 -80.796875 C 9.097656 -79.796875 8.234375 -77.847656 7.109375 -74.953125 C 5.984375 -72.066406 5.222656 -69.132812 4.828125 -66.15625 C 4.828125 -65.59375 4.984375 -65.070312 5.296875 -64.59375 C 5.617188 -64.113281 6.101562 -63.832031 6.75 -63.75 C 6.832031 -63.75 6.910156 -63.75 6.984375 -63.75 C 7.472656 -63.75 7.914062 -63.929688 8.3125 -64.296875 C 8.71875 -64.660156 8.957031 -65.125 9.03125 -65.6875 C 9.351562 -68.25 10.015625 -70.835938 11.015625 -73.453125 C 12.023438 -76.066406 12.789062 -77.8125 13.3125 -78.6875 C 13.832031 -79.570312 14.253906 -80.21875 14.578125 -80.625 Z M 22.109375 -61.703125 C 23.191406 -60.660156 24.476562 -60.140625 25.96875 -60.140625 C 27.457031 -60.140625 28.742188 -60.660156 29.828125 -61.703125 C 30.910156 -62.742188 31.453125 -64.03125 31.453125 -65.5625 C 31.453125 -66.519531 31.210938 -67.421875 30.734375 -68.265625 C 30.253906 -69.109375 29.59375 -69.789062 28.75 -70.3125 C 27.90625 -70.84375 26.957031 -71.109375 25.90625 -71.109375 C 24.457031 -71.109375 23.191406 -70.5625 22.109375 -69.46875 C 21.023438 -68.382812 20.484375 -67.078125 20.484375 -65.546875 C 20.484375 -64.023438 21.023438 -62.742188 22.109375 -61.703125 Z M 38.015625 -30.609375 C 36.929688 -31.648438 35.644531 -32.171875 34.15625 -32.171875 C 32.675781 -32.171875 31.394531 -31.648438 30.3125 -30.609375 C 29.226562 -29.566406 28.6875 -28.28125 28.6875 -26.75 C 28.6875 -25.226562 29.226562 -23.921875 30.3125 -22.828125 C 31.394531 -21.742188 32.675781 -21.203125 34.15625 -21.203125 C 35.644531 -21.203125 36.929688 -21.742188 38.015625 -22.828125 C 39.109375 -23.921875 39.65625 -25.226562 39.65625 -26.75 C 39.65625 -28.28125 39.109375 -29.566406 38.015625 -30.609375 Z M 43.625 -23.625 C 43.707031 -24.425781 43.363281 -24.863281 42.59375 -24.9375 C 41.832031 -25.019531 41.414062 -24.660156 41.34375 -23.859375 C 41.019531 -21.847656 40.09375 -20.320312 38.5625 -19.28125 C 36.875 -18.070312 34.546875 -17.75 31.578125 -18.3125 C 30.847656 -18.476562 30.40625 -18.175781 30.25 -17.40625 C 30.09375 -16.644531 30.375 -16.1875 31.09375 -16.03125 C 32.300781 -15.789062 33.382812 -15.671875 34.34375 -15.671875 C 36.59375 -15.671875 38.484375 -16.234375 40.015625 -17.359375 C 42.097656 -18.878906 43.300781 -20.96875 43.625 -23.625 Z M 43.625 -23.625 "/></g></g></g><g fill="#b9e5ff" fill-opacity="1"><g transform="translate(114.381131, 121.598592)"><g><path d="M 47.125 -29.171875 C 47.363281 -21.773438 46.921875 -15.546875 45.796875 -10.484375 C 44.828125 -6.460938 42.9375 -4.09375 40.125 -3.375 C 39.882812 -3.289062 39.5625 -3.226562 39.15625 -3.1875 C 38.757812 -3.15625 38.078125 -3.175781 37.109375 -3.25 C 36.148438 -3.332031 35.289062 -3.550781 34.53125 -3.90625 C 33.769531 -4.269531 33.003906 -4.972656 32.234375 -6.015625 C 31.472656 -7.066406 30.929688 -8.394531 30.609375 -10 C 30.773438 -9.351562 29.851562 -7.910156 27.84375 -5.671875 C 24.945312 -2.535156 21.648438 -1.046875 17.953125 -1.203125 C 12.734375 -1.441406 9.078125 -3.25 6.984375 -6.625 C 4.898438 -10.164062 3.515625 -14.003906 2.828125 -18.140625 C 2.148438 -22.273438 1.726562 -27.15625 1.5625 -32.78125 C 1.488281 -37.757812 1.648438 -42.941406 2.046875 -48.328125 C 2.046875 -48.410156 2.066406 -48.734375 2.109375 -49.296875 C 2.148438 -49.859375 2.171875 -50.195312 2.171875 -50.3125 C 2.171875 -50.4375 2.191406 -50.757812 2.234375 -51.28125 C 2.273438 -51.800781 2.3125 -52.140625 2.34375 -52.296875 C 2.382812 -52.460938 2.445312 -52.765625 2.53125 -53.203125 C 2.613281 -53.648438 2.691406 -53.992188 2.765625 -54.234375 C 2.847656 -54.472656 2.945312 -54.769531 3.0625 -55.125 C 3.1875 -55.488281 3.328125 -55.789062 3.484375 -56.03125 C 3.648438 -56.28125 3.8125 -56.546875 3.96875 -56.828125 C 4.132812 -57.109375 4.335938 -57.367188 4.578125 -57.609375 C 5.867188 -58.972656 7.457031 -59.914062 9.34375 -60.4375 C 11.226562 -60.957031 13.054688 -60.816406 14.828125 -60.015625 C 16.191406 -59.296875 17.175781 -58.09375 17.78125 -56.40625 C 18.382812 -54.71875 18.625 -53.03125 18.5 -51.34375 C 18.375 -49.65625 18.273438 -48.007812 18.203125 -46.40625 C 18.203125 -46.082031 18.21875 -45.640625 18.25 -45.078125 C 18.289062 -44.515625 18.453125 -43.53125 18.734375 -42.125 C 19.015625 -40.71875 19.335938 -39.488281 19.703125 -38.4375 C 20.066406 -37.394531 20.671875 -36.472656 21.515625 -35.671875 C 22.359375 -34.867188 23.300781 -34.507812 24.34375 -34.59375 C 25.550781 -34.664062 26.578125 -34.984375 27.421875 -35.546875 C 28.265625 -36.109375 28.882812 -36.929688 29.28125 -38.015625 C 29.6875 -39.109375 29.96875 -40.078125 30.125 -40.921875 C 30.289062 -41.765625 30.429688 -43.007812 30.546875 -44.65625 C 30.671875 -46.300781 30.8125 -47.484375 30.96875 -48.203125 C 31.207031 -50.296875 31.96875 -52.082031 33.25 -53.5625 C 34.539062 -55.050781 36.234375 -55.835938 38.328125 -55.921875 C 40.492188 -56.003906 42.238281 -55.28125 43.5625 -53.75 C 44.894531 -52.21875 45.71875 -50.289062 46.03125 -47.96875 C 46.28125 -46.519531 46.460938 -44.929688 46.578125 -43.203125 C 46.703125 -41.472656 46.78125 -39.984375 46.8125 -38.734375 C 46.851562 -37.492188 46.914062 -35.828125 47 -33.734375 C 47.082031 -31.648438 47.125 -30.128906 47.125 -29.171875 Z M 3.859375 -41.578125 C 3.859375 -40.535156 4.359375 -40.015625 5.359375 -40.015625 C 6.367188 -40.015625 6.875 -40.535156 6.875 -41.578125 C 6.875 -42.617188 6.367188 -43.140625 5.359375 -43.140625 C 4.359375 -43.140625 3.859375 -42.617188 3.859375 -41.578125 Z M 9.875 -56.40625 C 10.363281 -56.800781 10.523438 -57.28125 10.359375 -57.84375 C 10.203125 -58.40625 9.84375 -58.742188 9.28125 -58.859375 C 8.71875 -58.984375 8.195312 -58.890625 7.71875 -58.578125 C 4.738281 -56.003906 3.410156 -52.144531 3.734375 -47 C 3.734375 -46.351562 4.015625 -45.910156 4.578125 -45.671875 C 5.140625 -45.429688 5.660156 -45.429688 6.140625 -45.671875 C 6.628906 -45.910156 6.875 -46.351562 6.875 -47 C 6.632812 -51.175781 7.632812 -54.3125 9.875 -56.40625 Z M 39.53125 -4.453125 C 43.46875 -5.984375 45.070312 -9.441406 44.34375 -14.828125 C 44.1875 -15.953125 43.546875 -16.429688 42.421875 -16.265625 C 41.617188 -16.109375 41.21875 -15.628906 41.21875 -14.828125 C 41.78125 -10.804688 40.9375 -8.351562 38.6875 -7.46875 C 38.125 -7.226562 37.78125 -6.804688 37.65625 -6.203125 C 37.539062 -5.597656 37.679688 -5.09375 38.078125 -4.6875 C 38.484375 -4.289062 38.96875 -4.210938 39.53125 -4.453125 Z M 39.53125 -4.453125 "/></g></g></g><g fill="#b9e5ff" fill-opacity="1"><g transform="translate(163.18603, 121.598592)"><g><path d="M 55.671875 -56.28125 C 57.679688 -54.75 59.390625 -52.71875 60.796875 -50.1875 C 62.203125 -47.664062 63.1875 -45 63.75 -42.1875 C 64.3125 -39.375 64.550781 -36.519531 64.46875 -33.625 C 64.394531 -30.726562 63.957031 -28.078125 63.15625 -25.671875 C 61.382812 -19.890625 58.25 -15.3125 53.75 -11.9375 C 50.695312 -9.6875 47.742188 -8.117188 44.890625 -7.234375 C 42.035156 -6.347656 39.664062 -6.082031 37.78125 -6.4375 C 35.894531 -6.800781 34.226562 -7.304688 32.78125 -7.953125 C 31.332031 -8.597656 30.285156 -9.320312 29.640625 -10.125 L 28.5625 -11.203125 C 27.03125 -8.554688 25.34375 -6.550781 23.5 -5.1875 C 21.65625 -3.820312 19.96875 -3.140625 18.4375 -3.140625 C 16.914062 -3.140625 15.46875 -3.316406 14.09375 -3.671875 C 12.726562 -4.035156 11.6875 -4.5 10.96875 -5.0625 L 9.765625 -5.90625 C 7.671875 -7.59375 5.976562 -10.828125 4.6875 -15.609375 C 3.40625 -20.390625 2.601562 -25.59375 2.28125 -31.21875 C 1.96875 -36.84375 1.789062 -42.363281 1.75 -47.78125 C 1.707031 -53.207031 1.765625 -57.726562 1.921875 -61.34375 L 2.296875 -66.640625 C 2.859375 -70.742188 3.757812 -74.179688 5 -76.953125 C 6.25 -79.722656 7.554688 -81.648438 8.921875 -82.734375 C 10.285156 -83.816406 11.609375 -84.578125 12.890625 -85.015625 C 14.179688 -85.460938 15.226562 -85.644531 16.03125 -85.5625 L 17.234375 -85.328125 C 19.160156 -85.410156 20.765625 -84.242188 22.046875 -81.828125 C 23.335938 -79.421875 24.203125 -76.445312 24.640625 -72.90625 C 25.085938 -69.375 25.429688 -65.859375 25.671875 -62.359375 C 25.910156 -58.867188 25.988281 -55.878906 25.90625 -53.390625 L 25.796875 -49.65625 C 29.242188 -54.789062 33.816406 -58.082031 39.515625 -59.53125 C 45.222656 -60.976562 50.609375 -59.894531 55.671875 -56.28125 Z M 4.453125 -65.796875 C 4.453125 -64.753906 4.972656 -64.234375 6.015625 -64.234375 C 7.066406 -64.234375 7.59375 -64.753906 7.59375 -65.796875 C 7.59375 -66.847656 7.066406 -67.375 6.015625 -67.375 C 4.972656 -67.375 4.453125 -66.847656 4.453125 -65.796875 Z M 13.25 -80.859375 C 13.65625 -81.347656 13.773438 -81.875 13.609375 -82.4375 C 13.453125 -83 13.113281 -83.335938 12.59375 -83.453125 C 12.070312 -83.578125 11.53125 -83.4375 10.96875 -83.03125 C 7.675781 -79.820312 5.707031 -75.644531 5.0625 -70.5 C 4.90625 -69.457031 5.347656 -68.816406 6.390625 -68.578125 C 7.347656 -68.410156 7.910156 -68.769531 8.078125 -69.65625 C 8.710938 -74.3125 10.4375 -78.046875 13.25 -80.859375 Z M 37.890625 -42 C 36.328125 -40.4375 35.546875 -38.53125 35.546875 -36.28125 C 35.546875 -34.03125 36.328125 -32.117188 37.890625 -30.546875 C 39.460938 -28.984375 41.351562 -28.203125 43.5625 -28.203125 C 45.769531 -28.203125 47.675781 -28.984375 49.28125 -30.546875 C 50.894531 -32.117188 51.703125 -34.007812 51.703125 -36.21875 C 51.703125 -38.425781 50.894531 -40.332031 49.28125 -41.9375 C 47.675781 -43.539062 45.769531 -44.34375 43.5625 -44.34375 C 41.351562 -44.34375 39.460938 -43.5625 37.890625 -42 Z M 53.984375 -32.171875 C 54.148438 -32.421875 54.128906 -32.644531 53.921875 -32.84375 C 53.722656 -33.039062 53.460938 -33.117188 53.140625 -33.078125 C 52.828125 -33.035156 52.628906 -32.859375 52.546875 -32.546875 C 50.941406 -28.441406 47.804688 -26.472656 43.140625 -26.640625 C 42.816406 -26.640625 42.59375 -26.515625 42.46875 -26.265625 C 42.351562 -26.023438 42.351562 -25.765625 42.46875 -25.484375 C 42.59375 -25.203125 42.816406 -25.0625 43.140625 -25.0625 C 48.441406 -24.90625 52.054688 -27.273438 53.984375 -32.171875 Z M 53.984375 -32.171875 "/></g></g></g><g fill="#b9e5ff" fill-opacity="1"><g transform="translate(228.259198, 121.598592)"><g><path d="M 55.671875 -56.28125 C 57.679688 -54.75 59.390625 -52.71875 60.796875 -50.1875 C 62.203125 -47.664062 63.1875 -45 63.75 -42.1875 C 64.3125 -39.375 64.550781 -36.519531 64.46875 -33.625 C 64.394531 -30.726562 63.957031 -28.078125 63.15625 -25.671875 C 61.382812 -19.890625 58.25 -15.3125 53.75 -11.9375 C 50.695312 -9.6875 47.742188 -8.117188 44.890625 -7.234375 C 42.035156 -6.347656 39.664062 -6.082031 37.78125 -6.4375 C 35.894531 -6.800781 34.226562 -7.304688 32.78125 -7.953125 C 31.332031 -8.597656 30.285156 -9.320312 29.640625 -10.125 L 28.5625 -11.203125 C 27.03125 -8.554688 25.34375 -6.550781 23.5 -5.1875 C 21.65625 -3.820312 19.96875 -3.140625 18.4375 -3.140625 C 16.914062 -3.140625 15.46875 -3.316406 14.09375 -3.671875 C 12.726562 -4.035156 11.6875 -4.5 10.96875 -5.0625 L 9.765625 -5.90625 C 7.671875 -7.59375 5.976562 -10.828125 4.6875 -15.609375 C 3.40625 -20.390625 2.601562 -25.59375 2.28125 -31.21875 C 1.96875 -36.84375 1.789062 -42.363281 1.75 -47.78125 C 1.707031 -53.207031 1.765625 -57.726562 1.921875 -61.34375 L 2.296875 -66.640625 C 2.859375 -70.742188 3.757812 -74.179688 5 -76.953125 C 6.25 -79.722656 7.554688 -81.648438 8.921875 -82.734375 C 10.285156 -83.816406 11.609375 -84.578125 12.890625 -85.015625 C 14.179688 -85.460938 15.226562 -85.644531 16.03125 -85.5625 L 17.234375 -85.328125 C 19.160156 -85.410156 20.765625 -84.242188 22.046875 -81.828125 C 23.335938 -79.421875 24.203125 -76.445312 24.640625 -72.90625 C 25.085938 -69.375 25.429688 -65.859375 25.671875 -62.359375 C 25.910156 -58.867188 25.988281 -55.878906 25.90625 -53.390625 L 25.796875 -49.65625 C 29.242188 -54.789062 33.816406 -58.082031 39.515625 -59.53125 C 45.222656 -60.976562 50.609375 -59.894531 55.671875 -56.28125 Z M 4.453125 -65.796875 C 4.453125 -64.753906 4.972656 -64.234375 6.015625 -64.234375 C 7.066406 -64.234375 7.59375 -64.753906 7.59375 -65.796875 C 7.59375 -66.847656 7.066406 -67.375 6.015625 -67.375 C 4.972656 -67.375 4.453125 -66.847656 4.453125 -65.796875 Z M 13.25 -80.859375 C 13.65625 -81.347656 13.773438 -81.875 13.609375 -82.4375 C 13.453125 -83 13.113281 -83.335938 12.59375 -83.453125 C 12.070312 -83.578125 11.53125 -83.4375 10.96875 -83.03125 C 7.675781 -79.820312 5.707031 -75.644531 5.0625 -70.5 C 4.90625 -69.457031 5.347656 -68.816406 6.390625 -68.578125 C 7.347656 -68.410156 7.910156 -68.769531 8.078125 -69.65625 C 8.710938 -74.3125 10.4375 -78.046875 13.25 -80.859375 Z M 37.890625 -42 C 36.328125 -40.4375 35.546875 -38.53125 35.546875 -36.28125 C 35.546875 -34.03125 36.328125 -32.117188 37.890625 -30.546875 C 39.460938 -28.984375 41.351562 -28.203125 43.5625 -28.203125 C 45.769531 -28.203125 47.675781 -28.984375 49.28125 -30.546875 C 50.894531 -32.117188 51.703125 -34.007812 51.703125 -36.21875 C 51.703125 -38.425781 50.894531 -40.332031 49.28125 -41.9375 C 47.675781 -43.539062 45.769531 -44.34375 43.5625 -44.34375 C 41.351562 -44.34375 39.460938 -43.5625 37.890625 -42 Z M 53.984375 -32.171875 C 54.148438 -32.421875 54.128906 -32.644531 53.921875 -32.84375 C 53.722656 -33.039062 53.460938 -33.117188 53.140625 -33.078125 C 52.828125 -33.035156 52.628906 -32.859375 52.546875 -32.546875 C 50.941406 -28.441406 47.804688 -26.472656 43.140625 -26.640625 C 42.816406 -26.640625 42.59375 -26.515625 42.46875 -26.265625 C 42.351562 -26.023438 42.351562 -25.765625 42.46875 -25.484375 C 42.59375 -25.203125 42.816406 -25.0625 43.140625 -25.0625 C 48.441406 -24.90625 52.054688 -27.273438 53.984375 -32.171875 Z M 53.984375 -32.171875 "/></g></g></g><g fill="#b9e5ff" fill-opacity="1"><g transform="translate(293.332367, 121.598592)"><g><path d="M 26.15625 -72.0625 L 26.265625 -16.265625 C 26.191406 -15.867188 26.113281 -15.40625 26.03125 -14.875 C 25.945312 -14.351562 25.644531 -13.390625 25.125 -11.984375 C 24.601562 -10.578125 23.941406 -9.375 23.140625 -8.375 C 22.335938 -7.375 21.171875 -6.46875 19.640625 -5.65625 C 18.117188 -4.851562 16.351562 -4.535156 14.34375 -4.703125 C 12.65625 -4.859375 11.164062 -5.132812 9.875 -5.53125 C 8.59375 -5.9375 7.550781 -6.539062 6.75 -7.34375 C 5.945312 -8.15625 5.285156 -8.898438 4.765625 -9.578125 C 4.242188 -10.265625 3.820312 -11.1875 3.5 -12.34375 C 3.175781 -13.507812 2.972656 -14.375 2.890625 -14.9375 C 2.804688 -15.5 2.6875 -16.34375 2.53125 -17.46875 C 2.375 -20.207031 2.296875 -25.632812 2.296875 -33.75 C 2.296875 -41.863281 2.332031 -50.257812 2.40625 -58.9375 L 2.53125 -72.0625 C 2.6875 -72.144531 2.6875 -72.609375 2.53125 -73.453125 C 2.375 -74.296875 2.492188 -75.398438 2.890625 -76.765625 C 3.296875 -78.128906 3.796875 -79.453125 4.390625 -80.734375 C 4.992188 -82.023438 6.140625 -83.171875 7.828125 -84.171875 C 9.515625 -85.179688 11.566406 -85.726562 13.984375 -85.8125 C 14.304688 -85.882812 14.75 -85.941406 15.3125 -85.984375 C 15.875 -86.023438 16.894531 -85.90625 18.375 -85.625 C 19.863281 -85.34375 21.148438 -84.800781 22.234375 -84 C 23.316406 -83.195312 24.28125 -81.769531 25.125 -79.71875 C 25.96875 -77.664062 26.3125 -75.113281 26.15625 -72.0625 Z M 4.09375 -61.21875 C 4.175781 -60.175781 4.738281 -59.65625 5.78125 -59.65625 C 6.820312 -59.65625 7.304688 -60.175781 7.234375 -61.21875 C 6.828125 -65.476562 6.90625 -70.421875 7.46875 -76.046875 C 7.550781 -76.691406 7.332031 -77.15625 6.8125 -77.4375 C 6.289062 -77.71875 5.765625 -77.71875 5.234375 -77.4375 C 4.710938 -77.15625 4.414062 -76.691406 4.34375 -76.046875 C 3.78125 -70.421875 3.695312 -65.476562 4.09375 -61.21875 Z M 4.453125 -55.671875 C 4.453125 -54.628906 4.972656 -54.109375 6.015625 -54.109375 C 7.066406 -54.109375 7.59375 -54.628906 7.59375 -55.671875 C 7.59375 -56.722656 7.066406 -57.25 6.015625 -57.25 C 4.972656 -57.25 4.453125 -56.722656 4.453125 -55.671875 Z M 15.78125 -6.625 C 18.28125 -7.507812 20.128906 -8.9375 21.328125 -10.90625 C 22.535156 -12.875 22.976562 -15.144531 22.65625 -17.71875 C 22.65625 -18.363281 22.375 -18.828125 21.8125 -19.109375 C 21.25 -19.390625 20.726562 -19.390625 20.25 -19.109375 C 19.769531 -18.828125 19.53125 -18.363281 19.53125 -17.71875 C 19.925781 -13.613281 18.394531 -10.921875 14.9375 -9.640625 C 14.375 -9.398438 14.03125 -8.976562 13.90625 -8.375 C 13.789062 -7.769531 13.929688 -7.265625 14.328125 -6.859375 C 14.734375 -6.460938 15.21875 -6.382812 15.78125 -6.625 Z M 15.78125 -6.625 "/></g></g></g><g fill="#b9e5ff" fill-opacity="1"><g transform="translate(321.892258, 121.598592)"><g><path d="M 35.4375 -22.53125 C 37.519531 -23.09375 39.179688 -23.234375 40.421875 -22.953125 C 41.671875 -22.671875 42.578125 -22.128906 43.140625 -21.328125 C 43.703125 -20.523438 44.0625 -19.679688 44.21875 -18.796875 C 44.382812 -17.910156 44.425781 -17.148438 44.34375 -16.515625 L 44.234375 -15.421875 C 42.941406 -12.367188 41.390625 -9.796875 39.578125 -7.703125 C 37.773438 -5.617188 35.945312 -4.113281 34.09375 -3.1875 C 32.25 -2.269531 30.34375 -1.609375 28.375 -1.203125 C 26.40625 -0.804688 24.578125 -0.726562 22.890625 -0.96875 C 21.203125 -1.207031 19.675781 -1.46875 18.3125 -1.75 C 16.945312 -2.03125 15.863281 -2.332031 15.0625 -2.65625 L 13.984375 -3.25 C 11.566406 -4.300781 9.492188 -5.867188 7.765625 -7.953125 C 6.046875 -10.046875 4.765625 -12.296875 3.921875 -14.703125 C 3.078125 -17.109375 2.390625 -19.65625 1.859375 -22.34375 C 1.335938 -25.039062 1.078125 -27.613281 1.078125 -30.0625 C 1.078125 -32.519531 1.117188 -34.734375 1.203125 -36.703125 C 1.285156 -38.671875 1.40625 -40.253906 1.5625 -41.453125 L 1.921875 -43.265625 C 4.253906 -52.742188 9.4375 -58.207031 17.46875 -59.65625 C 20.363281 -60.132812 23.175781 -59.851562 25.90625 -58.8125 C 28.882812 -57.6875 31.359375 -55.738281 33.328125 -52.96875 C 35.296875 -50.195312 36.21875 -47.144531 36.09375 -43.8125 C 35.96875 -40.476562 34.582031 -37.722656 31.9375 -35.546875 C 31.53125 -35.222656 30.28125 -34.578125 28.1875 -33.609375 C 26.101562 -32.648438 24.78125 -31.53125 24.21875 -30.25 C 23.738281 -28.96875 23.71875 -27.640625 24.15625 -26.265625 C 24.601562 -24.898438 25.390625 -23.859375 26.515625 -23.140625 C 28.597656 -21.609375 31.570312 -21.40625 35.4375 -22.53125 Z M 3.25 -39.765625 C 3.25 -38.722656 3.75 -38.203125 4.75 -38.203125 C 5.757812 -38.203125 6.265625 -38.722656 6.265625 -39.765625 C 6.265625 -40.816406 5.757812 -41.34375 4.75 -41.34375 C 3.75 -41.34375 3.25 -40.816406 3.25 -39.765625 Z M 7.828125 -44.34375 C 8.878906 -48.28125 11.53125 -51.175781 15.78125 -53.03125 C 16.34375 -53.351562 16.625 -53.773438 16.625 -54.296875 C 16.625 -54.816406 16.363281 -55.253906 15.84375 -55.609375 C 15.320312 -55.972656 14.78125 -56.035156 14.21875 -55.796875 C 9.238281 -53.546875 6.109375 -50.007812 4.828125 -45.1875 C 4.660156 -44.550781 4.796875 -44.03125 5.234375 -43.625 C 5.679688 -43.226562 6.1875 -43.085938 6.75 -43.203125 C 7.3125 -43.328125 7.671875 -43.707031 7.828125 -44.34375 Z M 14.46875 -45.5625 C 14.46875 -44.03125 15.03125 -42.703125 16.15625 -41.578125 C 17.28125 -40.453125 18.625 -39.890625 20.1875 -39.890625 C 21.75 -39.890625 23.070312 -40.453125 24.15625 -41.578125 C 25.25 -42.703125 25.796875 -44.046875 25.796875 -45.609375 C 25.796875 -47.179688 25.25 -48.507812 24.15625 -49.59375 C 23.070312 -50.675781 21.726562 -51.21875 20.125 -51.21875 C 19.082031 -51.21875 18.140625 -50.972656 17.296875 -50.484375 C 16.453125 -50.003906 15.769531 -49.320312 15.25 -48.4375 C 14.726562 -47.5625 14.46875 -46.601562 14.46875 -45.5625 Z M 41.453125 -14.46875 C 41.617188 -15.101562 41.476562 -15.617188 41.03125 -16.015625 C 40.59375 -16.421875 40.09375 -16.5625 39.53125 -16.4375 C 38.96875 -16.320312 38.601562 -15.945312 38.4375 -15.3125 C 37.5625 -11.9375 35.394531 -9.320312 31.9375 -7.46875 C 31.375 -7.144531 31.09375 -6.722656 31.09375 -6.203125 C 31.09375 -5.679688 31.351562 -5.238281 31.875 -4.875 C 32.394531 -4.519531 32.9375 -4.503906 33.5 -4.828125 C 37.757812 -6.992188 40.410156 -10.207031 41.453125 -14.46875 Z M 41.453125 -14.46875 "/></g></g></g><g clip-path="url(#b1bc126aaf)"><g clip-path="url(#19e7873f63)"><path fill="#ffffff" d="M 12.839844 14.769531 L 53.882812 14.769531 L 53.882812 55.8125 L 12.839844 55.8125 Z M 12.839844 14.769531 " fill-opacity="1" fill-rule="nonzero"/></g></g><g clip-path="url(#a3cf6b8819)"><g clip-path="url(#9f4d1ef97a)"><path fill="#ffffff" d="M 15.730469 16.328125 L 55.214844 16.328125 L 55.214844 56.585938 L 15.730469 56.585938 Z M 15.730469 16.328125 " fill-opacity="1" fill-rule="nonzero"/></g></g><g clip-path="url(#1678ed6842)"><g clip-path="url(#8dbfa637ae)"><g clip-path="url(#3ec4ace7bc)"><g clip-path="url(#e64a3503bb)"><g clip-path="url(#94f8ad341b)"><path fill="#000000" d="M 13.253906 38.136719 C 14.324219 44.417969 18.585938 50.15625 24.53125 53.308594 C 26.957031 54.59375 29.65625 55.445312 32.320312 55.769531 C 35.199219 56.121094 38.609375 55.804688 41.285156 54.945312 C 49.152344 52.421875 54.460938 45.726562 54.976562 37.6875 C 55.078125 36.171875 54.875 33.679688 54.53125 32.21875 C 53.46875 27.738281 50.964844 23.71875 47.359375 20.722656 C 44.128906 18.019531 40.152344 16.277344 36.003906 15.734375 C 34.164062 15.492188 33.410156 15.488281 31.152344 15.683594 C 29.195312 15.863281 28.945312 15.894531 27.777344 16.210938 C 18.964844 18.601562 13.1875 25.9375 13.007812 34.96875 C 12.984375 36.15625 13.042969 36.863281 13.253906 38.136719 Z M 12.035156 34.15625 C 12.367188 24.195312 19.65625 16.238281 29.875 14.695312 C 39.152344 13.296875 48.652344 17.910156 53.25 26.046875 C 56.253906 31.367188 56.878906 37.632812 54.957031 43.167969 C 53.730469 46.695312 51.402344 49.976562 48.457031 52.332031 C 43.988281 55.886719 38.132812 57.476562 32.058594 56.777344 C 30.429688 56.585938 28.226562 56.035156 26.570312 55.390625 C 19.46875 52.65625 14.445312 47.003906 12.65625 39.75 C 12.304688 38.316406 11.992188 35.496094 12.035156 34.15625 " fill-opacity="1" fill-rule="evenodd"/></g></g></g></g></g><g clip-path="url(#4c2c93250e)"><g clip-path="url(#1371055969)"><g clip-path="url(#bb464d33ed)"><path fill="#000000" d="M 14.75 34.835938 C 14.824219 34.605469 15.101562 34.484375 15.265625 34.597656 C 15.371094 34.671875 15.421875 34.945312 15.511719 35.960938 C 15.640625 37.339844 15.605469 37.589844 15.34375 37.269531 C 14.984375 36.8125 14.609375 35.273438 14.75 34.835938 " fill-opacity="1" fill-rule="evenodd"/></g></g></g><g clip-path="url(#bdc7329eb1)"><g clip-path="url(#2be67ba52a)"><g clip-path="url(#0c916f5c27)"><path fill="#000000" d="M 15.503906 30.550781 C 15.742188 29.488281 16.738281 27.433594 17.78125 25.855469 C 18.9375 24.097656 20.929688 21.851562 22.257812 20.808594 C 23.039062 20.195312 26.152344 18.316406 26.863281 18.03125 C 28.0625 17.554688 29.136719 17.292969 29.496094 17.390625 C 29.570312 17.410156 29.640625 17.515625 29.648438 17.621094 C 29.664062 17.785156 29.59375 17.839844 29.089844 18.035156 C 27.625 18.609375 26.65625 19.097656 25.011719 20.105469 C 22.578125 21.597656 21.5625 22.417969 20.277344 23.949219 C 18.511719 26.050781 17.136719 28.402344 16.421875 30.539062 C 16.042969 31.679688 15.832031 32.066406 15.621094 32.003906 C 15.425781 31.949219 15.367188 31.175781 15.503906 30.550781 " fill-opacity="1" fill-rule="evenodd"/></g></g></g><g clip-path="url(#90c3d3d76b)"><g clip-path="url(#f4a609e457)"><path fill="#ffffff" d="M 20.175781 59.953125 L 42.222656 59.953125 L 42.222656 82.609375 L 20.175781 82.609375 Z M 20.175781 59.953125 " fill-opacity="1" fill-rule="nonzero"/></g></g><g clip-path="url(#d7ce5213a3)"><g clip-path="url(#238f6418bc)"><path fill="#ffffff" d="M 21.726562 60.816406 L 42.9375 60.816406 L 42.9375 83.023438 L 21.726562 83.023438 Z M 21.726562 60.816406 " fill-opacity="1" fill-rule="nonzero"/></g></g><g clip-path="url(#e076b89923)"><g clip-path="url(#5e059f4f33)"><g clip-path="url(#40df813b7f)"><g clip-path="url(#bd2d5647ff)"><g clip-path="url(#5c2399257f)"><path fill="#000000" d="M 20.59375 68.644531 C 19.917969 72.035156 20.96875 75.769531 23.371094 78.519531 C 24.351562 79.640625 25.550781 80.59375 26.839844 81.273438 C 28.234375 82.011719 30.023438 82.507812 31.542969 82.59375 C 36.019531 82.835938 40.007812 80.472656 41.824219 76.496094 C 42.171875 75.75 42.550781 74.445312 42.660156 73.640625 C 42.988281 71.164062 42.5 68.640625 41.253906 66.421875 C 40.136719 64.425781 38.460938 62.773438 36.460938 61.695312 C 35.574219 61.214844 35.195312 61.066406 34.011719 60.730469 C 32.984375 60.441406 32.851562 60.410156 32.199219 60.34375 C 27.269531 59.847656 22.921875 62.449219 21.082031 66.988281 C 20.839844 67.589844 20.730469 67.957031 20.59375 68.644531 Z M 20.746094 66.390625 C 22.84375 61.40625 28.078125 58.785156 33.554688 59.980469 C 38.53125 61.070312 42.453125 65.246094 43.203125 70.261719 C 43.699219 73.539062 42.800781 76.835938 40.757812 79.269531 C 39.449219 80.820312 37.632812 82.03125 35.683594 82.65625 C 32.730469 83.59375 29.457031 83.265625 26.515625 81.734375 C 25.722656 81.320312 24.714844 80.617188 24 79.96875 C 20.929688 77.207031 19.480469 73.367188 19.976562 69.34375 C 20.078125 68.550781 20.464844 67.058594 20.746094 66.390625 " fill-opacity="1" fill-rule="evenodd"/></g></g></g></g></g><g clip-path="url(#83f8bf69db)"><g clip-path="url(#af49cbdc39)"><g clip-path="url(#6c10f7930d)"><path fill="#000000" d="M 21.988281 67.257812 C 22.074219 67.160156 22.234375 67.148438 22.296875 67.242188 C 22.335938 67.296875 22.308594 67.445312 22.160156 67.976562 C 21.953125 68.703125 21.890625 68.820312 21.820312 68.609375 C 21.726562 68.308594 21.832031 67.453125 21.988281 67.257812 " fill-opacity="1" fill-rule="evenodd"/></g></g></g><g clip-path="url(#4b176171a4)"><g clip-path="url(#bba70d4243)"><g clip-path="url(#a7854bdc4d)"><path fill="#000000" d="M 23.203125 65.234375 C 23.527344 64.742188 24.429688 63.894531 25.265625 63.296875 C 26.191406 62.628906 27.636719 61.878906 28.511719 61.605469 C 29.027344 61.445312 30.96875 61.097656 31.382812 61.089844 C 32.085938 61.078125 32.679688 61.15625 32.84375 61.273438 C 32.878906 61.296875 32.890625 61.367188 32.875 61.421875 C 32.851562 61.507812 32.804688 61.523438 32.511719 61.519531 C 31.660156 61.53125 31.070312 61.589844 30.042969 61.78125 C 28.519531 62.066406 27.847656 62.285156 26.898438 62.8125 C 25.597656 63.535156 24.445312 64.460938 23.667969 65.40625 C 23.253906 65.910156 23.074219 66.066406 22.980469 65.992188 C 22.890625 65.929688 23.011719 65.523438 23.203125 65.234375 " fill-opacity="1" fill-rule="evenodd"/></g></g></g><g clip-path="url(#cbd6bc822c)"><g clip-path="url(#5562bf66fa)"><path fill="#ffffff" d="M 45.640625 74.367188 L 56.945312 74.367188 L 56.945312 85.980469 L 45.640625 85.980469 Z M 45.640625 74.367188 " fill-opacity="1" fill-rule="nonzero"/></g></g><g clip-path="url(#521e37ced6)"><g clip-path="url(#a23a93ecc2)"><path fill="#ffffff" d="M 46.070312 75 L 56.945312 75 L 56.945312 86.382812 L 46.070312 86.382812 Z M 46.070312 75 " fill-opacity="1" fill-rule="nonzero"/></g></g><g clip-path="url(#852c47283c)"><g clip-path="url(#decf60fa59)"><path fill="#ffffff" d="M 49.335938 76.183594 L 57.511719 76.183594 L 57.511719 85.03125 L 49.335938 85.03125 Z M 49.335938 76.183594 " fill-opacity="1" fill-rule="nonzero"/></g></g><g clip-path="url(#1fce7848ca)"><g clip-path="url(#91b029e8b9)"><path fill="#ffffff" d="M 48.769531 77.132812 L 56.945312 77.132812 L 56.945312 85.980469 L 48.769531 85.980469 Z M 48.769531 77.132812 " fill-opacity="1" fill-rule="nonzero"/></g></g><g clip-path="url(#644ff10c94)"><g clip-path="url(#18147db0a4)"><g clip-path="url(#c2cff73544)"><g clip-path="url(#5e5cf3e536)"><g clip-path="url(#5e85ad06c9)"><path fill="#000000" d="M 45.652344 78.910156 C 45.300781 80.683594 45.851562 82.636719 47.105469 84.074219 C 47.617188 84.660156 48.246094 85.160156 48.921875 85.515625 C 49.648438 85.898438 50.585938 86.160156 51.378906 86.203125 C 53.722656 86.332031 55.808594 85.09375 56.757812 83.015625 C 56.9375 82.625 57.136719 81.945312 57.191406 81.523438 C 57.363281 80.226562 57.109375 78.90625 56.457031 77.75 C 55.875 76.703125 54.996094 75.839844 53.953125 75.277344 C 53.488281 75.027344 53.289062 74.949219 52.671875 74.769531 C 52.132812 74.621094 52.066406 74.601562 51.722656 74.570312 C 49.144531 74.308594 46.871094 75.667969 45.910156 78.046875 C 45.78125 78.359375 45.726562 78.550781 45.652344 78.910156 Z M 45.734375 77.730469 C 46.828125 75.125 49.570312 73.753906 52.433594 74.378906 C 55.035156 74.949219 57.085938 77.132812 57.476562 79.757812 C 57.734375 81.46875 57.269531 83.195312 56.199219 84.46875 C 55.515625 85.277344 54.566406 85.910156 53.546875 86.238281 C 52.003906 86.726562 50.289062 86.554688 48.75 85.753906 C 48.335938 85.539062 47.808594 85.171875 47.433594 84.832031 C 45.832031 83.386719 45.070312 81.378906 45.332031 79.277344 C 45.382812 78.859375 45.585938 78.082031 45.734375 77.730469 " fill-opacity="1" fill-rule="evenodd"/></g></g></g></g></g><g clip-path="url(#b27e2bbc54)"><g clip-path="url(#b152787a94)"><g clip-path="url(#b856daa66e)"><path fill="#000000" d="M 46.382812 78.1875 C 46.425781 78.132812 46.511719 78.128906 46.546875 78.175781 C 46.566406 78.207031 46.550781 78.285156 46.472656 78.5625 C 46.367188 78.941406 46.332031 79.003906 46.296875 78.890625 C 46.246094 78.734375 46.300781 78.289062 46.382812 78.1875 " fill-opacity="1" fill-rule="evenodd"/></g></g></g><g clip-path="url(#fafbb30ad9)"><g clip-path="url(#d61a29a940)"><g clip-path="url(#e052b31101)"><path fill="#000000" d="M 47.019531 77.125 C 47.1875 76.871094 47.660156 76.425781 48.097656 76.113281 C 48.582031 75.765625 49.335938 75.371094 49.796875 75.226562 C 50.0625 75.144531 51.078125 74.960938 51.296875 74.957031 C 51.664062 74.953125 51.972656 74.992188 52.058594 75.054688 C 52.078125 75.066406 52.085938 75.105469 52.078125 75.132812 C 52.0625 75.175781 52.039062 75.183594 51.886719 75.183594 C 51.441406 75.1875 51.132812 75.222656 50.59375 75.320312 C 49.800781 75.46875 49.449219 75.585938 48.953125 75.859375 C 48.269531 76.238281 47.667969 76.722656 47.261719 77.21875 C 47.046875 77.480469 46.949219 77.5625 46.902344 77.523438 C 46.855469 77.488281 46.917969 77.277344 47.019531 77.125 " fill-opacity="1" fill-rule="evenodd"/></g></g></g><g clip-path="url(#61ddc956b9)"><g clip-path="url(#e47b3c6bf4)"><g clip-path="url(#8128b15e9a)"><path fill="#000000" d="M 59.648438 80.21875 C 59.597656 80.742188 59.777344 81.3125 60.121094 81.722656 C 60.261719 81.890625 60.484375 82.074219 60.675781 82.183594 C 60.910156 82.316406 61.386719 82.453125 61.636719 82.457031 C 62.09375 82.457031 62.578125 82.300781 62.921875 82.03125 C 63.730469 81.40625 63.953125 80.261719 63.4375 79.386719 C 63.292969 79.140625 63.207031 79.039062 63.003906 78.863281 C 62.757812 78.648438 62.5625 78.546875 62.222656 78.449219 C 61.996094 78.386719 61.90625 78.367188 61.746094 78.367188 C 61.140625 78.351562 60.5625 78.597656 60.160156 79.042969 C 59.875 79.355469 59.695312 79.769531 59.648438 80.21875 Z M 59.5625 79.472656 C 59.96875 78.601562 60.796875 78.082031 61.765625 78.09375 C 61.953125 78.097656 62.011719 78.105469 62.328125 78.195312 C 62.714844 78.304688 62.808594 78.351562 63.105469 78.574219 C 63.589844 78.9375 63.933594 79.53125 64.003906 80.140625 C 64.085938 80.820312 63.886719 81.445312 63.421875 81.964844 C 62.824219 82.640625 61.921875 82.902344 61.042969 82.652344 C 60.195312 82.414062 59.5625 81.722656 59.398438 80.851562 C 59.3125 80.398438 59.375 79.875 59.5625 79.472656 " fill-opacity="1" fill-rule="evenodd"/></g></g></g></svg>