<svg xmlns="http://www.w3.org/2000/svg" xmlns:xlink="http://www.w3.org/1999/xlink" zoomAndPan="magnify" viewBox="0 0 810 809.999993" preserveAspectRatio="xMidYMid meet" version="1.0"><defs><clipPath id="92a17fd494"><path d="M 10.84375 374 L 529 374 L 529 432 L 10.84375 432 Z M 10.84375 374 " clip-rule="nonzero"/></clipPath><clipPath id="7165687278"><path d="M 157 67.457031 L 798 67.457031 L 798 740 L 157 740 Z M 157 67.457031 " clip-rule="nonzero"/></clipPath><clipPath id="67c77b1e21"><path d="M 10.84375 403 L 529 403 L 529 432 L 10.84375 432 Z M 10.84375 403 " clip-rule="nonzero"/></clipPath></defs><g clip-path="url(#92a17fd494)"><path fill="#000000" d="M 8.917969 403.074219 C 8.917969 387.148438 21.832031 374.234375 37.761719 374.234375 L 499.207031 374.234375 C 515.136719 374.234375 528.050781 387.148438 528.050781 403.074219 C 528.050781 419.003906 515.136719 431.917969 499.207031 431.917969 L 37.761719 431.917969 C 21.832031 431.917969 8.917969 419.003906 8.917969 403.074219 Z M 8.917969 403.074219 " fill-opacity="1" fill-rule="evenodd"/></g><path fill="#000000" d="M 344.226562 248.09375 C 355.492188 236.832031 373.75 236.832031 385.011719 248.09375 L 519.601562 382.683594 C 530.863281 393.945312 530.863281 412.203125 519.601562 423.46875 L 385.011719 558.058594 C 373.75 569.320312 355.492188 569.320312 344.226562 558.058594 C 332.964844 546.792969 332.964844 528.535156 344.226562 517.273438 L 458.421875 403.074219 L 344.226562 288.878906 C 332.964844 277.617188 332.964844 259.355469 344.226562 248.09375 Z M 344.226562 248.09375 " fill-opacity="1" fill-rule="evenodd"/><g clip-path="url(#7165687278)"><path fill="#000000" d="M 460.753906 124.285156 C 352.507812 124.285156 258.617188 185.972656 212.410156 276.246094 C 205.152344 290.421875 187.777344 296.035156 173.597656 288.777344 C 159.417969 281.519531 153.808594 264.144531 161.066406 249.964844 C 216.75 141.171875 330.019531 66.601562 460.753906 66.601562 C 646.585938 66.601562 797.226562 217.246094 797.226562 403.074219 C 797.226562 588.90625 646.585938 739.550781 460.753906 739.550781 C 330.019531 739.550781 216.75 664.980469 161.066406 556.1875 C 153.808594 542.007812 159.417969 524.628906 173.597656 517.371094 C 187.777344 510.117188 205.152344 515.726562 212.410156 529.90625 C 258.617188 620.179688 352.507812 681.867188 460.753906 681.867188 C 614.730469 681.867188 739.546875 557.050781 739.546875 403.074219 C 739.546875 249.101562 614.730469 124.285156 460.753906 124.285156 Z M 460.753906 124.285156 " fill-opacity="1" fill-rule="evenodd"/></g><g clip-path="url(#67c77b1e21)"><path fill="#000000" d="M 528.050781 403.074219 L 8.917969 403.074219 C 8.917969 419.003906 21.832031 431.917969 37.761719 431.917969 L 499.207031 431.917969 C 515.136719 431.917969 528.050781 419.003906 528.050781 403.074219 Z M 528.050781 403.074219 " fill-opacity="1" fill-rule="evenodd"/></g><path fill="#000000" d="M 528.050781 403.074219 C 528.050781 410.453125 525.234375 417.839844 519.601562 423.46875 L 385.011719 558.058594 C 373.75 569.320312 355.492188 569.320312 344.226562 558.058594 C 332.964844 546.792969 332.964844 528.535156 344.226562 517.273438 L 458.421875 403.074219 Z M 528.050781 403.074219 " fill-opacity="1" fill-rule="evenodd"/><path fill="#000000" d="M 797.226562 403.074219 L 739.546875 403.074219 C 739.546875 557.050781 614.730469 681.867188 460.753906 681.867188 C 352.507812 681.867188 258.617188 620.179688 212.410156 529.90625 C 205.152344 515.726562 187.777344 510.117188 173.597656 517.371094 C 159.417969 524.628906 153.808594 542.007812 161.066406 556.1875 C 216.75 664.980469 330.019531 739.550781 460.753906 739.550781 C 646.585938 739.550781 797.226562 588.90625 797.226562 403.074219 Z M 797.226562 403.074219 " fill-opacity="1" fill-rule="evenodd"/></svg>