<svg xmlns="http://www.w3.org/2000/svg" xmlns:xlink="http://www.w3.org/1999/xlink" zoomAndPan="magnify" viewBox="0 0 810 809.999993" preserveAspectRatio="xMidYMid meet" version="1.0"><defs><clipPath id="05610af719"><path d="M 12.949219 82.449219 L 563 82.449219 L 563 727.039062 L 12.949219 727.039062 Z M 12.949219 82.449219 " clip-rule="nonzero"/></clipPath></defs><path fill="#000000" d="M 797.042969 404.8125 C 797.042969 405.789062 797.042969 406.691406 796.902344 407.597656 C 796.484375 412.886719 795.023438 417.96875 792.585938 422.425781 C 792.449219 422.703125 792.238281 423.050781 791.960938 423.328125 C 790.011719 426.113281 787.4375 429.175781 783.816406 433.074219 L 783.46875 433.421875 C 779.710938 437.390625 774.695312 442.402344 768.363281 448.738281 L 672.371094 544.730469 C 665.128906 552.039062 655.664062 555.660156 646.125 555.660156 C 636.660156 555.660156 627.191406 552.039062 619.953125 544.730469 C 605.472656 530.320312 605.472656 506.863281 619.953125 492.453125 C 619.953125 492.453125 644.316406 468.019531 670.558594 441.847656 L 335.246094 441.847656 C 314.78125 441.847656 298.214844 425.277344 298.214844 404.8125 C 298.214844 384.277344 314.78125 367.78125 335.246094 367.78125 L 670.558594 367.78125 L 619.953125 317.171875 C 605.472656 302.695312 605.472656 279.304688 619.953125 264.757812 C 634.5 250.277344 657.890625 250.277344 672.371094 264.757812 L 786.113281 378.570312 C 793.144531 385.53125 797.042969 395 797.042969 404.8125 " fill-opacity="1" fill-rule="nonzero"/><path fill="#000000" d="M 791.960938 423.328125 C 789.941406 427.089844 787.085938 430.359375 783.816406 433.074219 C 787.4375 429.175781 790.011719 426.113281 791.960938 423.328125 " fill-opacity="1" fill-rule="nonzero"/><path fill="#000000" d="M 796.902344 407.597656 C 796.765625 413.445312 795.996094 417.550781 792.585938 422.425781 C 795.023438 417.96875 796.484375 412.886719 796.902344 407.597656 " fill-opacity="1" fill-rule="nonzero"/><g clip-path="url(#05610af719)"><path fill="#000000" d="M 552.917969 592.691406 C 566.632812 607.9375 565.238281 631.324219 549.996094 644.96875 C 490.964844 697.875 414.601562 727.039062 335.246094 727.039062 C 157.53125 727.039062 12.949219 582.390625 12.949219 404.8125 C 12.949219 227.097656 157.53125 82.515625 335.246094 82.515625 C 414.601562 82.515625 490.964844 111.613281 549.996094 164.519531 C 565.238281 178.230469 566.632812 201.621094 552.917969 216.863281 C 539.273438 232.109375 515.886719 233.433594 500.640625 219.789062 C 455.183594 179.066406 396.433594 156.582031 335.246094 156.582031 C 198.390625 156.582031 87.015625 267.960938 87.015625 404.8125 C 87.015625 541.667969 198.390625 652.90625 335.246094 652.90625 C 396.433594 652.90625 455.183594 630.488281 500.640625 589.835938 C 515.886719 576.195312 539.273438 577.445312 552.917969 592.691406 " fill-opacity="1" fill-rule="nonzero"/></g></svg>