<svg xmlns="http://www.w3.org/2000/svg" xmlns:xlink="http://www.w3.org/1999/xlink" zoomAndPan="magnify" viewBox="0 0 810 809.999993" preserveAspectRatio="xMidYMid meet" version="1.0"><defs><clipPath id="b6e1a4706c"><path d="M 170 466 L 640 466 L 640 714.359375 L 170 714.359375 Z M 170 466 " clip-rule="nonzero"/></clipPath><clipPath id="1c551c144a"><path d="M 256 142.109375 L 554 142.109375 L 554 440 L 256 440 Z M 256 142.109375 " clip-rule="nonzero"/></clipPath></defs><path fill="#000000" d="M 637.597656 642.902344 L 807.417969 642.902344 C 787.183594 486.574219 709.054688 444.15625 615.710938 444.15625 C 574.953125 444.15625 537.109375 452.257812 505.691406 474.359375 C 571.351562 500.347656 615.007812 556.179688 637.597656 642.902344 " fill-opacity="1" fill-rule="nonzero"/><path fill="#b9e5ff" d="M 637.597656 642.902344 L 637.597656 648.359375 L 807.417969 648.359375 C 808.996094 648.359375 810.46875 647.699219 811.511719 646.503906 C 812.554688 645.320312 813.027344 643.765625 812.824219 642.207031 C 807.714844 602.710938 798.933594 570.230469 787.035156 543.664062 C 769.210938 503.824219 744.234375 477.300781 714.683594 461.042969 C 685.152344 444.765625 651.316406 438.699219 615.710938 438.699219 C 594.976562 438.699219 574.859375 440.757812 555.828125 445.691406 C 536.800781 450.617188 518.847656 458.429688 502.558594 469.890625 C 500.917969 471.042969 500.042969 473.015625 500.277344 475 C 500.511719 476.992188 501.824219 478.699219 503.6875 479.433594 C 535.648438 492.097656 562.109375 511.894531 583.492188 539.21875 C 604.878906 566.539062 621.15625 601.464844 632.320312 644.277344 C 632.949219 646.6875 635.113281 648.359375 637.597656 648.359375 L 637.597656 642.902344 L 642.882812 641.527344 C 631.433594 597.617188 614.601562 561.261719 592.097656 532.492188 C 569.59375 503.71875 541.394531 482.609375 507.707031 469.285156 L 505.691406 474.359375 L 508.839844 478.824219 C 523.953125 468.1875 540.628906 460.90625 558.570312 456.257812 C 576.5 451.609375 595.6875 449.617188 615.710938 449.617188 C 638.628906 449.617188 660.472656 452.226562 680.578125 458.441406 C 710.757812 467.800781 737.070312 485.105469 758.027344 514.484375 C 778.976562 543.875 794.488281 585.578125 802.003906 643.605469 L 807.417969 642.902344 L 807.417969 637.441406 L 637.597656 637.441406 L 637.597656 642.902344 L 642.882812 641.527344 L 637.597656 642.902344 " fill-opacity="1" fill-rule="nonzero"/><path fill="#000000" d="M 615.710938 172.972656 C 585.5625 172.972656 558.121094 184.15625 537.046875 202.492188 C 554.292969 227.769531 564.402344 258.28125 564.402344 291.113281 C 564.402344 324.949219 553.601562 356.230469 535.382812 381.929688 C 556.660156 401.164062 584.773438 412.953125 615.710938 412.953125 C 681.953125 412.953125 735.703125 359.226562 735.703125 292.980469 C 735.703125 226.703125 681.953125 172.972656 615.710938 172.972656 " fill-opacity="1" fill-rule="nonzero"/><path fill="#b9e5ff" d="M 615.710938 172.972656 L 615.710938 167.515625 C 584.195312 167.515625 555.476562 179.222656 533.464844 198.378906 C 531.375 200.191406 530.980469 203.28125 532.535156 205.574219 C 549.199219 229.976562 558.941406 259.398438 558.941406 291.113281 C 558.941406 323.777344 548.527344 353.9375 530.925781 378.777344 C 529.328125 381.035156 529.667969 384.128906 531.726562 385.984375 C 553.941406 406.066406 583.375 418.410156 615.710938 418.410156 C 684.972656 418.402344 741.164062 362.242188 741.164062 292.980469 C 741.164062 223.6875 684.972656 167.527344 615.710938 167.515625 L 615.710938 178.433594 C 647.339844 178.433594 675.941406 191.246094 696.6875 211.980469 C 717.433594 232.726562 730.246094 261.328125 730.246094 292.980469 C 730.246094 324.609375 717.433594 353.203125 696.6875 373.945312 C 675.941406 394.679688 647.339844 407.484375 615.710938 407.496094 C 586.179688 407.484375 559.378906 396.25 539.039062 377.878906 L 535.382812 381.929688 L 539.839844 385.085938 C 558.664062 358.519531 569.859375 326.113281 569.859375 291.113281 C 569.859375 257.148438 559.402344 225.550781 541.554688 199.421875 L 537.046875 202.492188 L 540.628906 206.617188 C 560.777344 189.09375 586.925781 178.433594 615.710938 178.433594 L 615.710938 172.972656 " fill-opacity="1" fill-rule="nonzero"/><path fill="#000000" d="M 172.402344 642.902344 L 2.589844 642.902344 C 22.824219 486.574219 100.945312 444.15625 194.296875 444.15625 C 235.042969 444.15625 272.898438 452.257812 304.304688 474.359375 C 238.648438 500.347656 195.003906 556.179688 172.402344 642.902344 " fill-opacity="1" fill-rule="nonzero"/><path fill="#b9e5ff" d="M 172.402344 642.902344 L 172.402344 637.441406 L 2.589844 637.441406 L 2.589844 642.902344 L 8.007812 643.605469 C 13.003906 604.929688 21.578125 573.480469 32.929688 548.128906 C 49.996094 510.09375 73.183594 485.742188 100.582031 470.605469 C 127.992188 455.488281 159.886719 449.617188 194.296875 449.617188 C 214.308594 449.617188 233.507812 451.609375 251.4375 456.257812 C 269.371094 460.90625 286.054688 468.1875 301.171875 478.824219 L 304.304688 474.359375 L 302.300781 469.285156 C 268.601562 482.609375 240.40625 503.71875 217.910156 532.492188 C 195.398438 561.261719 178.5625 597.617188 167.113281 641.527344 L 172.402344 642.902344 L 172.402344 637.441406 L 172.402344 642.902344 L 177.679688 644.277344 C 188.839844 601.464844 205.128906 566.539062 226.503906 539.21875 C 247.898438 511.894531 274.347656 492.097656 306.320312 479.433594 C 308.175781 478.699219 309.484375 476.992188 309.730469 475 C 309.964844 473.015625 309.082031 471.042969 307.449219 469.890625 C 291.148438 458.429688 273.199219 450.617188 254.179688 445.691406 C 235.140625 440.757812 215.035156 438.699219 194.296875 438.699219 C 170.546875 438.699219 147.617188 441.394531 126.1875 448.015625 C 94.058594 457.917969 65.359375 476.820312 43.078125 508.152344 C 20.777344 539.472656 4.839844 582.980469 -2.824219 642.207031 C -3.027344 643.765625 -2.558594 645.320312 -1.515625 646.503906 C -0.46875 647.699219 1.011719 648.359375 2.589844 648.359375 L 172.402344 648.359375 C 174.886719 648.359375 177.050781 646.6875 177.679688 644.277344 L 172.402344 642.902344 " fill-opacity="1" fill-rule="nonzero"/><path fill="#000000" d="M 194.296875 172.972656 C 224.4375 172.972656 251.875 184.15625 272.953125 202.492188 C 255.703125 227.769531 245.597656 258.28125 245.597656 291.113281 C 245.597656 324.949219 256.40625 356.230469 274.617188 381.929688 C 253.335938 401.164062 225.226562 412.953125 194.296875 412.953125 C 128.042969 412.953125 74.292969 359.226562 74.292969 292.980469 C 74.292969 226.703125 128.042969 172.972656 194.296875 172.972656 " fill-opacity="1" fill-rule="nonzero"/><path fill="#b9e5ff" d="M 194.296875 172.972656 L 194.296875 178.433594 C 223.070312 178.433594 249.222656 189.09375 269.371094 206.617188 L 272.953125 202.492188 L 268.441406 199.421875 C 250.597656 225.550781 240.140625 257.148438 240.140625 291.113281 C 240.140625 326.125 251.332031 358.519531 270.160156 385.085938 L 274.617188 381.929688 L 270.957031 377.878906 C 250.617188 396.25 223.828125 407.484375 194.296875 407.496094 C 162.660156 407.484375 134.054688 394.679688 113.3125 373.945312 C 92.574219 353.203125 79.75 324.609375 79.75 292.980469 C 79.75 261.328125 92.574219 232.726562 113.3125 211.980469 C 134.054688 191.246094 162.660156 178.433594 194.296875 178.433594 L 194.296875 167.515625 C 125.027344 167.527344 68.84375 223.6875 68.835938 292.980469 C 68.84375 362.242188 125.027344 418.402344 194.296875 418.410156 C 226.621094 418.410156 256.054688 406.066406 278.273438 385.984375 C 280.328125 384.128906 280.671875 381.035156 279.070312 378.777344 C 261.480469 353.9375 251.054688 323.777344 251.054688 291.113281 C 251.054688 259.398438 260.808594 229.976562 277.460938 205.574219 C 279.019531 203.292969 278.625 200.191406 276.535156 198.378906 C 254.53125 179.222656 225.800781 167.515625 194.296875 167.515625 L 194.296875 172.972656 " fill-opacity="1" fill-rule="nonzero"/><path fill="#000000" d="M 633.820312 708.804688 C 609.6875 522.203125 516.417969 471.585938 405.003906 471.585938 C 293.558594 471.585938 200.320312 522.203125 176.175781 708.804688 L 633.820312 708.804688 " fill-opacity="1" fill-rule="nonzero"/><g clip-path="url(#b6e1a4706c)"><path fill="#b9e5ff" d="M 633.820312 708.804688 L 639.238281 708.101562 C 633.152344 661.035156 622.683594 622.371094 608.535156 590.78125 C 587.34375 543.40625 557.695312 511.957031 522.632812 492.664062 C 487.582031 473.335938 447.378906 466.128906 405.003906 466.128906 C 376.722656 466.128906 349.464844 469.328125 324.015625 477.195312 C 285.851562 488.953125 251.8125 511.371094 225.351562 548.578125 C 198.871094 585.773438 179.894531 637.519531 170.761719 708.101562 C 170.558594 709.667969 171.027344 711.214844 172.070312 712.40625 C 173.117188 713.589844 174.585938 714.261719 176.175781 714.261719 L 633.820312 714.261719 C 635.410156 714.261719 636.882812 713.589844 637.925781 712.40625 C 638.972656 711.214844 639.441406 709.667969 639.238281 708.101562 L 633.820312 708.804688 L 633.820312 703.347656 L 176.175781 703.347656 L 176.175781 708.804688 L 181.582031 709.496094 C 187.570312 663.261719 197.816406 625.632812 211.417969 595.25 C 231.867188 549.664062 259.710938 520.390625 292.621094 502.214844 C 325.539062 484.058594 363.8125 477.042969 405.003906 477.042969 C 432.445312 477.042969 458.617188 480.167969 482.75 487.621094 C 518.953125 498.84375 550.59375 519.644531 575.742188 554.910156 C 600.871094 590.175781 619.441406 640.128906 628.417969 709.496094 L 633.820312 708.804688 L 633.820312 703.347656 L 633.820312 708.804688 " fill-opacity="1" fill-rule="nonzero"/></g><path fill="#000000" d="M 548.21875 291.113281 C 548.21875 370.214844 484.085938 434.339844 405.003906 434.339844 C 325.890625 434.339844 261.78125 370.214844 261.78125 291.113281 C 261.78125 212.011719 325.890625 147.902344 405.003906 147.902344 C 484.085938 147.902344 548.21875 212.011719 548.21875 291.113281 " fill-opacity="1" fill-rule="nonzero"/><g clip-path="url(#1c551c144a)"><path fill="#b9e5ff" d="M 548.21875 291.113281 L 542.757812 291.113281 C 542.757812 329.171875 527.34375 363.585938 502.410156 388.53125 C 477.453125 413.464844 443.050781 428.878906 405.003906 428.878906 C 366.933594 428.878906 332.535156 413.464844 307.589844 388.53125 C 282.644531 363.585938 267.238281 329.171875 267.238281 291.113281 C 267.238281 253.054688 282.644531 218.644531 307.589844 193.699219 C 332.535156 168.761719 366.933594 153.371094 405.003906 153.359375 C 443.050781 153.359375 477.453125 168.761719 502.410156 193.710938 C 527.34375 218.65625 542.757812 253.054688 542.757812 291.113281 L 553.675781 291.113281 C 553.675781 208.996094 487.101562 142.453125 405.003906 142.441406 C 322.875 142.453125 256.320312 208.996094 256.320312 291.113281 C 256.320312 373.234375 322.875 439.796875 405.003906 439.796875 C 487.101562 439.796875 553.675781 373.234375 553.675781 291.113281 L 548.21875 291.113281 " fill-opacity="1" fill-rule="nonzero"/></g></svg>